SplineFontDB: 3.0
FontName: StickNoBills-Light
FullName: Stick No Bills
FamilyName: Stick No Bills
Weight: Light
Copyright: Copyright (c) 2013 STICK NO BILLS, Copyright (c) 2015 mooniak\n
UComments: "2015-2-15: Created with FontForge (http://fontforge.org) The  Free Font Editor"
Version: 1.0
ItalicAngle: 0
UnderlinePosition: -102
UnderlineWidth: 51
Ascent: 819
Descent: 205
InvalidEm: 0
UFOAscent: 819
UFODescent: -205
LayerCount: 3
Layer: 0 0 "Back" 1
Layer: 1 0 "Fore" 1
Layer: 2 0 "Back 2" 1
PreferredKerning: 4
FSType: 0
OS2Version: 0
OS2_WeightWidthSlopeOnly: 0
OS2_UseTypoMetrics: 0
CreationTime: 1429518268
ModificationTime: 1440589831
PfmFamily: 16
TTFWeight: 400
TTFWidth: 5
LineGap: 94
VLineGap: 0
OS2TypoAscent: 819
OS2TypoAOffset: 0
OS2TypoDescent: -205
OS2TypoDOffset: 0
OS2TypoLinegap: 94
OS2WinAscent: 918
OS2WinAOffset: 0
OS2WinDescent: 205
OS2WinDOffset: 0
HheadAscent: 918
HheadAOffset: 0
HheadDescent: -205
HheadDOffset: 0
OS2Vendor: 'PfEd'
OS2UnicodeRanges: 00000002.00000000.00000000.00000000
Lookup: 258 0 0 "'kern' Horizontal Kerning lookup 0" { "'kern' Horizontal Kerning lookup 0-1" [153,15,0] } ['kern' ('DFLT' <'dflt' > 'hani' <'dflt' > 'latn' <'dflt' > ) ]
Lookup: 258 0 0 "StickNoBills-Light-'kern' Horizontal Kerning lookup 0" { "StickNoBills-Light-'kern' Horizontal Kerning lookup 0-1" [153,15,0] } ['kern' ('DFLT' <'dflt' > 'hani' <'dflt' > 'latn' <'dflt' > ) ]
MarkAttachClasses: 1
DEI: 91125
KernClass2: 7 7 "'kern' Horizontal Kerning lookup 0-1"
 7 uni0041
 31 uni0054 uni0059 uni0050 uni0046
 39 uni0066 uni0072 uni0076 uni0077 uni0079
 7 uni004C
 15 uni0057 uni0056
 0 
 31 uni0057 uni0056 uni0054 uni0059
 15 uni002E uni002C
 71 uni0061 uni0065 uni0073 uni006F uni0071 uni0064 uni0063 uni0067 uni0075
 7 uni0041
 23 uni0077 uni0076 uni0074
 15 uni003B uni003A

StartChar: uni0B93
Encoding: 13 2963 62
Width: 937
VWidth: 0
Flags: HW
LayerCount: 3
Back
SplineSet
263.208007812 1 m 1
 263.208007812 126.399414062 l 0
 305.607421875 127.399414062 319.20703125 154.606445312 318.484375 186 c 0
 317.849609375 213.5703125 300.815429688 242.403320312 263.208007812 243.399414062 c 1
 263.208007812 369 l 0
 372.516601562 369.303710938 443.84375 291.500976562 444.00390625 229.901367188 c 0
 444.00390625 140.903320312 l 0
 444.904296875 75.91015625 382.641601562 2.8720703125 263.208007812 1 c 1
443.00390625 641 m 1
 443.00390625 516 l 1
 249.1015625 516 179.208007812 410.120117188 179.208007812 337 c 0
 179.208007812 278.819335938 45.7626953125 263.567382812 40.00390625 233 c 1
 40.00390625 288 l 1
 40.00390625 405 124.00390625 641 443.00390625 641 c 0
 443.00390625 641 l 1
222.208007812 369 m 1
 222.208007812 243.399414062 l 0
 185.607421875 241.399414062 166.80859375 215.377929688 166.80859375 186 c 0
 166.80859375 153.600585938 181.607421875 126.399414062 222.208007812 126.399414062 c 1
 222.208007812 1 l 0
 105.8984375 1 40.572265625 77.0029296875 40.00390625 138.599609375 c 0
 40.00390625 226.599609375 l 0
 39.2041015625 333 164.208007812 369 222.208007812 369 c 1
594 -193 m 1
 492 -280 463.384765625 -304.25 377 -304.25 c 0
 266 -304.25 222 -220 222 -153 c 0
 222 -100.239257812 254.542166645 -27.2397595291 331 -7 c 0
 400.636126898 11.4339315032 471 -22 489 -37 c 1
 405 -130 l 1
 405 -105 347 -101.944335938 347 -145 c 0
 347 -189 434 -202 488 -113 c 1
 594 -193 l 1
495.00390625 253.220703125 m 1
 619.00390625 146 l 0
 619.00390625 24.220703125 l 0
 619.00390625 -25.779296875 693.423828125 -38.3193359375 769.59375 -38.3193359375 c 0
 769.59375 -163.790039062 l 1
 603.00390625 -163.790039062 495.055664062 -96.7001953125 495.00390625 -3.58984375 c 0
 495.00390625 253.220703125 l 1
482.00390625 641 m 1
 776.313476562 641.84765625 877.153320312 436.399414062 877.153320312 336.580078125 c 0
 877.153320312 140.169921875 l 2
 877.153320312 -46 495.00390625 -45 495.00390625 141 c 2
 495.00390625 329 l 0
 621.00390625 329 l 1
 621.00390625 172 l 1
 621.00390625 112 750.00390625 111 750.7734375 172 c 0
 750.432617188 336.330078125 l 0
 750.356445312 410.225585938 656.423828125 517.255859375 482.00390625 516 c 1
 482.00390625 641 l 1
EndSplineSet
Fore
SplineSet
263.208007812 1 m 1
 263.208007812 126.399414062 l 0
 305.607421875 127.399414062 319.20703125 154.606445312 318.484375 186 c 0
 317.849609375 213.5703125 300.815429688 242.403320312 263.208007812 243.399414062 c 1
 263.208007812 369 l 0
 372.516601562 369.303710938 443.84375 291.500976562 444.00390625 229.901367188 c 0
 444.00390625 140.903320312 l 0
 444.904296875 75.91015625 382.641601562 2.8720703125 263.208007812 1 c 1
443.00390625 641 m 1
 443.00390625 516 l 1
 249.1015625 516 179.208007812 410.120117188 179.208007812 337 c 0
 179.208007812 278.819335938 45.7626953125 263.567382812 40.00390625 233 c 1
 40.00390625 288 l 1
 40.00390625 405 124.00390625 641 443.00390625 641 c 0
 443.00390625 641 l 1
222.208007812 369 m 1
 222.208007812 243.399414062 l 0
 185.607421875 241.399414062 166.80859375 215.377929688 166.80859375 186 c 0
 166.80859375 153.600585938 181.607421875 126.399414062 222.208007812 126.399414062 c 1
 222.208007812 1 l 0
 105.8984375 1 40.572265625 77.0029296875 40.00390625 138.599609375 c 0
 40.00390625 226.599609375 l 0
 39.2041015625 333 164.208007812 369 222.208007812 369 c 1
594 -193 m 1
 492 -280 463.384765625 -304.25 377 -304.25 c 0
 266 -304.25 222 -220 222 -153 c 0
 222 -100.239257812 254.542166645 -27.2397595291 331 -7 c 0
 400.636126898 11.4339315032 471 -22 489 -37 c 1
 405 -130 l 1
 405 -105 347 -101.944335938 347 -145 c 0
 347 -189 434 -202 488 -113 c 1
 594 -193 l 1
495.00390625 253.220703125 m 1
 619.00390625 146 l 0
 619.00390625 24.220703125 l 0
 619.00390625 -25.779296875 693.423828125 -38.3193359375 769.59375 -38.3193359375 c 0
 769.59375 -163.790039062 l 1
 603.00390625 -163.790039062 495.055664062 -96.7001953125 495.00390625 -3.58984375 c 0
 495.00390625 253.220703125 l 1
482.00390625 641 m 1
 776.313476562 641.84765625 877.153320312 436.399414062 877.153320312 336.580078125 c 0
 877.153320312 140.169921875 l 2
 877.153320312 -46 495.00390625 -45 495.00390625 141 c 2
 495.00390625 329 l 0
 621.00390625 329 l 1
 621.00390625 172 l 1
 621.00390625 112 750.00390625 111 750.7734375 172 c 0
 750.432617188 336.330078125 l 0
 750.356445312 410.225585938 656.423828125 517.255859375 482.00390625 516 c 1
 482.00390625 641 l 1
EndSplineSet
EndChar

StartChar: uni0BAF
Encoding: 27 2991 63
Width: 742
VWidth: 0
Flags: HW
HStem: 0 121<168.088 207 248 309.759 452.372 494 536 576.213>
VStem: 41 124<123.142 519> 327 124<134.603 519> 536 165<4 121> 577 124<122.893 519>
LayerCount: 3
Back
SplineSet
577 148 m 257xe8
 577 610 l 261
 702 610 l 261
 702 1 l 1
 536 1 l 257
 536 122 l 257xf0
 542 122 l 258
 572 122 577 146 577 148 c 257xe8
165 148 m 257
 165 145 171 122 201 122 c 258
 207 122 l 257
 207 1 l 257
 201 1 l 258
 95 1 40 98 40 143 c 258
 40 610 l 261
 165 610 l 261
 165 148 l 257
452 610 m 261
 452 148 l 258
 452 145 458 122 488 122 c 258
 494 122 l 257
 494 1 l 257
 327 1 l 1
 322 34 l 257
 297 14 296 1 254 1 c 258
 248 1 l 257
 248 122 l 257
 254 122 l 258
 285 122 327 146 327 148 c 257
 327 610 l 261
 452 610 l 261
EndSplineSet
Fore
SplineSet
577 148 m 257xe8
 577 610 l 261
 702 610 l 261
 702 1 l 1
 536 1 l 257
 536 122 l 257xf0
 542 122 l 258
 572 122 577 146 577 148 c 257xe8
165 148 m 257
 165 145 171 122 201 122 c 258
 207 122 l 257
 207 1 l 257
 201 1 l 258
 95 1 40 98 40 143 c 258
 40 610 l 261
 165 610 l 261
 165 148 l 257
452 610 m 261
 452 148 l 258
 452 145 458 122 488 122 c 258
 494 122 l 257
 494 1 l 257
 327 1 l 1
 322 34 l 257
 297 14 296 1 254 1 c 258
 248 1 l 257
 248 122 l 257
 254 122 l 258
 285 122 327 146 327 148 c 257
 327 610 l 261
 452 610 l 261
EndSplineSet
EndChar

StartChar: uni0B92
Encoding: 12 2962 64
Width: 917
VWidth: 0
Flags: HMW
LayerCount: 3
Back
SplineSet
263.208007812 1 m 1
 263.208007812 126.399414062 l 0
 305.607421875 127.399414062 319.20703125 154.606445312 318.484375 186 c 0
 317.849609375 213.5703125 300.815429688 242.403320312 263.208007812 243.399414062 c 1
 263.208007812 369 l 0
 372.516601562 369.303710938 443.84375 291.500976562 444.00390625 229.901367188 c 0
 444.00390625 140.903320312 l 0
 444.904296875 75.91015625 382.641601562 2.8720703125 263.208007812 1 c 1
443.00390625 641 m 1
 443.00390625 516 l 1
 249.1015625 516 179.208007812 410.120117188 179.208007812 337 c 0
 179.208007812 278.819335938 45.7626953125 263.567382812 40.00390625 233 c 1
 40.00390625 288 l 1
 40.00390625 405 124.00390625 641 443.00390625 641 c 0
 443.00390625 641 l 1
222.208007812 369 m 1
 222.208007812 243.399414062 l 0
 185.607421875 241.399414062 166.80859375 215.377929688 166.80859375 186 c 0
 166.80859375 153.600585938 181.607421875 126.399414062 222.208007812 126.399414062 c 1
 222.208007812 1 l 0
 105.8984375 1 40.572265625 77.0029296875 40.00390625 138.599609375 c 0
 40.00390625 226.599609375 l 0
 39.2041015625 333 164.208007812 369 222.208007812 369 c 1
603.00390625 -185 m 1
 535.00390625 -330 271.84375 -331.58984375 215.9140625 -153.26953125 c 1
 336.993164062 -121.809570312 l 1
 365.243164062 -180.5703125 462.423828125 -185.08984375 495.193359375 -121.809570312 c 0
 603.00390625 -185 l 1
495.00390625 253.220703125 m 1
 619.00390625 146 l 0
 619.00390625 24.220703125 l 0
 619.00390625 -25.779296875 693.423828125 -38.3193359375 769.59375 -38.3193359375 c 0
 769.59375 -163.790039062 l 1
 603.00390625 -163.790039062 495.055664062 -96.7001953125 495.00390625 -3.58984375 c 0
 495.00390625 253.220703125 l 1
482.00390625 641 m 1
 776.313476562 641.84765625 877.153320312 436.399414062 877.153320312 336.580078125 c 0
 877.153320312 140.169921875 l 2
 877.153320312 -46 495.00390625 -45 495.00390625 141 c 2
 495.00390625 329 l 0
 621.00390625 329 l 1
 621.00390625 172 l 1
 621.00390625 112 750.00390625 111 750.7734375 172 c 0
 750.432617188 336.330078125 l 0
 750.356445312 410.225585938 656.423828125 517.255859375 482.00390625 516 c 1
 482.00390625 641 l 1
EndSplineSet
Fore
SplineSet
263.208007812 1 m 1
 263.208007812 126.399414062 l 0
 305.607421875 127.399414062 319.20703125 154.606445312 318.484375 186 c 0
 317.849609375 213.5703125 300.815429688 242.403320312 263.208007812 243.399414062 c 1
 263.208007812 369 l 0
 372.516601562 369.303710938 443.84375 291.500976562 444.00390625 229.901367188 c 0
 444.00390625 140.903320312 l 0
 444.904296875 75.91015625 382.641601562 2.8720703125 263.208007812 1 c 1
443.00390625 641 m 1
 443.00390625 516 l 1
 249.1015625 516 179.208007812 410.120117188 179.208007812 337 c 0
 179.208007812 278.819335938 45.7626953125 263.567382812 40.00390625 233 c 1
 40.00390625 288 l 1
 40.00390625 405 124.00390625 641 443.00390625 641 c 0
 443.00390625 641 l 1
222.208007812 369 m 1
 222.208007812 243.399414062 l 0
 185.607421875 241.399414062 166.80859375 215.377929688 166.80859375 186 c 0
 166.80859375 153.600585938 181.607421875 126.399414062 222.208007812 126.399414062 c 1
 222.208007812 1 l 0
 105.8984375 1 40.572265625 77.0029296875 40.00390625 138.599609375 c 0
 40.00390625 226.599609375 l 0
 39.2041015625 333 164.208007812 369 222.208007812 369 c 1
603.00390625 -185 m 1
 535.00390625 -330 271.84375 -331.58984375 215.9140625 -153.26953125 c 1
 336.993164062 -121.809570312 l 1
 365.243164062 -180.5703125 462.423828125 -185.08984375 495.193359375 -121.809570312 c 0
 603.00390625 -185 l 1
495.00390625 253.220703125 m 1
 619.00390625 146 l 0
 619.00390625 24.220703125 l 0
 619.00390625 -25.779296875 693.423828125 -38.3193359375 769.59375 -38.3193359375 c 0
 769.59375 -163.790039062 l 1
 603.00390625 -163.790039062 495.055664062 -96.7001953125 495.00390625 -3.58984375 c 0
 495.00390625 253.220703125 l 1
482.00390625 641 m 1
 776.313476562 641.84765625 877.153320312 436.399414062 877.153320312 336.580078125 c 0
 877.153320312 140.169921875 l 2
 877.153320312 -46 495.00390625 -45 495.00390625 141 c 2
 495.00390625 329 l 0
 621.00390625 329 l 1
 621.00390625 172 l 1
 621.00390625 112 750.00390625 111 750.7734375 172 c 0
 750.432617188 336.330078125 l 0
 750.356445312 410.225585938 656.423828125 517.255859375 482.00390625 516 c 1
 482.00390625 641 l 1
EndSplineSet
EndChar

StartChar: uni0BB5
Encoding: 33 2997 65
Width: 894
VWidth: 0
Flags: HMW
LayerCount: 3
Back
SplineSet
273 0 m 1
 273 125.399414062 l 0
 315.399414062 125.399414062 320.999023438 153.606445312 320.276367188 185 c 0
 319.641601562 212.5703125 315.607421875 242.403320312 273 242.399414062 c 1
 273 368 l 0
 371.30859375 368.303710938 445.83984375 282.500976562 446 228.901367188 c 0
 446 155.903320312 l 0
 446.900390625 90.91015625 384.43359375 -0.1279296875 273 0 c 1
217 368 m 1
 217 242.399414062 l 0
 187.399414062 242.399414062 168.600585938 214.377929688 168.600585938 185 c 0
 168.600585938 152.600585938 183.399414062 125.399414062 217 125.399414062 c 1
 217 0 l 0
 112.690429688 0 40.568359375 93.0029296875 41 154.599609375 c 0
 41.3041350452 198.000781259 41.61328125 143.993164062 41 225.599609375 c 0
 40.2001953125 332 166 368 217 368 c 1
305.604492188 610 m 1
 305.204101562 485 l 0
 301.404296875 485 l 0
 238.204101562 485 187.204101562 441 180.204101562 365 c 0
 174.868164062 307.064453125 46.7587890625 261.567382812 41 231 c 1
 41 289 l 1
 41 381 96.2041015625 609.923828125 311.204101562 610 c 0
 305.604492188 610 l 1
360.604492188 485 m 1
 363.204101562 485 l 2
 440.204101562 485 497.803710938 432.600585938 499.204101562 363 c 1
 499.204101562 149 l 0
 499.204101562 130 473.5 127.889648438 466.00390625 126.399414062 c 1
 466.00390625 0.3994140625 l 1
 672 0.3994140625 l 1
 672 126 l 1
 623.204101562 126 l 1
 623.204101562 363.400390625 l 1
 622.204101562 472.600585938 536.204101562 610 368.204101562 610 c 2
 360.604492188 610 l 1
 360.604492188 485 l 1
728.204101562 610 m 1
 853.8046875 610 l 1
 853.8046875 0.3994140625 l 1
 728.204101562 0.3994140625 l 1
 728.204101562 610 l 1
EndSplineSet
Fore
SplineSet
273 0 m 1
 273 125.399414062 l 0
 315.399414062 125.399414062 320.999023438 153.606445312 320.276367188 185 c 0
 319.641601562 212.5703125 315.607421875 242.403320312 273 242.399414062 c 1
 273 368 l 0
 371.30859375 368.303710938 445.83984375 282.500976562 446 228.901367188 c 0
 446 155.903320312 l 0
 446.900390625 90.91015625 384.43359375 -0.1279296875 273 0 c 1
217 368 m 1
 217 242.399414062 l 0
 187.399414062 242.399414062 168.600585938 214.377929688 168.600585938 185 c 0
 168.600585938 152.600585938 183.399414062 125.399414062 217 125.399414062 c 1
 217 0 l 0
 112.690429688 0 40.568359375 93.0029296875 41 154.599609375 c 0
 41.3041350452 198.000781259 41.61328125 143.993164062 41 225.599609375 c 0
 40.2001953125 332 166 368 217 368 c 1
305.604492188 610 m 1
 305.204101562 485 l 0
 301.404296875 485 l 0
 238.204101562 485 187.204101562 441 180.204101562 365 c 0
 174.868164062 307.064453125 46.7587890625 261.567382812 41 231 c 1
 41 289 l 1
 41 381 96.2041015625 609.923828125 311.204101562 610 c 0
 305.604492188 610 l 1
360.604492188 485 m 1
 363.204101562 485 l 2
 440.204101562 485 497.803710938 432.600585938 499.204101562 363 c 1
 499.204101562 149 l 0
 499.204101562 130 473.5 127.889648438 466.00390625 126.399414062 c 1
 466.00390625 0.3994140625 l 1
 672 0.3994140625 l 1
 672 126 l 1
 623.204101562 126 l 1
 623.204101562 363.400390625 l 1
 622.204101562 472.600585938 536.204101562 610 368.204101562 610 c 2
 360.604492188 610 l 1
 360.604492188 485 l 1
728.204101562 610 m 1
 853.8046875 610 l 1
 853.8046875 0.3994140625 l 1
 728.204101562 0.3994140625 l 1
 728.204101562 610 l 1
EndSplineSet
EndChar

StartChar: uni0B8E
Encoding: 9 2958 66
Width: 764
VWidth: 0
Flags: HW
LayerCount: 3
Back
SplineSet
724.208007812 608 m 1
 724.208007812 483 l 1
 358.208007812 483 l 1
 358.208007812 608 l 1
 724.208007812 608 l 1
495.208007812 602 m 1
 620.80859375 602 l 1
 620.80859375 0 l 1
 495.208007812 0 l 1
 495.208007812 602 l 1
263.208007812 1 m 1
 263.208007812 126.399414062 l 0
 305.607421875 127.399414062 319.20703125 154.606445312 318.484375 186 c 0
 317.849609375 213.5703125 300.815429688 242.403320312 263.208007812 243.399414062 c 1
 263.208007812 369 l 0
 379.516601562 369.303710938 443.84375 291.500976562 444.00390625 229.901367188 c 0
 444.00390625 140.903320312 l 0
 444.904296875 75.91015625 382.641601562 2.8720703125 263.208007812 1 c 1
311.608398438 608 m 1
 311.208007812 483 l 0
 307.408203125 483 l 0
 221.208007812 483 181.208007812 413 174.208007812 337 c 0
 168.872070312 279.064453125 45.7626953125 263.567382812 40.00390625 233 c 1
 40.00390625 288 l 1
 40.00390625 405 103.208007812 608 310.208007812 608 c 0
 311.608398438 608 l 1
222.208007812 369 m 1
 222.208007812 243.399414062 l 0
 185.607421875 241.399414062 166.80859375 215.377929688 166.80859375 186 c 0
 166.80859375 153.600585938 181.607421875 126.399414062 222.208007812 126.399414062 c 1
 222.208007812 1 l 0
 105.8984375 1 40.572265625 77.0029296875 40.00390625 138.599609375 c 0
 40.00390625 226.599609375 l 0
 39.2041015625 333 164.208007812 369 222.208007812 369 c 1
EndSplineSet
Fore
SplineSet
724.208007812 608 m 1
 724.208007812 483 l 1
 358.208007812 483 l 1
 358.208007812 608 l 1
 724.208007812 608 l 1
495.208007812 602 m 1
 620.80859375 602 l 1
 620.80859375 0 l 1
 495.208007812 0 l 1
 495.208007812 602 l 1
263.208007812 1 m 1
 263.208007812 126.399414062 l 0
 305.607421875 127.399414062 319.20703125 154.606445312 318.484375 186 c 0
 317.849609375 213.5703125 300.815429688 242.403320312 263.208007812 243.399414062 c 1
 263.208007812 369 l 0
 379.516601562 369.303710938 443.84375 291.500976562 444.00390625 229.901367188 c 0
 444.00390625 140.903320312 l 0
 444.904296875 75.91015625 382.641601562 2.8720703125 263.208007812 1 c 1
311.608398438 608 m 1
 311.208007812 483 l 0
 307.408203125 483 l 0
 221.208007812 483 181.208007812 413 174.208007812 337 c 0
 168.872070312 279.064453125 45.7626953125 263.567382812 40.00390625 233 c 1
 40.00390625 288 l 1
 40.00390625 405 103.208007812 608 310.208007812 608 c 0
 311.608398438 608 l 1
222.208007812 369 m 1
 222.208007812 243.399414062 l 0
 185.607421875 241.399414062 166.80859375 215.377929688 166.80859375 186 c 0
 166.80859375 153.600585938 181.607421875 126.399414062 222.208007812 126.399414062 c 1
 222.208007812 1 l 0
 105.8984375 1 40.572265625 77.0029296875 40.00390625 138.599609375 c 0
 40.00390625 226.599609375 l 0
 39.2041015625 333 164.208007812 369 222.208007812 369 c 1
EndSplineSet
EndChar

StartChar: uni0B85
Encoding: 3 2949 67
Width: 1038
VWidth: 0
Flags: HW
LayerCount: 3
Back
SplineSet
822 393 m 9
 822 372 l 1
 697 372 l 1
 697 393 l 0
 697 501.397460938 653.118164062 575 528 575 c 0
 393 575 355 477 355 331 c 1
 230 312 l 1
 230 320.543945312 230.025390625 386.865234375 230 395 c 0
 229.391601562 591 365.547851562 700.134765625 528 700 c 1
 712.377929688 700 822 577.788085938 822 393 c 9
446.5 113 m 1
 446.5 241 l 1
 476.615234375 249.5703125 497.892578125 276.977539062 497.892578125 310.106445312 c 0
 497.892578125 350.25390625 466.1484375 382 426 382 c 0
 385.852539062 382 354.106445312 350.25390625 354.106445312 310.106445312 c 0
 354.106445312 276.735351562 376.040039062 249.169921875 406.5 240.815429688 c 1
 406.5 113 l 1
 310.5 113 230 210 230 281 c 0
 230 328 l 2
 230 409.506835938 329.286132812 506.161132812 423 507 c 0
 539.482421875 508.04296875 623 425.078125 623 334 c 2
 623 281 l 2
 623 222 538.5 113 446.5 113 c 1
510 332 m 1
 594.333007812 332 737.666992188 332 822 332 c 1
 823 69 l 1
 823 -35.3046875 751 -130 622 -130 c 0
 449 -130 l 0
 448 -5 l 17
 610 -5 l 0
 678 -4.4453125 697 33.9345703125 697 69 c 1
 697 210 l 1
 655 210 552 210 510 210 c 1
 510 332 l 1
408 -5 m 1
 408 -130 l 1
 248 -130 l 0
 133 -130 40 -14.3388671875 40 108 c 0
 40 226.737304688 126 334 259 334 c 2
 349 334 l 1
 349 209 l 1
 241 209 l 0
 216 209 165 166 165 107.537109375 c 0
 165 49.5625 212 -5 259 -5 c 0
 408 -5 l 1
780 332 m 1
 876 332 l 1
 876 210 l 1
 780 210 l 1
 780 332 l 1
873 592 m 1
 998 592 l 1
 998 -110 l 1
 873 -110 l 1
 873 592 l 1
EndSplineSet
Fore
SplineSet
822 393 m 9
 822 372 l 1
 697 372 l 1
 697 393 l 0
 697 501.397460938 653.118164062 575 528 575 c 0
 393 575 355 477 355 331 c 1
 230 312 l 1
 230 320.543945312 230.025390625 386.865234375 230 395 c 0
 229.391601562 591 365.547851562 700.134765625 528 700 c 1
 712.377929688 700 822 577.788085938 822 393 c 9
446.5 113 m 1
 446.5 241 l 1
 476.615234375 249.5703125 497.892578125 276.977539062 497.892578125 310.106445312 c 0
 497.892578125 350.25390625 466.1484375 382 426 382 c 0
 385.852539062 382 354.106445312 350.25390625 354.106445312 310.106445312 c 0
 354.106445312 276.735351562 376.040039062 249.169921875 406.5 240.815429688 c 1
 406.5 113 l 1
 310.5 113 230 210 230 281 c 0
 230 328 l 2
 230 409.506835938 329.286132812 506.161132812 423 507 c 0
 539.482421875 508.04296875 623 425.078125 623 334 c 2
 623 281 l 2
 623 222 538.5 113 446.5 113 c 1
510 332 m 1
 594.333007812 332 737.666992188 332 822 332 c 1
 823 69 l 1
 823 -35.3046875 751 -130 622 -130 c 0
 449 -130 l 0
 448 -5 l 17
 610 -5 l 0
 678 -4.4453125 697 33.9345703125 697 69 c 1
 697 210 l 1
 655 210 552 210 510 210 c 1
 510 332 l 1
408 -5 m 1
 408 -130 l 1
 248 -130 l 0
 133 -130 40 -14.3388671875 40 108 c 0
 40 226.737304688 126 334 259 334 c 2
 349 334 l 1
 349 209 l 1
 241 209 l 0
 216 209 165 166 165 107.537109375 c 0
 165 49.5625 212 -5 259 -5 c 0
 408 -5 l 1
780 332 m 1
 876 332 l 1
 876 210 l 1
 780 210 l 1
 780 332 l 1
873 592 m 1
 998 592 l 1
 998 -110 l 1
 873 -110 l 1
 873 592 l 1
EndSplineSet
EndChar

StartChar: uni0BAA
Encoding: 25 2986 68
Width: 550
VWidth: 0
Flags: HW
LayerCount: 3
Back
SplineSet
40 109.065429688 m 1
 40 611.065429688 l 1
 165 611.065429688 l 1
 165 109.065429688 l 1
 40 109.065429688 l 1
508 106.065429688 m 17
 508 610.565429688 l 1
 383 610.565429688 l 1
 383 106.065429688 l 1
 508 106.065429688 l 17
294 126.065429688 m 1
 294 1.0654296875 l 1
 508 1.0654296875 l 1
 508 126.065429688 l 1
 294 126.065429688 l 1
40 126.065429688 m 1
 254 126.065429688 l 1
 254 1.0654296875 l 1
 40 1.0654296875 l 1
 40 126.065429688 l 1
EndSplineSet
Fore
SplineSet
40 109.065429688 m 1
 40 611.065429688 l 1
 165 611.065429688 l 1
 165 109.065429688 l 1
 40 109.065429688 l 1
508 106.065429688 m 17
 508 610.565429688 l 1
 383 610.565429688 l 1
 383 106.065429688 l 1
 508 106.065429688 l 17
294 126.065429688 m 1
 294 1.0654296875 l 1
 508 1.0654296875 l 1
 508 126.065429688 l 1
 294 126.065429688 l 1
40 126.065429688 m 1
 254 126.065429688 l 1
 254 1.0654296875 l 1
 40 1.0654296875 l 1
 40 126.065429688 l 1
EndSplineSet
EndChar

StartChar: uni0B9F
Encoding: 20 2975 69
Width: 641
VWidth: 0
Flags: HW
LayerCount: 3
Back
SplineSet
28 125 m 1
 601 125 l 1
 601 0 l 1
 28 0 l 1
 28 125 l 1
28 610 m 1
 153 610 l 1
 153 165 l 1
 28 165 l 1
 28 610 l 1
EndSplineSet
Fore
SplineSet
28 125 m 1
 601 125 l 1
 601 0 l 1
 28 0 l 1
 28 125 l 1
28 610 m 1
 153 610 l 1
 153 165 l 1
 28 165 l 1
 28 610 l 1
EndSplineSet
EndChar

StartChar: uni0BB0
Encoding: 28 2992 70
Width: 610
VWidth: 0
Flags: HW
LayerCount: 3
Back
SplineSet
456 605 m 1
 328 605 l 1
 328 33.865234375 l 1
 155 -181 l 1
 301 -181 l 1
 454 0 l 2
 456 605 l 1
40 1 m 17
 40 609 l 1
 165 609 l 1
 165 1 l 1
 40 1 l 17
294 609 m 1
 294 484 l 1
 570 484 l 1
 570 609 l 1
 294 609 l 1
42 609 m 1
 254 609 l 1
 254 484 l 1
 42 484 l 1
 42 609 l 1
EndSplineSet
Fore
SplineSet
456 605 m 1
 328 605 l 1
 328 33.865234375 l 1
 155 -181 l 1
 301 -181 l 1
 454 0 l 2
 456 605 l 1
40 1 m 17
 40 609 l 1
 165 609 l 1
 165 1 l 1
 40 1 l 17
294 609 m 1
 294 484 l 1
 570 484 l 1
 570 609 l 1
 294 609 l 1
42 609 m 1
 254 609 l 1
 254 484 l 1
 42 484 l 1
 42 609 l 1
EndSplineSet
EndChar

StartChar: uni0BBE
Encoding: 38 3006 71
Width: 582
VWidth: 0
Flags: HW
LayerCount: 3
Back
SplineSet
331 0 m 5
 456 0 l 5
 456 607 l 5
 331 607 l 5
 331 0 l 5
40 0 m 21
 40 606 l 5
 165 607 l 5
 165 0 l 5
 40 0 l 21
294 609 m 5
 294 484 l 5
 542 484 l 5
 542 609 l 5
 294 609 l 5
40 609 m 5
 254 609 l 5
 254 484 l 5
 40 484 l 5
 40 609 l 5
EndSplineSet
Fore
SplineSet
331 0 m 5
 456 0 l 5
 456 607 l 5
 331 607 l 5
 331 0 l 5
40 0 m 21
 40 606 l 5
 165 607 l 5
 165 0 l 5
 40 0 l 21
294 609 m 5
 294 484 l 5
 542 484 l 5
 542 609 l 5
 294 609 l 5
40 609 m 5
 254 609 l 5
 254 484 l 5
 40 484 l 5
 40 609 l 5
EndSplineSet
EndChar

StartChar: uni0BA8
Encoding: 23 2984 72
Width: 698
VWidth: 0
Flags: HW
LayerCount: 3
Back
SplineSet
485 384 m 1
 578 384 658 362 658 211 c 0
 658 26 l 0
 658 -42 637 -161 480 -161 c 0
 231 -161 l 2
 209.037188113 -161 171 -160 171 -225 c 0
 171 -262 l 1
 40 -262 l 1
 40 -231 l 1
 40 -98.1923828125 130 -36 251 -36 c 0
 479 -36 l 0
 529 -36 532 -5 532 26 c 0
 533 211 l 2
 533.470703125 258.025390625 528 259 485 259 c 0
 485 384 l 1
319 1 m 1
 447 1 l 1
 446 603 l 1
 321 603 l 1
 319 1 l 1
73 1 m 9
 198 1 l 1
 198 605 l 1
 73 605 l 1
 73 1 l 9
594 485 m 1
 594 610 l 1
 73 610 l 1
 74 485 l 1
 594 485 l 1
EndSplineSet
Fore
SplineSet
485 384 m 1
 578 384 658 362 658 211 c 0
 658 26 l 0
 658 -42 637 -161 480 -161 c 0
 231 -161 l 2
 209.037188113 -161 171 -160 171 -225 c 0
 171 -262 l 1
 40 -262 l 1
 40 -231 l 1
 40 -98.1923828125 130 -36 251 -36 c 0
 479 -36 l 0
 529 -36 532 -5 532 26 c 0
 533 211 l 2
 533.470703125 258.025390625 528 259 485 259 c 0
 485 384 l 1
319 1 m 1
 447 1 l 1
 446 603 l 1
 321 603 l 1
 319 1 l 1
73 1 m 9
 198 1 l 1
 198 605 l 1
 73 605 l 1
 73 1 l 9
594 485 m 1
 594 610 l 1
 73 610 l 1
 74 485 l 1
 594 485 l 1
EndSplineSet
EndChar

StartChar: uni0BE9
Encoding: 55 3049 73
Width: 752
VWidth: 0
Flags: HW
LayerCount: 3
Back
SplineSet
341 125 m 1
 697 125.065429688 l 1
 697 0.0654296875 l 1
 341 0 l 1
 341 125 l 1
261 125 m 1
 294.639648438 125 390.05859375 125 459 125 c 0
 518 125 515 128.418945312 515 148 c 0
 515 216 l 2
 515 237.028320312 519 237 468 237 c 0
 468 362 l 1
 556 362 641 330 641 235 c 0
 641 114 l 0
 641 44.044921875 578.067382812 0 482 0 c 0
 403 0 344.600585938 0 261 0 c 1
 261 125 l 1
288 181 m 1
 413 181 l 1
 413 603 l 1
 288 603 l 1
 288 181 l 1
40 0 m 9
 165 0 l 1
 165 605 l 1
 40 605 l 1
 40 0 l 9
524 484 m 1
 524 609 l 1
 40 609 l 1
 41 484 l 1
 524 484 l 1
EndSplineSet
Fore
SplineSet
341 125 m 1
 697 125.065429688 l 1
 697 0.0654296875 l 1
 341 0 l 1
 341 125 l 1
261 125 m 1
 294.639648438 125 390.05859375 125 459 125 c 0
 518 125 515 128.418945312 515 148 c 0
 515 216 l 2
 515 237.028320312 519 237 468 237 c 0
 468 362 l 1
 556 362 641 330 641 235 c 0
 641 114 l 0
 641 44.044921875 578.067382812 0 482 0 c 0
 403 0 344.600585938 0 261 0 c 1
 261 125 l 1
288 181 m 1
 413 181 l 1
 413 603 l 1
 288 603 l 1
 288 181 l 1
40 0 m 9
 165 0 l 1
 165 605 l 1
 40 605 l 1
 40 0 l 9
524 484 m 1
 524 609 l 1
 40 609 l 1
 41 484 l 1
 524 484 l 1
EndSplineSet
EndChar

StartChar: uni0B99
Encoding: 16 2969 74
Width: 917
VWidth: 0
Flags: HW
LayerCount: 3
Back
SplineSet
722 609 m 1
 847 609 l 1
 847 0 l 1
 722 0 l 1
 722 609 l 1
326 125 m 1
 682 125.065429688 l 1
 682 0.0654296875 l 1
 326 0 l 1
 326 125 l 1
282 125 m 1
 315.639648438 125 375.05859375 125 444 125 c 0
 503 125 500 128.418945312 500 148 c 0
 500 216 l 2
 500 237.028320312 504 237 453 237 c 0
 453 362 l 1
 541 362 626 330 626 235 c 0
 626 114 l 0
 626 44.044921875 563.067382812 0 467 0 c 0
 388 0 365.600585938 0 282 0 c 1
 282 125 l 1
288 166 m 1
 413 166 l 1
 413 603 l 1
 288 603 l 1
 288 166 l 1
40 0 m 9
 165 0 l 1
 165 605 l 1
 40 605 l 1
 40 0 l 9
524 484 m 1
 524 609 l 1
 40 609 l 1
 41 484 l 1
 524 484 l 1
EndSplineSet
Fore
SplineSet
722 609 m 1
 847 609 l 1
 847 0 l 1
 722 0 l 1
 722 609 l 1
326 125 m 1
 682 125.065429688 l 1
 682 0.0654296875 l 1
 326 0 l 1
 326 125 l 1
282 125 m 1
 315.639648438 125 375.05859375 125 444 125 c 0
 503 125 500 128.418945312 500 148 c 0
 500 216 l 2
 500 237.028320312 504 237 453 237 c 0
 453 362 l 1
 541 362 626 330 626 235 c 0
 626 114 l 0
 626 44.044921875 563.067382812 0 467 0 c 0
 388 0 365.600585938 0 282 0 c 1
 282 125 l 1
288 166 m 1
 413 166 l 1
 413 603 l 1
 288 603 l 1
 288 166 l 1
40 0 m 9
 165 0 l 1
 165 605 l 1
 40 605 l 1
 40 0 l 9
524 484 m 1
 524 609 l 1
 40 609 l 1
 41 484 l 1
 524 484 l 1
EndSplineSet
EndChar

StartChar: uni0B88
Encoding: 6 2952 75
Width: 645
VWidth: 0
Flags: HW
LayerCount: 3
Back
SplineSet
477 254.333007812 m 0
 477 289.333007812 506 318.333007812 541 318.333007812 c 0
 576 318.333007812 605 289.333007812 605 254.333007812 c 0
 605 219.333007812 576 190.333007812 541 190.333007812 c 0
 506 190.333007812 477 219.333007812 477 254.333007812 c 0
182 255 m 0
 182 290 211 319 246 319 c 0
 281 319 310 290 310 255 c 0
 310 220 281 191 246 191 c 0
 211 191 182 220 182 255 c 0
331 0 m 5
 456 0 l 5
 456 608 l 1
 331 608 l 1
 331 0 l 5
40 1 m 17
 40 607 l 1
 165 608 l 1
 165 1 l 1
 40 1 l 17
294 610 m 1
 294 484.5 l 1
 601 484.5 l 1
 601 610 l 1
 294 610 l 1
40 610 m 1
 254 610 l 1
 254 484.5 l 1
 40 484.5 l 1
 40 610 l 1
EndSplineSet
Fore
SplineSet
477 254.333007812 m 0
 477 289.333007812 506 318.333007812 541 318.333007812 c 0
 576 318.333007812 605 289.333007812 605 254.333007812 c 0
 605 219.333007812 576 190.333007812 541 190.333007812 c 0
 506 190.333007812 477 219.333007812 477 254.333007812 c 0
182 255 m 0
 182 290 211 319 246 319 c 0
 281 319 310 290 310 255 c 0
 310 220 281 191 246 191 c 0
 211 191 182 220 182 255 c 0
331 0 m 5
 456 0 l 5
 456 608 l 1
 331 608 l 1
 331 0 l 5
40 1 m 17
 40 607 l 1
 165 608 l 1
 165 1 l 1
 40 1 l 17
294 610 m 1
 294 484.5 l 1
 601 484.5 l 1
 601 610 l 1
 294 610 l 1
40 610 m 1
 254 610 l 1
 254 484.5 l 1
 40 484.5 l 1
 40 610 l 1
EndSplineSet
EndChar

StartChar: uni0BB3
Encoding: 31 2995 76
Width: 1000
VWidth: 0
Flags: HW
LayerCount: 3
Back
SplineSet
306.400390625 608 m 1
 306 484 l 0
 302.200195312 484 l 0
 239 484 176 435 176 335 c 0
 176 276.819335938 47.7587890625 261.567382812 42 231 c 1
 42 334 l 1
 42 437 123 607.923828125 305 608 c 0
 306.400390625 608 l 1
273 0 m 1
 273 125.399414062 l 0
 315.399414062 125.399414062 320.999023438 153.606445312 320.276367188 185 c 0
 319.641601562 212.5703125 315.607421875 242.403320312 273 242.399414062 c 1
 273 368 l 0
 371.30859375 368.303710938 445.83984375 282.500976562 446 228.901367188 c 0
 446 155.903320312 l 0
 446.900390625 90.91015625 384.43359375 -0.1279296875 273 0 c 1
361.400390625 485 m 1
 363 485 l 2
 420 485 483.599609375 426.600585938 485 363 c 1
 486 0 l 1
 615 0 l 1
 611 363.400390625 l 1
 611 464.600585938 532 609 361 609 c 2
 361.400390625 609 l 1
 361.400390625 485 l 1
217 368 m 1
 217 242.399414062 l 0
 187.399414062 242.399414062 168.600585938 214.377929688 168.600585938 185 c 0
 168.600585938 152.600585938 183.399414062 125.399414062 217 125.399414062 c 1
 217 0 l 0
 112.690429688 0 41.568359375 93.0029296875 42 154.599609375 c 0
 42.3041350452 198.000781259 42.61328125 143.993164062 42 225.599609375 c 0
 41.2001953125 332 166 368 217 368 c 1
760 0 m 1
 885 0 l 1
 885 587.852539062 l 1
 760 587.852539062 l 1
 760 0 l 1
731 609 m 1
 731 483 l 1
 960 483 l 1
 960 609 l 1
 731 609 l 1
676 609 m 1
 661 609 676.999999999 608.999742528 654 609 c 0
 479.52734375 609.001953125 485 419.07421875 485 333 c 1
 611 333.400390625 l 1
 611 464 634 483 676 483 c 1
 676 609 l 1
EndSplineSet
Fore
SplineSet
306.400390625 608 m 1
 306 484 l 0
 302.200195312 484 l 0
 239 484 176 435 176 335 c 0
 176 276.819335938 47.7587890625 261.567382812 42 231 c 1
 42 334 l 1
 42 437 123 607.923828125 305 608 c 0
 306.400390625 608 l 1
273 0 m 1
 273 125.399414062 l 0
 315.399414062 125.399414062 320.999023438 153.606445312 320.276367188 185 c 0
 319.641601562 212.5703125 315.607421875 242.403320312 273 242.399414062 c 1
 273 368 l 0
 371.30859375 368.303710938 445.83984375 282.500976562 446 228.901367188 c 0
 446 155.903320312 l 0
 446.900390625 90.91015625 384.43359375 -0.1279296875 273 0 c 1
361.400390625 485 m 1
 363 485 l 2
 420 485 483.599609375 426.600585938 485 363 c 1
 486 0 l 1
 615 0 l 1
 611 363.400390625 l 1
 611 464.600585938 532 609 361 609 c 2
 361.400390625 609 l 1
 361.400390625 485 l 1
217 368 m 1
 217 242.399414062 l 0
 187.399414062 242.399414062 168.600585938 214.377929688 168.600585938 185 c 0
 168.600585938 152.600585938 183.399414062 125.399414062 217 125.399414062 c 1
 217 0 l 0
 112.690429688 0 41.568359375 93.0029296875 42 154.599609375 c 0
 42.3041350452 198.000781259 42.61328125 143.993164062 42 225.599609375 c 0
 41.2001953125 332 166 368 217 368 c 1
760 0 m 1
 885 0 l 1
 885 587.852539062 l 1
 760 587.852539062 l 1
 760 0 l 1
731 609 m 1
 731 483 l 1
 960 483 l 1
 960 609 l 1
 731 609 l 1
676 609 m 1
 661 609 676.999999999 608.999742528 654 609 c 0
 479.52734375 609.001953125 485 419.07421875 485 333 c 1
 611 333.400390625 l 1
 611 464 634 483 676 483 c 1
 676 609 l 1
EndSplineSet
EndChar

StartChar: uni0BB2
Encoding: 30 2994 77
Width: 916
VWidth: 0
Flags: HW
LayerCount: 3
Back
SplineSet
273 0 m 1
 273 125.399414062 l 0
 315.399414062 125.399414062 320.999023438 153.606445312 320.276367188 185 c 0
 319.641601562 212.5703125 315.607421875 242.403320312 273 242.399414062 c 1
 273 368 l 0
 371.30859375 368.303710938 445.83984375 282.500976562 446 228.901367188 c 0
 446 155.903320312 l 0
 446.900390625 90.91015625 384.43359375 -0.1279296875 273 0 c 1
217 368 m 1
 217 242.399414062 l 0
 187.399414062 242.399414062 168.600585938 214.377929688 168.600585938 185 c 0
 168.600585938 152.600585938 183.399414062 125.399414062 217 125.399414062 c 1
 217 0 l 0
 112.690429688 0 41.568359375 93.0029296875 42 154.599609375 c 0
 42.3041350452 198.000781259 42.61328125 143.993164062 42 225.599609375 c 0
 41.2001953125 332 166 368 217 368 c 1
306.400390625 608 m 1
 306 484 l 0
 302.200195312 484 l 0
 239 484 176 435 176 335 c 0
 176 276.819335938 47.7587890625 261.567382812 42 231 c 1
 42 331 l 1
 42 434 123 607.923828125 305 608 c 0
 306.400390625 608 l 1
610.00390625 361.400390625 m 0
 609.00390625 462.600585938 529.00390625 608 368.00390625 608 c 2
 361.404296875 608 l 1
 361.404296875 483 l 1
 364.00390625 483 l 2
 434.00390625 483 482.603515625 426.600585938 484.00390625 363 c 8
 485.00390625 169 l 16
 485.00390625 111.92578125 509.53125 -1 629.00390625 -1 c 0
 652.00390625 -1 637 -1 652 -1 c 1
 652 125 l 1
 626.106155649 125 610.00390625 141.14171136 610.00390625 168.599609375 c 2
 610.00390625 361.400390625 l 0
876.00390625 434.678710938 m 1
 876.00390625 531 839.00390625 607.852539062 729.001953125 608.357421875 c 0
 706.001953125 608.462890625 713.00390625 607.990234375 698.00390625 607.852539062 c 1
 699.16015625 481.857421875 l 1
 738.00390625 481.857421875 751.00390625 469 751.00390625 431.932617188 c 1
 751.00390625 170 l 17
 751.00390625 142 735 125 707 125 c 1
 707 -1 l 1
 722 -1 710.00390625 -1.599609375 733.00390625 -1.599609375 c 0
 842.4765625 -1.599609375 876.00390625 110 876.00390625 170 c 1
 876.00390625 434.678710938 l 1
EndSplineSet
Fore
SplineSet
273 0 m 1
 273 125.399414062 l 0
 315.399414062 125.399414062 320.999023438 153.606445312 320.276367188 185 c 0
 319.641601562 212.5703125 315.607421875 242.403320312 273 242.399414062 c 1
 273 368 l 0
 371.30859375 368.303710938 445.83984375 282.500976562 446 228.901367188 c 0
 446 155.903320312 l 0
 446.900390625 90.91015625 384.43359375 -0.1279296875 273 0 c 1
217 368 m 1
 217 242.399414062 l 0
 187.399414062 242.399414062 168.600585938 214.377929688 168.600585938 185 c 0
 168.600585938 152.600585938 183.399414062 125.399414062 217 125.399414062 c 1
 217 0 l 0
 112.690429688 0 41.568359375 93.0029296875 42 154.599609375 c 0
 42.3041350452 198.000781259 42.61328125 143.993164062 42 225.599609375 c 0
 41.2001953125 332 166 368 217 368 c 1
306.400390625 608 m 1
 306 484 l 0
 302.200195312 484 l 0
 239 484 176 435 176 335 c 0
 176 276.819335938 47.7587890625 261.567382812 42 231 c 1
 42 331 l 1
 42 434 123 607.923828125 305 608 c 0
 306.400390625 608 l 1
610.00390625 361.400390625 m 0
 609.00390625 462.600585938 529.00390625 608 368.00390625 608 c 2
 361.404296875 608 l 1
 361.404296875 483 l 1
 364.00390625 483 l 2
 434.00390625 483 482.603515625 426.600585938 484.00390625 363 c 8
 485.00390625 169 l 16
 485.00390625 111.92578125 509.53125 -1 629.00390625 -1 c 0
 652.00390625 -1 637 -1 652 -1 c 1
 652 125 l 1
 626.106155649 125 610.00390625 141.14171136 610.00390625 168.599609375 c 2
 610.00390625 361.400390625 l 0
876.00390625 434.678710938 m 1
 876.00390625 531 839.00390625 607.852539062 729.001953125 608.357421875 c 0
 706.001953125 608.462890625 713.00390625 607.990234375 698.00390625 607.852539062 c 1
 699.16015625 481.857421875 l 1
 738.00390625 481.857421875 751.00390625 469 751.00390625 431.932617188 c 1
 751.00390625 170 l 17
 751.00390625 142 735 125 707 125 c 1
 707 -1 l 1
 722 -1 710.00390625 -1.599609375 733.00390625 -1.599609375 c 0
 842.4765625 -1.599609375 876.00390625 110 876.00390625 170 c 1
 876.00390625 434.678710938 l 1
EndSplineSet
EndChar

StartChar: uni0B9E
Encoding: 19 2974 78
Width: 875
VWidth: 0
Flags: HW
LayerCount: 3
Back
SplineSet
725.200195312 610 m 1
 725.200195312 485 l 1
 359.200195312 485 l 1
 359.200195312 610 l 1
 725.200195312 610 l 1
496.200195312 604 m 1
 621.80078125 604 l 1
 621.80078125 2 l 1
 496.200195312 2 l 1
 496.200195312 604 l 1
264.200195312 3 m 1
 264.200195312 128.399414062 l 0
 306.599609375 129.399414062 320.19921875 156.606445312 319.4765625 188 c 0
 318.841796875 215.5703125 301.807617188 244.403320312 264.200195312 245.399414062 c 1
 264.200195312 371 l 0
 380.508789062 371.303710938 444.8359375 293.500976562 444.99609375 231.901367188 c 0
 444.99609375 142.903320312 l 0
 445.896484375 77.91015625 383.633789062 4.8720703125 264.200195312 3 c 1
312.600585938 610 m 1
 312.200195312 485 l 0
 308.400390625 485 l 0
 222.200195312 485 182.200195312 415 175.200195312 339 c 0
 169.864257812 281.064453125 46.7548828125 265.567382812 40.99609375 235 c 1
 40.99609375 290 l 1
 40.99609375 407 104.200195312 610 311.200195312 610 c 0
 312.600585938 610 l 1
223.200195312 371 m 1
 223.200195312 245.399414062 l 0
 186.599609375 243.399414062 167.80078125 217.377929688 167.80078125 188 c 0
 167.80078125 155.600585938 182.599609375 128.399414062 223.200195312 128.399414062 c 1
 223.200195312 3 l 0
 106.890625 3 41.564453125 79.0029296875 40.99609375 140.599609375 c 0
 40.99609375 228.599609375 l 0
 40.1962890625 335 165.200195312 371 223.200195312 371 c 1
644.200195312 -47.6669921875 m 2
 708.200195312 -47.6318359375 709.200195312 -27 709.200195312 23 c 0
 710.200195312 158 l 2
 710.670898438 205.025390625 705.200195312 206 662.200195312 206 c 0
 662.200195312 331 l 1
 749.200195312 331 835.200195312 303 835.200195312 158 c 0
 835.200195312 23 l 0
 835.200195312 -88 795.200195312 -173 617.200195312 -173 c 0
 40.2001953125 -173 l 1
 40.2001953125 -48 l 1
 644.200195312 -47.6669921875 l 2
EndSplineSet
Fore
SplineSet
725.200195312 610 m 1
 725.200195312 485 l 1
 359.200195312 485 l 1
 359.200195312 610 l 1
 725.200195312 610 l 1
496.200195312 604 m 1
 621.80078125 604 l 1
 621.80078125 2 l 1
 496.200195312 2 l 1
 496.200195312 604 l 1
264.200195312 3 m 1
 264.200195312 128.399414062 l 0
 306.599609375 129.399414062 320.19921875 156.606445312 319.4765625 188 c 0
 318.841796875 215.5703125 301.807617188 244.403320312 264.200195312 245.399414062 c 1
 264.200195312 371 l 0
 380.508789062 371.303710938 444.8359375 293.500976562 444.99609375 231.901367188 c 0
 444.99609375 142.903320312 l 0
 445.896484375 77.91015625 383.633789062 4.8720703125 264.200195312 3 c 1
312.600585938 610 m 1
 312.200195312 485 l 0
 308.400390625 485 l 0
 222.200195312 485 182.200195312 415 175.200195312 339 c 0
 169.864257812 281.064453125 46.7548828125 265.567382812 40.99609375 235 c 1
 40.99609375 290 l 1
 40.99609375 407 104.200195312 610 311.200195312 610 c 0
 312.600585938 610 l 1
223.200195312 371 m 1
 223.200195312 245.399414062 l 0
 186.599609375 243.399414062 167.80078125 217.377929688 167.80078125 188 c 0
 167.80078125 155.600585938 182.599609375 128.399414062 223.200195312 128.399414062 c 1
 223.200195312 3 l 0
 106.890625 3 41.564453125 79.0029296875 40.99609375 140.599609375 c 0
 40.99609375 228.599609375 l 0
 40.1962890625 335 165.200195312 371 223.200195312 371 c 1
644.200195312 -47.6669921875 m 2
 708.200195312 -47.6318359375 709.200195312 -27 709.200195312 23 c 0
 710.200195312 158 l 2
 710.670898438 205.025390625 705.200195312 206 662.200195312 206 c 0
 662.200195312 331 l 1
 749.200195312 331 835.200195312 303 835.200195312 158 c 0
 835.200195312 23 l 0
 835.200195312 -88 795.200195312 -173 617.200195312 -173 c 0
 40.2001953125 -173 l 1
 40.2001953125 -48 l 1
 644.200195312 -47.6669921875 l 2
EndSplineSet
EndChar

StartChar: uni0BA9
Encoding: 24 2985 79
Width: 1102
VWidth: 0
Flags: HW
LayerCount: 3
Back
SplineSet
820 609 m 1
 1062 609 l 1
 1062 482.833007812 l 1
 963.19921875 483.064453125 1021.23144531 483.610351562 820 483.662109375 c 1
 820 609 l 1
780 483.666015625 m 1
 776 483.666015625 l 1
 681 483.67578125 557 484.999023438 557.204101562 296 c 0
 557.204101562 158 l 0
 557.204101562 146 555.204101562 111 588.204101562 111 c 1
 587.204101562 -14.3203125 l 0
 483.204101562 -14.3203125 432.204101562 70 432.204101562 157 c 1
 432.204101562 294 l 0
 432.204101562 602 705 609 776 609 c 2
 780 609 l 1
 780 483.666015625 l 1
397 608 m 1
 542 608 785.204101562 599 785.204101562 307 c 2
 785.204101562 157 l 0
 785.204101562 63 735.204101562 -14.3203125 628.204101562 -14.3203125 c 1
 628.204101562 111 l 0
 665.204101562 111 660.204101562 146 660.204101562 157 c 0
 660.204101562 296 l 2
 660.204101562 486 532.833007812 482 397 483 c 1
 397 608 l 1
357 608 m 1
 335 608 l 1
 270 608 40 605.841796875 40 296 c 2
 40 156 l 1
 40 69 91 -15 195 -15 c 0
 196 110 l 1
 163 110 165 145 165 157 c 0
 165 296 l 0
 164.795898438 483 258.204101562 483 335 483 c 1
 357 483 l 1
 357 608 l 1
301.325195312 446 m 1
 370.166992188 446 393 386.416992188 393 296 c 2
 393 156.185546875 l 0
 393 62.185546875 343 -15 236 -15 c 1
 236 110.185546875 l 0
 273 110.185546875 268 145.185546875 268 156.185546875 c 0
 268 296 l 2
 268 349.109375 236 349 214 349.088867188 c 1
 211 384 243 441 301.325195312 446 c 1
838.204101562 0 m 1
 838.204101562 587 l 1
 963.204101562 587 l 1
 963.204101562 0 l 1
 838.204101562 0 l 1
EndSplineSet
Fore
SplineSet
820 609 m 1
 1062 609 l 1
 1062 482.833007812 l 1
 963.19921875 483.064453125 1021.23144531 483.610351562 820 483.662109375 c 1
 820 609 l 1
780 483.666015625 m 1
 776 483.666015625 l 1
 681 483.67578125 557 484.999023438 557.204101562 296 c 0
 557.204101562 158 l 0
 557.204101562 146 555.204101562 111 588.204101562 111 c 1
 587.204101562 -14.3203125 l 0
 483.204101562 -14.3203125 432.204101562 70 432.204101562 157 c 1
 432.204101562 294 l 0
 432.204101562 602 705 609 776 609 c 2
 780 609 l 1
 780 483.666015625 l 1
397 608 m 1
 542 608 785.204101562 599 785.204101562 307 c 2
 785.204101562 157 l 0
 785.204101562 63 735.204101562 -14.3203125 628.204101562 -14.3203125 c 1
 628.204101562 111 l 0
 665.204101562 111 660.204101562 146 660.204101562 157 c 0
 660.204101562 296 l 2
 660.204101562 486 532.833007812 482 397 483 c 1
 397 608 l 1
357 608 m 1
 335 608 l 1
 270 608 40 605.841796875 40 296 c 2
 40 156 l 1
 40 69 91 -15 195 -15 c 0
 196 110 l 1
 163 110 165 145 165 157 c 0
 165 296 l 0
 164.795898438 483 258.204101562 483 335 483 c 1
 357 483 l 1
 357 608 l 1
301.325195312 446 m 1
 370.166992188 446 393 386.416992188 393 296 c 2
 393 156.185546875 l 0
 393 62.185546875 343 -15 236 -15 c 1
 236 110.185546875 l 0
 273 110.185546875 268 145.185546875 268 156.185546875 c 0
 268 296 l 2
 268 349.109375 236 349 214 349.088867188 c 1
 211 384 243 441 301.325195312 446 c 1
838.204101562 0 m 1
 838.204101562 587 l 1
 963.204101562 587 l 1
 963.204101562 0 l 1
 838.204101562 0 l 1
EndSplineSet
EndChar

StartChar: uni0BA3
Encoding: 21 2979 80
Width: 1496
VWidth: 0
Flags: HW
LayerCount: 3
Back
SplineSet
1214 607 m 1
 1456 607 l 1
 1456 480.833007812 l 1
 1357.19921875 481.064453125 1415.23144531 481.610351562 1214 481.662109375 c 1
 1214 607 l 1
1174 484.666015625 m 1
 1170 484.666015625 l 1
 1075 484.67578125 951 485.999023438 951.204101562 297 c 0
 951.204101562 159 l 0
 951.204101562 147 949.204101562 112 982.204101562 112 c 1
 981.204101562 -13.3203125 l 0
 877.204101562 -13.3203125 826.204101562 71 826.204101562 158 c 1
 826.204101562 295 l 0
 826.204101562 603 1099 610 1170 610 c 2
 1174 610 l 1
 1174 484.666015625 l 1
820 609 m 1
 959 609 1179.20410156 600 1179.20410156 308 c 2
 1179.20410156 158 l 0
 1179.20410156 64 1129.20410156 -13.3203125 1022.20410156 -13.3203125 c 1
 1022.20410156 112 l 0
 1059.20410156 112 1054.20410156 147 1054.20410156 158 c 0
 1054.20410156 297 l 2
 1054.20410156 487 949.833007812 483 820 484 c 1
 820 609 l 1
1232.20410156 1 m 1
 1232.20410156 588 l 1
 1357.20410156 588 l 1
 1357.20410156 1 l 1
 1232.20410156 1 l 1
780 483.666015625 m 1
 776 483.666015625 l 1
 681 483.67578125 557 484.999023438 557.204101562 296 c 0
 557.204101562 158 l 0
 557.204101562 146 555.204101562 111 588.204101562 111 c 1
 587.204101562 -14.3203125 l 0
 483.204101562 -14.3203125 432.204101562 70 432.204101562 157 c 1
 432.204101562 294 l 0
 432.204101562 602 705 609 776 609 c 2
 780 609 l 1
 780 483.666015625 l 1
397 608 m 1
 542 608 785.204101562 599 785.204101562 307 c 2
 785.204101562 157 l 0
 785.204101562 63 735.204101562 -14.3203125 628.204101562 -14.3203125 c 1
 628.204101562 111 l 0
 665.204101562 111 660.204101562 146 660.204101562 157 c 0
 660.204101562 296 l 2
 660.204101562 486 532.833007812 482 397 483 c 1
 397 608 l 1
357 608 m 1
 335 608 l 1
 270 608 40 605.841796875 40 296 c 2
 40 156 l 1
 40 69 91 -15 195 -15 c 0
 196 110 l 1
 163 110 165 145 165 157 c 0
 165 296 l 0
 164.795898438 483 258.204101562 483 335 483 c 1
 357 483 l 1
 357 608 l 1
301.325195312 446 m 1
 370.166992188 446 393 386.416992188 393 296 c 2
 393 156.185546875 l 0
 393 62.185546875 343 -15 236 -15 c 1
 236 110.185546875 l 0
 273 110.185546875 268 145.185546875 268 156.185546875 c 0
 268 296 l 2
 268 349.109375 236 349 214 349.088867188 c 1
 211 384 243 441 301.325195312 446 c 1
EndSplineSet
Fore
SplineSet
1214 607 m 1
 1456 607 l 1
 1456 480.833007812 l 1
 1357.19921875 481.064453125 1415.23144531 481.610351562 1214 481.662109375 c 1
 1214 607 l 1
1174 484.666015625 m 1
 1170 484.666015625 l 1
 1075 484.67578125 951 485.999023438 951.204101562 297 c 0
 951.204101562 159 l 0
 951.204101562 147 949.204101562 112 982.204101562 112 c 1
 981.204101562 -13.3203125 l 0
 877.204101562 -13.3203125 826.204101562 71 826.204101562 158 c 1
 826.204101562 295 l 0
 826.204101562 603 1099 610 1170 610 c 2
 1174 610 l 1
 1174 484.666015625 l 1
820 609 m 1
 959 609 1179.20410156 600 1179.20410156 308 c 2
 1179.20410156 158 l 0
 1179.20410156 64 1129.20410156 -13.3203125 1022.20410156 -13.3203125 c 1
 1022.20410156 112 l 0
 1059.20410156 112 1054.20410156 147 1054.20410156 158 c 0
 1054.20410156 297 l 2
 1054.20410156 487 949.833007812 483 820 484 c 1
 820 609 l 1
1232.20410156 1 m 1
 1232.20410156 588 l 1
 1357.20410156 588 l 1
 1357.20410156 1 l 1
 1232.20410156 1 l 1
780 483.666015625 m 1
 776 483.666015625 l 1
 681 483.67578125 557 484.999023438 557.204101562 296 c 0
 557.204101562 158 l 0
 557.204101562 146 555.204101562 111 588.204101562 111 c 1
 587.204101562 -14.3203125 l 0
 483.204101562 -14.3203125 432.204101562 70 432.204101562 157 c 1
 432.204101562 294 l 0
 432.204101562 602 705 609 776 609 c 2
 780 609 l 1
 780 483.666015625 l 1
397 608 m 1
 542 608 785.204101562 599 785.204101562 307 c 2
 785.204101562 157 l 0
 785.204101562 63 735.204101562 -14.3203125 628.204101562 -14.3203125 c 1
 628.204101562 111 l 0
 665.204101562 111 660.204101562 146 660.204101562 157 c 0
 660.204101562 296 l 2
 660.204101562 486 532.833007812 482 397 483 c 1
 397 608 l 1
357 608 m 1
 335 608 l 1
 270 608 40 605.841796875 40 296 c 2
 40 156 l 1
 40 69 91 -15 195 -15 c 0
 196 110 l 1
 163 110 165 145 165 157 c 0
 165 296 l 0
 164.795898438 483 258.204101562 483 335 483 c 1
 357 483 l 1
 357 608 l 1
301.325195312 446 m 1
 370.166992188 446 393 386.416992188 393 296 c 2
 393 156.185546875 l 0
 393 62.185546875 343 -15 236 -15 c 1
 236 110.185546875 l 0
 273 110.185546875 268 145.185546875 268 156.185546875 c 0
 268 296 l 2
 268 349.109375 236 349 214 349.088867188 c 1
 211 384 243 441 301.325195312 446 c 1
EndSplineSet
EndChar

StartChar: uni0BAE
Encoding: 26 2990 81
Width: 680
VWidth: 0
Flags: HW
LayerCount: 3
Back
SplineSet
456 126 m 1
 507 126 514.78125 160.014648438 515 182.940429688 c 2
 514 439 l 0
 514 463 511 495 457 495 c 1
 457 620 l 1
 564 620 641 552 641 456 c 0
 641 202 l 0
 641 52 547 1 456 1 c 0
 455 1 456 126 456 126 c 1
416 620 m 1
 416 495 l 17
 369 495 374 422.396484375 374 372 c 2
 374 125.0234375 l 1
 249 125 l 0
 249 372 l 0
 249 579 334 620 416 620 c 1
40 109.065429688 m 1
 40 612.065429688 l 1
 165 612.065429688 l 1
 165 109.065429688 l 1
 40 109.065429688 l 1
417 1.0107421875 m 1
 40 1.0654296875 l 1
 40 126.065429688 l 1
 417 126 l 1
 417 1.0107421875 l 1
EndSplineSet
Fore
SplineSet
456 126 m 1
 507 126 514.78125 160.014648438 515 182.940429688 c 2
 514 439 l 0
 514 463 511 495 457 495 c 1
 457 620 l 1
 564 620 641 552 641 456 c 0
 641 202 l 0
 641 52 547 1 456 1 c 0
 455 1 456 126 456 126 c 1
416 620 m 1
 416 495 l 17
 369 495 374 422.396484375 374 372 c 2
 374 125.0234375 l 1
 249 125 l 0
 249 372 l 0
 249 579 334 620 416 620 c 1
40 109.065429688 m 1
 40 612.065429688 l 1
 165 612.065429688 l 1
 165 109.065429688 l 1
 40 109.065429688 l 1
417 1.0107421875 m 1
 40 1.0654296875 l 1
 40 126.065429688 l 1
 417 126 l 1
 417 1.0107421875 l 1
EndSplineSet
EndChar

StartChar: uni0BB4
Encoding: 32 2996 82
Width: 680
VWidth: 0
Flags: HW
LayerCount: 3
Back
SplineSet
179 -69 m 1
 54 -69 l 1
 54 -196 188 -266 335 -169 c 1
 288 -164 241 -122 237 -89 c 1
 219 -105 180 -94 179 -69 c 1
456 125 m 1
 507 125 514.78125 159.014648438 515 181.940429688 c 2
 514 459 l 0
 514 483 511 515 457 515 c 1
 457 640 l 1
 564 640 641 572 641 476 c 0
 641 201 l 0
 641 51 547 0 456 0 c 0
 455 0 456 125 456 125 c 1
  Spiro
    456 125 v
    493.888 134.65 o
    510.949 157.014 o
    515 181.94 [
    514 459 o
    511.23 484.16 o
    495.752 505.832 o
    457 515 v
    457 640 v
    552.177 618.856 o
    617.12 561.112 o
    641 476 o
    641 201 o
    613.311 82.3116 o
    544.325 18.7385 o
    456 0 o
    455.556 32.3519 o
    455.778 92.6481 o
    0 0 z
  EndSpiro
416 640 m 1
 416 515 l 17
 369 515 374 442.396484375 374 392 c 0
 374 370 l 0
 374 124.0234375 l 0
 249 124 l 0
 249 392 l 0
 249 599 334 640 416 640 c 1
  Spiro
    416 640 v
    416 515 v
    384.241 494.348 o
    374.441 446.233 o
    374 392 o
    374 370 o
    374 124.023 o
    249 124 o
    249 392 o
    274.027 548.186 o
    336.333 621.745 o
    0 0 z
  EndSpiro
40 108.065429688 m 1
 40 611.065429688 l 1
 165 611.065429688 l 1
 165 108.065429688 l 1
 40 108.065429688 l 1
  Spiro
    40 108.065 v
    40 611.065 v
    165 611.065 v
    165 108.065 v
    0 0 z
  EndSpiro
417 0.0107421875 m 1
 40 0.0654296875 l 1
 40 125.065429688 l 1
 417 125 l 1
 417 0.0107421875 l 1
  Spiro
    417 0.0107 v
    40 0.0654 v
    40 125.065 v
    417 125 v
    0 0 z
  EndSpiro
249 1.3330078125 m 1
 374 1.3330078125 l 1
 374 -29 410 -22.6669921875 572 -22.6669921875 c 1
 572 -149 l 0
 439 -148.349609375 l 1
 270.846679688 -148.879882812 249.149414062 -61.4599609375 249 1.3330078125 c 1
EndSplineSet
Fore
SplineSet
179 -69 m 1
 54 -69 l 1
 54 -196 188 -266 335 -169 c 1
 288 -164 241 -122 237 -89 c 1
 219 -105 180 -94 179 -69 c 1
456 125 m 1
 507 125 514.78125 159.014648438 515 181.940429688 c 2
 514 459 l 0
 514 483 511 515 457 515 c 1
 457 640 l 1
 564 640 641 572 641 476 c 0
 641 201 l 0
 641 51 547 0 456 0 c 0
 455 0 456 125 456 125 c 1
  Spiro
    456 125 v
    493.888 134.65 o
    510.949 157.014 o
    515 181.94 [
    514 459 o
    511.23 484.16 o
    495.752 505.832 o
    457 515 v
    457 640 v
    552.177 618.856 o
    617.12 561.112 o
    641 476 o
    641 201 o
    613.311 82.3116 o
    544.325 18.7385 o
    456 0 o
    455.556 32.3519 o
    455.778 92.6481 o
    0 0 z
  EndSpiro
416 640 m 1
 416 515 l 17
 369 515 374 442.396484375 374 392 c 0
 374 370 l 0
 374 124.0234375 l 0
 249 124 l 0
 249 392 l 0
 249 599 334 640 416 640 c 1
  Spiro
    416 640 v
    416 515 v
    384.241 494.348 o
    374.441 446.233 o
    374 392 o
    374 370 o
    374 124.023 o
    249 124 o
    249 392 o
    274.027 548.186 o
    336.333 621.745 o
    0 0 z
  EndSpiro
55 108.065429688 m 1
 55 611.065429688 l 1
 98 611.065429688 l 1
 98 108.065429688 l 1
 55 108.065429688 l 1
417 0.0107421875 m 1
 55 0.0654296875 l 1
 55 125.065429688 l 1
 417 125 l 1
 417 0.0107421875 l 1
249 1.3330078125 m 1
 374 1.3330078125 l 1
 374 -29 410 -22.6669921875 572 -22.6669921875 c 1
 572 -149 l 0
 439 -148.349609375 l 1
 270.846679688 -148.879882812 249.149414062 -61.4599609375 249 1.3330078125 c 1
EndSplineSet
EndChar

StartChar: uni0B86
Encoding: 4 2950 83
Width: 1251
VWidth: 0
Flags: HW
LayerCount: 3
Back
SplineSet
822 393 m 9
 822 372 l 1
 697 372 l 1
 697 393 l 0
 697 501.397460938 653.118164062 575 528 575 c 0
 393 575 355 477 355 331 c 1
 230 312 l 1
 230 320.543945312 230.025390625 386.865234375 230 395 c 0
 229.391601562 591 365.547851562 700.134765625 528 700 c 1
 712.377929688 700 822 577.788085938 822 393 c 9
446.5 113 m 1
 446.5 241 l 1
 476.615234375 249.5703125 497.892578125 276.977539062 497.892578125 310.106445312 c 0
 497.892578125 350.25390625 466.1484375 382 426 382 c 0
 385.852539062 382 354.106445312 350.25390625 354.106445312 310.106445312 c 0
 354.106445312 276.735351562 376.040039062 249.169921875 406.5 240.815429688 c 1
 406.5 113 l 1
 310.5 113 230 210 230 281 c 0
 230 328 l 2
 230 409.506835938 329.286132812 506.161132812 423 507 c 0
 539.482421875 508.04296875 623 425.078125 623 334 c 2
 623 281 l 2
 623 222 538.5 113 446.5 113 c 1
510 332 m 1
 594.333007812 332 737.666992188 332 822 332 c 1
 823 69 l 1
 823 -35.3046875 751 -130 622 -130 c 0
 449 -130 l 0
 448 -5 l 17
 610 -5 l 0
 678 -4.4453125 697 33.9345703125 697 69 c 1
 697 210 l 1
 655 210 552 210 510 210 c 1
 510 332 l 1
408 -5 m 1
 408 -130 l 1
 248 -130 l 0
 133 -130 40 -14.3388671875 40 108 c 0
 40 226.737304688 126 334 259 334 c 2
 349 334 l 1
 349 209 l 1
 241 209 l 0
 216 209 165 166 165 107.537109375 c 0
 165 49.5625 212 -5 259 -5 c 0
 408 -5 l 1
780 332 m 1
 876 332 l 1
 876 210 l 1
 780 210 l 1
 780 332 l 1
873 592 m 1
 998 592 l 1
 998 -110 l 1
 873 -110 l 1
 873 592 l 1
1016 -174.666992188 m 2
 1080 -174.631835938 1084 -154 1084 -104 c 0
 1084 22 l 2
 1084.47070312 69.025390625 1081 70 1038 70 c 0
 1038 195 l 1
 1131 195 1209 173 1209 22 c 0
 1209 -104 l 0
 1209 -215 1167 -300 989 -300 c 0
 662 -300 l 1
 662 -175 l 1
 1016 -174.666992188 l 2
EndSplineSet
Fore
SplineSet
822 393 m 9
 822 372 l 1
 697 372 l 1
 697 393 l 0
 697 501.397460938 653.118164062 575 528 575 c 0
 393 575 355 477 355 331 c 1
 230 312 l 1
 230 320.543945312 230.025390625 386.865234375 230 395 c 0
 229.391601562 591 365.547851562 700.134765625 528 700 c 1
 712.377929688 700 822 577.788085938 822 393 c 9
446.5 113 m 1
 446.5 241 l 1
 476.615234375 249.5703125 497.892578125 276.977539062 497.892578125 310.106445312 c 0
 497.892578125 350.25390625 466.1484375 382 426 382 c 0
 385.852539062 382 354.106445312 350.25390625 354.106445312 310.106445312 c 0
 354.106445312 276.735351562 376.040039062 249.169921875 406.5 240.815429688 c 1
 406.5 113 l 1
 310.5 113 230 210 230 281 c 0
 230 328 l 2
 230 409.506835938 329.286132812 506.161132812 423 507 c 0
 539.482421875 508.04296875 623 425.078125 623 334 c 2
 623 281 l 2
 623 222 538.5 113 446.5 113 c 1
510 332 m 1
 594.333007812 332 737.666992188 332 822 332 c 1
 823 69 l 1
 823 -35.3046875 751 -130 622 -130 c 0
 449 -130 l 0
 448 -5 l 17
 610 -5 l 0
 678 -4.4453125 697 33.9345703125 697 69 c 1
 697 210 l 1
 655 210 552 210 510 210 c 1
 510 332 l 1
408 -5 m 1
 408 -130 l 1
 248 -130 l 0
 133 -130 40 -14.3388671875 40 108 c 0
 40 226.737304688 126 334 259 334 c 2
 349 334 l 1
 349 209 l 1
 241 209 l 0
 216 209 165 166 165 107.537109375 c 0
 165 49.5625 212 -5 259 -5 c 0
 408 -5 l 1
780 332 m 1
 876 332 l 1
 876 210 l 1
 780 210 l 1
 780 332 l 1
873 592 m 1
 998 592 l 1
 998 -110 l 1
 873 -110 l 1
 873 592 l 1
1016 -174.666992188 m 2
 1080 -174.631835938 1084 -154 1084 -104 c 0
 1084 22 l 2
 1084.47070312 69.025390625 1081 70 1038 70 c 0
 1038 195 l 1
 1131 195 1209 173 1209 22 c 0
 1209 -104 l 0
 1209 -215 1167 -300 989 -300 c 0
 662 -300 l 1
 662 -175 l 1
 1016 -174.666992188 l 2
EndSplineSet
EndChar

StartChar: uni0B87
Encoding: 5 2951 84
Width: 1171
VWidth: 0
Flags: HW
LayerCount: 3
Back
SplineSet
803 301 m 5
 803 362 742.235351562 434 633 434 c 4
 537 434 475 369 475 269 c 5
 350 256 l 5
 350 474 493.063476562 553.977539062 633 558 c 5
 779.377929688 558 928 461.788085938 928 301 c 13
 928 301 l 5
 803 301 l 5
 803 301 l 5
631 723.037109375 m 4
 825.073242188 723.453125 1092 602.749023438 1092 301 c 5
 967 301 l 5
 967 548.740234375 721.314453125 597.950195312 635 597.500976562 c 4
 478.86328125 596.6875 310 503 310 257.192382812 c 4
 179 236 l 5
 179 561 396.525390625 722.534179688 631 723.037109375 c 4
513 -22 m 5
 392 -84 l 4
 296 -94 186 37 186 144 c 5
 313 145 l 5
 325 72 407 -2 513 -22 c 5
675 264 m 5
 759.333007812 264 843.666992188 264 928 264 c 5
 928 52 l 5
 928 -52.3046875 856 -144 727 -144 c 4
 554 -144 l 4
 553 -22 l 21
 715 -22 l 4
 783 -21.4453125 803 16.9345703125 803 52 c 5
 803 139 l 5
 761 139 717 139 675 139 c 5
 675 264 l 5
553 160 m 5
 588 159.333007812 607 195 607 224 c 4
 607 250 586 286 553 286 c 4
 548.01953125 286 518.705078125 285 513 285 c 4
 483 285 459 255 459 224 c 4
 459 190 484 159.333007812 513 160 c 5
 513 36 l 21
 403 36 351 133 351 172 c 4
 350 256 l 6
 350 337.506835938 455.282226562 411 553 411 c 4
 646 411 730 319 730 243 c 4
 730 174 l 6
 730 124 655 36 553 36 c 13
 553 160 l 5
513 -22 m 5
 513 -144 l 5
 306 -144 l 4
 120 -144 40 -47.3388671875 40 60 c 4
 40 182 144 261 284 261 c 6
 441 261 l 5
 441 133 l 5
 254 134 l 4
 212 134 164 104 164 59.537109375 c 4
 164 22.5625 195 -22 264 -22 c 4
 513 -22 l 5
928 264 m 5
 1070 264 1131 181 1131 75 c 6
 1131 40 l 5
 1131 -38.3203125 1050 -154.400390625 894 -135 c 5
 952 -12 l 5
 999 0 1005 36 1005 67.9833984375 c 4
 1005 115 968 138.983398438 928 138.983398438 c 5
 928 264 l 5
EndSplineSet
Fore
SplineSet
803 301 m 5
 803 362 742.235351562 434 633 434 c 4
 537 434 475 369 475 269 c 5
 350 256 l 5
 350 474 493.063476562 553.977539062 633 558 c 5
 779.377929688 558 928 461.788085938 928 301 c 13
 928 301 l 5
 803 301 l 5
 803 301 l 5
631 723.037109375 m 4
 825.073242188 723.453125 1092 602.749023438 1092 301 c 5
 967 301 l 5
 967 548.740234375 721.314453125 597.950195312 635 597.500976562 c 4
 478.86328125 596.6875 310 503 310 257.192382812 c 4
 179 236 l 5
 179 561 396.525390625 722.534179688 631 723.037109375 c 4
513 -22 m 5
 392 -84 l 4
 296 -94 186 37 186 144 c 5
 313 145 l 5
 325 72 407 -2 513 -22 c 5
675 264 m 5
 759.333007812 264 843.666992188 264 928 264 c 5
 928 52 l 5
 928 -52.3046875 856 -144 727 -144 c 4
 554 -144 l 4
 553 -22 l 21
 715 -22 l 4
 783 -21.4453125 803 16.9345703125 803 52 c 5
 803 139 l 5
 761 139 717 139 675 139 c 5
 675 264 l 5
553 160 m 5
 588 159.333007812 607 195 607 224 c 4
 607 250 586 286 553 286 c 4
 548.01953125 286 518.705078125 285 513 285 c 4
 483 285 459 255 459 224 c 4
 459 190 484 159.333007812 513 160 c 5
 513 36 l 21
 403 36 351 133 351 172 c 4
 350 256 l 6
 350 337.506835938 455.282226562 411 553 411 c 4
 646 411 730 319 730 243 c 4
 730 174 l 6
 730 124 655 36 553 36 c 13
 553 160 l 5
513 -22 m 5
 513 -144 l 5
 306 -144 l 4
 120 -144 40 -47.3388671875 40 60 c 4
 40 182 144 261 284 261 c 6
 441 261 l 5
 441 133 l 5
 254 134 l 4
 212 134 164 104 164 59.537109375 c 4
 164 22.5625 195 -22 264 -22 c 4
 513 -22 l 5
928 264 m 5
 1070 264 1131 181 1131 75 c 6
 1131 40 l 5
 1131 -38.3203125 1050 -154.400390625 894 -135 c 5
 952 -12 l 5
 999 0 1005 36 1005 67.9833984375 c 4
 1005 115 968 138.983398438 928 138.983398438 c 5
 928 264 l 5
EndSplineSet
EndChar

StartChar: uni0B95
Encoding: 15 2965 85
Width: 829
VWidth: 0
Flags: HW
LayerCount: 3
Back
SplineSet
322 -1 m 9
 322 125 l 1
 398 125 429 145.0234375 429 191.940429688 c 0
 429 602 l 1
 554 602 l 1
 554 196 l 2
 554 98.0185546875 501 -1 322 -1 c 9
168 356 m 17
 168 600 l 1
 294 600 l 1
 293 356 l 1
 168 356 l 17
388 606 m 1
 689 606 l 1
 689 481 l 1
 388 481 l 1
 388 606 l 1
168 606 m 1
 348 606 l 1
 348 481 l 1
 168 481 l 1
 168 606 l 1
244 255 m 2
 178.0078125 254.795898438 164 245 164 192.940429688 c 0
 164 130.165039062 184 124.977539062 282 125 c 1
 282 -1 l 1
 114 -1 40 69.7568359375 40 161 c 0
 40 222.814453125 l 0
 40 333 153 380 241 380 c 0
 346.666992188 380 445.333007812 380 551 380 c 0
 626 380 796 369 796 224.165039062 c 2
 796 163.165039062 l 0
 796 70 703 1.6796875 566 1.8447265625 c 1
 568 127.165039062 l 0
 620 127.165039062 671 132 671 189 c 0
 671 251.0078125 621 255 567 255 c 2
 244 255 l 2
EndSplineSet
Fore
SplineSet
322 -1 m 9
 322 125 l 1
 398 125 429 145.0234375 429 191.940429688 c 0
 429 602 l 1
 554 602 l 1
 554 196 l 2
 554 98.0185546875 501 -1 322 -1 c 9
168 356 m 17
 168 600 l 1
 294 600 l 1
 293 356 l 1
 168 356 l 17
388 606 m 1
 689 606 l 1
 689 481 l 1
 388 481 l 1
 388 606 l 1
168 606 m 1
 348 606 l 1
 348 481 l 1
 168 481 l 1
 168 606 l 1
244 255 m 2
 178.0078125 254.795898438 164 245 164 192.940429688 c 0
 164 130.165039062 184 124.977539062 282 125 c 1
 282 -1 l 1
 114 -1 40 69.7568359375 40 161 c 0
 40 222.814453125 l 0
 40 333 153 380 241 380 c 0
 346.666992188 380 445.333007812 380 551 380 c 0
 626 380 796 369 796 224.165039062 c 2
 796 163.165039062 l 0
 796 70 703 1.6796875 566 1.8447265625 c 1
 568 127.165039062 l 0
 620 127.165039062 671 132 671 189 c 0
 671 251.0078125 621 255 567 255 c 2
 244 255 l 2
EndSplineSet
EndChar

StartChar: uni0B9A
Encoding: 17 2970 86
Width: 744
VWidth: 0
Flags: HW
LayerCount: 3
Back
SplineSet
658 380 m 13
 658 255 l 5
 244 255 l 6
 178.0078125 254.795898438 164 245 164 192.940429688 c 4
 164 130.165039062 184 124.977539062 282 125 c 5
 282 -1 l 5
 114 -1 40 69.7568359375 40 161 c 4
 40 222.814453125 l 4
 40 333 153 380 241 380 c 4
 658 380 l 13
322 -1 m 13
 322 125 l 5
 398 125 429 145.0234375 429 191.940429688 c 4
 429 602 l 5
 554 602 l 5
 554 196 l 6
 554 98.0185546875 501 -1 322 -1 c 13
168 356 m 21
 168 600 l 5
 294 600 l 5
 293 356 l 5
 168 356 l 21
388 606 m 5
 704 606 l 5
 704 481 l 5
 388 481 l 5
 388 606 l 5
168 606 m 5
 348 606 l 5
 348 481 l 5
 168 481 l 5
 168 606 l 5
EndSplineSet
Fore
SplineSet
658 380 m 13
 658 255 l 5
 244 255 l 6
 178.0078125 254.795898438 164 245 164 192.940429688 c 4
 164 130.165039062 184 124.977539062 282 125 c 5
 282 -1 l 5
 114 -1 40 69.7568359375 40 161 c 4
 40 222.814453125 l 4
 40 333 153 380 241 380 c 4
 658 380 l 13
322 -1 m 13
 322 125 l 5
 398 125 429 145.0234375 429 191.940429688 c 4
 429 602 l 5
 554 602 l 5
 554 196 l 6
 554 98.0185546875 501 -1 322 -1 c 13
168 356 m 21
 168 600 l 5
 294 600 l 5
 293 356 l 5
 168 356 l 21
388 606 m 5
 704 606 l 5
 704 481 l 5
 388 481 l 5
 388 606 l 5
168 606 m 5
 348 606 l 5
 348 481 l 5
 168 481 l 5
 168 606 l 5
EndSplineSet
EndChar

StartChar: uni0BA4
Encoding: 22 2980 87
Width: 809
VWidth: 0
Flags: HW
LayerCount: 3
Back
SplineSet
-674 -9 m 1053
751 170 m 1,0,-1
 751 25 l 0,1,2
 751 -43 730 -162 573 -162 c 0,3,-1
 324 -162 l 2,4,5
 302.037109375 -162 264 -161 264 -226 c 0,6,-1
 264 -262 l 1,7,-1
 133 -262 l 1,8,-1
 133 -232 l 1,9,10
 133 -99.1923828125 223 -37 344 -37 c 0,11,-1
 572 -37 l 0,12,13
 622 -37 625 -6 625 25 c 0,14,-1
 626 170 l 1,15,-1
 751 170 l 1,0,-1
40 169 m 9,16,-1
 166 169 l 17,17,18
 173.004882812 131.557617188 200.586914062 127.981445312 282 128 c 1,19,-1
 282 2 l 1,20,21
 111.241210938 2 40 74.08984375 40 169 c 9,16,-1
164 210 m 17,22,23
 164 250.741210938 185.8671875 257.8203125 244 258 c 2,24,-1
 581 258 l 1,25,-1
 581 383 l 1,26,-1
 241 383 l 2,27,28
 153.499023438 383 40 336 40 225.814453125 c 0,29,-1
 40 210 l 9,30,-1
 164 210 l 17,22,23
626 210 m 9,31,-1
 751 210 l 1,32,-1
 751 210 l 0,33,34
 751 361 671 383 578 383 c 1,35,-1
 578 258 l 0,36,37
 621 258 626 257 626 210 c 2,38,-1
 626 210 l 9,31,-1
322 2 m 17,39,40
 501 2 554 101.018554688 554 199 c 2,41,-1
 554 605 l 1,42,-1
 429 605 l 1,43,-1
 429 194.940429688 l 0,44,45
 429 148.0234375 398 128 322 128 c 1,46,-1
 322 2 l 17,39,40
168 359 m 9,47,-1
 293 359 l 1,48,-1
 294 603 l 1,49,-1
 168 603 l 1,50,-1
 168 359 l 9,47,-1
388 609 m 1,51,-1
 388 484 l 1,52,-1
 689 484 l 1,53,-1
 689 609 l 1,54,-1
 388 609 l 1,51,-1
168 609 m 1,55,-1
 168 484 l 1,56,-1
 348 484 l 1,57,-1
 348 609 l 1,58,-1
 168 609 l 1,55,-1
EndSplineSet
Fore
SplineSet
-674 -9 m 1053
751 170 m 1,0,-1
 751 25 l 0,1,2
 751 -43 730 -162 573 -162 c 0,3,-1
 324 -162 l 2,4,5
 302.037109375 -162 264 -161 264 -226 c 0,6,-1
 264 -262 l 1,7,-1
 133 -262 l 1,8,-1
 133 -232 l 1,9,10
 133 -99.1923828125 223 -37 344 -37 c 0,11,-1
 572 -37 l 0,12,13
 622 -37 625 -6 625 25 c 0,14,-1
 626 170 l 1,15,-1
 751 170 l 1,0,-1
40 169 m 9,16,-1
 166 169 l 17,17,18
 173.004882812 131.557617188 200.586914062 127.981445312 282 128 c 1,19,-1
 282 2 l 1,20,21
 111.241210938 2 40 74.08984375 40 169 c 9,16,-1
164 210 m 17,22,23
 164 250.741210938 185.8671875 257.8203125 244 258 c 2,24,-1
 581 258 l 1,25,-1
 581 383 l 1,26,-1
 241 383 l 2,27,28
 153.499023438 383 40 336 40 225.814453125 c 0,29,-1
 40 210 l 9,30,-1
 164 210 l 17,22,23
626 210 m 9,31,-1
 751 210 l 1,32,-1
 751 210 l 0,33,34
 751 361 671 383 578 383 c 1,35,-1
 578 258 l 0,36,37
 621 258 626 257 626 210 c 2,38,-1
 626 210 l 9,31,-1
322 2 m 17,39,40
 501 2 554 101.018554688 554 199 c 2,41,-1
 554 605 l 1,42,-1
 429 605 l 1,43,-1
 429 194.940429688 l 0,44,45
 429 148.0234375 398 128 322 128 c 1,46,-1
 322 2 l 17,39,40
168 359 m 9,47,-1
 293 359 l 1,48,-1
 294 603 l 1,49,-1
 168 603 l 1,50,-1
 168 359 l 9,47,-1
388 609 m 1,51,-1
 388 484 l 1,52,-1
 689 484 l 1,53,-1
 689 609 l 1,54,-1
 388 609 l 1,51,-1
168 609 m 1,55,-1
 168 484 l 1,56,-1
 348 484 l 1,57,-1
 348 609 l 1,58,-1
 168 609 l 1,55,-1
EndSplineSet
EndChar

StartChar: uni0D85
Encoding: 317 3461 88
Width: 1024
VWidth: 0
LayerCount: 3
Back
SplineSet
504 463 m 1
 427.005859375 442.508789062 433.724609375 417.513671875 432.791992188 377 c 0
 432 139.5078125 l 1
 504 139.5078125 l 1
 504 0 l 1
 432 -0.1201171875 l 1
 432 -205 l 1
 302 -205 l 1
 302 409 l 0
 302.252929688 494.813476562 349.529296875 575.489257812 504 605 c 1
 504 463 l 1
163 220.278320312 m 1
 162.859375 168.165039062 204.416992188 136.204101562 247 136 c 0
 247 0 l 0
 127.319335938 0 20.9111328125 82.041015625 20.447265625 222 c 0
 20.03125 347.57421875 115.70703125 439.055664062 247 438.552734375 c 2
 302.553710938 438.33984375 l 1
 302.524414062 461.627929688 255.994140625 491 196 491 c 0
 150.872070312 491 101.5078125 473.150390625 69 440 c 1
 69.9990234375 568.38671875 l 1
 95.6669921875 591.94140625 142.05078125 613.017578125 220.857421875 613.017578125 c 0
 317.625 613.017578125 433 556.27734375 433 414 c 1
 432 304 l 1
 243.690429688 303.884765625 l 2
 210.274414062 303.864257812 163.2109375 277.826171875 163 220.278320312 c 1
EndSplineSet
Fore
SplineSet
504 463 m 1
 427.005859375 442.508789062 433.724609375 417.513671875 432.791992188 377 c 0
 432 139.5078125 l 1
 504 139.5078125 l 1
 504 0 l 1
 432 -0.1201171875 l 1
 432 -205 l 1
 302 -205 l 1
 302 409 l 0
 302.252929688 494.813476562 349.529296875 575.489257812 504 605 c 1
 504 463 l 1
163 220.278320312 m 1
 162.859375 168.165039062 204.416992188 136.204101562 247 136 c 0
 247 0 l 0
 127.319335938 0 20.9111328125 82.041015625 20.447265625 222 c 0
 20.03125 347.57421875 115.70703125 439.055664062 247 438.552734375 c 2
 302.553710938 438.33984375 l 1
 302.524414062 461.627929688 255.994140625 491 196 491 c 0
 150.872070312 491 101.5078125 473.150390625 69 440 c 1
 69.9990234375 568.38671875 l 1
 95.6669921875 591.94140625 142.05078125 613.017578125 220.857421875 613.017578125 c 0
 317.625 613.017578125 433 556.27734375 433 414 c 1
 432 304 l 1
 243.690429688 303.884765625 l 2
 210.274414062 303.864257812 163.2109375 277.826171875 163 220.278320312 c 1
EndSplineSet
EndChar

StartChar: uni0D86
Encoding: 318 3462 89
Width: 1024
VWidth: 0
LayerCount: 3
Fore
SplineSet
580.825195312 603.874023438 m 5
 814.87890625 603.874023438 l 5
 815 472 l 5
 758.293945312 399.892578125 701 327.677734375 701 218 c 4
 701 107.9453125 793.663085938 122.098632812 819 130 c 5
 819 8 l 5
 737 -12.3818359375 654.318359375 13.6396484375 611 67 c 4
 524.297851562 171.298828125 595.9453125 381.045898438 657.279296875 465.561523438 c 5
 580.823242188 465.561523438 l 5
 580.825195312 603.874023438 l 5
EndSplineSet
Refer: 88 3461 N 1 0 0 1 22 0 2
EndChar

StartChar: uni0D89
Encoding: 321 3465 92
Width: 1024
VWidth: 0
LayerCount: 3
Fore
SplineSet
297 532 m 5xdc
 358.321289062 579 433 595 495 595 c 4
 644.546633184 595 784 511.257446435 784 364 c 10
 784 229 l 2
 784 85.3681640625 733.16796875 0 668 0 c 10
 600 0 l 1
 600 110 l 17
 657 110 660 155.364257812 660 233 c 2
 660 356 l 2
 660 437.995117188 575.421875 473.56640625 503 478 c 2
 484 478 l 2xbc
 447.962890625 478 383.135454998 465.318769937 322 393 c 2
 158 199 l 1
 160 167 149.057617188 108 215.407226562 108 c 0
 251.19140625 108 261 128.740234375 261 160 c 2
 261 200 l 1
 363 200 l 1
 363 162 l 2
 363 137.081054688 381.939453125 113.577148438 413.385742188 113.577148438 c 0
 432.908203125 113.577148438 462 122.30078125 462 184 c 2
 462 229 l 2
 462 301 328 293 328 293 c 1
 386 392 l 1
 462 392 566.196652379 361.917610401 566 254 c 2
 565.823242188 157 l 2
 565.727539062 89.9873046875 510.25 0 420 0 c 0
 341 0 317 32 317 32 c 0
 317 32 310 0 228.455078125 0 c 0
 99.455078125 0 84 113 84 113 c 1
 59.7685546875 85 l 1
 -21 157 l 1
 211 431 l 1
 203.03125 456.325195312 181.005859375 464.12890625 156.884765625 464.12890625 c 0
 118.145507812 464.12890625 74 444 74 444 c 1
 74 564 l 1
 119.283203125 580.981445312 158.681640625 588 190 588 c 0
 269.33984375 588 297 532 297 532 c 5xdc
EndSplineSet
EndChar

StartChar: uni0D8A
Encoding: 322 3466 93
Width: 1024
VWidth: 0
LayerCount: 3
Fore
SplineSet
541.5 -6.9091796875 m 0xe4
 697.439453125 6.16796875 761.983398438 128.96484375 762.732421875 285 c 0
 763.569335938 459.409179688 679.5 589 541.5 589 c 1
 541.5 447 l 1
 617.5 427 624.25 343.991210938 624.25 285 c 0
 624.25 241 615.1015625 158.474609375 541.5 135 c 1
 541.5 -6.9091796875 l 0xe4
494 447 m 17
 449 447 422.264648438 373 422.264648438 340.065429688 c 1
 461 308 l 1
 488.286132812 281.361328125 504 230 504 182 c 0
 504 65 456 -8 298 -8 c 1
 298 135 l 0
 337.30078125 136.145507812 362.270507812 139.142578125 361.96484375 175.815429688 c 0
 361.69140625 208.6171875 343.666992188 231.827148438 342 234 c 1
 298 262.694335938 l 1
 288.046875 277.155273438 279.426757812 317.3515625 279.379882812 348.321289062 c 0
 279.202148438 464.87109375 357 590 494 590 c 1
 494 447 l 17
250 -6.9091796875 m 0
 94.060546875 6.16796875 29.5163242447 128.964628643 28.767578125 285 c 0
 27.9306640625 459.409179688 112 589 250 589 c 1
 250 447 l 1
 174 427 170.25 343.990952868 170.25 285 c 0
 170.25 241 176.3984375 158.474609375 250 135 c 1
 250 -6.9091796875 l 0
EndSplineSet
EndChar

StartChar: uni0D8B
Encoding: 323 3467 94
Width: 1024
VWidth: 0
LayerCount: 3
Fore
SplineSet
254.498046875 754.517578125 m 1
 254.498046875 615.587890625 l 1
 216.625 611.391601562 175.286132812 603.088867188 148.998046875 547.115234375 c 1
 48 632.145507812 l 1
 85.380859375 702.681640625 152.130859375 754.323242188 254.498046875 754.517578125 c 1
309.498046875 615.708007812 m 1
 309.498046875 754.662109375 l 1
 524.84765625 754.489257812 558.5 547.458007812 558.5 366.627929688 c 0
 558.5 157.569335938 505.967773438 -4.8525390625 310.498046875 -5.0576171875 c 1
 310.498046875 139.919921875 l 1
 397.827148438 140.971679688 414.498046875 238.548828125 414.498046875 362 c 0
 414.498046875 518.208984375 393.698242188 606.91015625 309.498046875 615.708007812 c 1
254.498046875 140.5 m 1
 254.498046875 -5.5 l 1
 110.209960938 -5.5 31.7216796875 124.220703125 31.7216796875 250.768554688 c 0
 31.7216796875 375.692382812 102.369140625 497.64453125 254.498046875 498.54296875 c 1
 254.498046875 351.5 l 1
 213.984375 346.5 170.498046875 319.497070312 170.498046875 248 c 0
 170.498046875 192.58984375 203.786132812 141.1328125 254.498046875 140.5 c 1
EndSplineSet
EndChar

StartChar: uni0D8C
Encoding: 324 3468 95
Width: 1024
VWidth: 0
LayerCount: 3
Fore
SplineSet
478.565429688 -5.6044921875 m 0x8740
 428.975253131 -5.6044921875 384.781858984 7.3173828125 354.318359375 40.494140625 c 1
 326.431557807 6.8642578125 281.488491746 -5.9248046875 242.193359375 -5.9248046875 c 0
 114.457050589 -5.9248046875 55.2550061687 85.7116363973 54.2939453125 202 c 1
 195 202 l 1
 195 182.5 l 2
 195 136.684521233 227.00542088 124.681640625 245.223632812 124.681640625 c 0
 261.420894968 124.681640625 293.600500913 135.023173584 293.645507812 179.033203125 c 2
 293.720703125 251.075195312 l 1
 410.711914062 251.075195312 l 1
 410.522460938 186.025390625 l 2
 410.383562969 138.333985033 436.94531894 125.366115984 466.50390625 125.336914062 c 0
 486.028318176 125.317625239 512 143.012151331 512 185.5 c 2
 512 202 l 1
 652 202 l 1
 652 42.6521372434 576.946743083 -5.6044921875 478.565429688 -5.6044921875 c 0x8740
56.9462890625 295.5 m 1xa640
 16.5 295.5 l 1
 15.5 395.5 l 1
 205.973632812 395.5 l 1
 192.668468183 422.860620436 170.102125771 433.426442249 141.817990148 433.426442249 c 0
 119.923628789 433.426442249 94.603111015 427.095300697 67.5 417.322265625 c 1
 67.5 536.265625 l 1
 95.025891721 546.202515328 124.210954881 550.042688329 151.822991893 550.042688329 c 0
 197.460366134 550.042688329 239.276266765 540.490403792 261.25 528.759765625 c 0
 312.148718463 501.587575854 343 464.019033886 343 401 c 2
 343 296 l 1
 218 295.5 l 2xae40
 194.079327529 295.40431731 194 289.274863507 194 251 c 1
 54 251 l 1xc640
 54 267.051955755 54.6529832254 282.532440084 56.9462890625 295.5 c 1xa640
511.987304688 251 m 1xd6c0
 512 462 l 2
 512.000000256 462.008493434 l 0
 512.000000256 498.568842552 497.796868557 535.96979761 471.99609375 566 c 0
 458.731770557 581.438695661 436.672394297 596.633248645 400 603 c 1
 400.396872592 542.600514672 430.306499717 498 468.999023438 498 c 1
 469 409 l 1
 365.809134232 409.938563872 309.988202283 519.762813679 309 619 c 1
 284.082565544 622.480638222 259.964645096 623.685588777 233.874023438 623.706054688 c 1
 233.475585938 757.456054688 l 1
 421.349244255 756.559751102 544.004848102 739.482413526 606.001953125 624 c 0
 649.303255211 543.342381037 654 485.110852064 654 380 c 2
 654 251 l 1
 511.987304688 251 l 1xd6c0
EndSplineSet
EndChar

StartChar: uni0D8D
Encoding: 325 3469 96
Width: 1024
VWidth: 0
LayerCount: 3
Fore
SplineSet
121.125 25.431640625 m 1
 22 102 l 1
 22 102 80.3671875 197.000976562 176.6015625 197.000976562 c 0
 255.916992188 197.000976562 294.985351562 134.997070312 370.547851562 134.997070312 c 0
 438.922851562 134.997070312 483 185.918945312 483 292 c 0
 483 308.90625 482.717773438 346.5390625 468.056640625 373.318359375 c 1
 553 471 l 1
 589.09329144 423.979083394 607.5 381.617136401 607.5 296 c 0
 607.5 127.852539062 518.315429688 -0.5 372 -0.5 c 0
 263.567382812 -0.5 225.163084394 66.1790993454 180.37890625 66.0009765625 c 0
 148.459960938 65.8740234375 121.125 25.431640625 121.125 25.431640625 c 1
790.112304688 522.221679688 m 1
 811.05859375 543.473632812 845.801757812 562.508789062 898.69140625 562.508789062 c 0
 899.36328125 562.508789062 900.038087068 562.505988727 900.715820312 562.5 c 0
 998.6328125 561.634765625 1064.15200766 512.181639534 1064.5 405 c 2
 1065 251 l 1
 925 251 l 1
 924.965820312 353.958984375 l 0
 924.72265625 398.55859375 918.578125 420.5 888.010742188 420.5 c 1
 859.423828125 420.416015625 852.611328125 397.26953125 852.575195312 351.994140625 c 0
 852 251 l 1
 716.889648438 251 l 1
 717.5 350.00390625 l 1
 717.5 403.5625 699.393556851 420.362613286 678.516601562 420.508789062 c 0
 650.482421875 420.705078125 650 410 645.82421875 406.888671875 c 1
 585.700195312 507.639648438 l 1
 590.253798588 516.168682082 615.391450049 562.508789062 696.270507812 562.508789062 c 0
 741.393554688 562.508789062 771.481445312 543.091796875 790.112304688 522.221679688 c 1
924.483398438 202 m 1
 1064 202 l 1
 1063.48339844 180.500976562 l 4
 1062.82617188 55.5576171875 960.697265625 -6.5 844.194335938 -6.5 c 0
 698.779296875 -6.5 626.5 68.6357421875 626.5 164 c 0
 626.483398438 202 l 1
 766.483398438 202 l 1
 766.5 187 l 0
 766.5 140.99609375 810.192382812 125.5 843 125.5 c 0
 878.420898438 125.5 924.5 135.9296875 924.5 185 c 0
 924.483398438 202 l 1
337.703125 472.751953125 m 0
 302.038085938 472.396484375 263.847694291 454.283202631 263.196289062 404.125 c 0
 263.194335938 403.974609375 263.193359375 403.823242188 263.193359375 403.670898438 c 0
 263.193359375 324.659179688 339.297851562 315.978515625 392.416992188 361 c 1
 392 232 l 1
 275.282226562 169.892578125 128 257.203125 128 391 c 0
 128 528.413085938 229.399191426 602.5 339 602.5 c 0
 362.102367912 602.5 397.464602126 601.001065341 423 592 c 1
 566.100585938 760.552734375 l 1
 665.025390625 674.79296875 l 1
 440 412 l 1
 417.125 448.265625 380.319335938 472.755859375 338.560546875 472.755859375 c 0
 338.275390625 472.755859375 337.989258599 472.754804981 337.703125 472.751953125 c 0
EndSplineSet
EndChar

StartChar: uni0D8E
Encoding: 326 3470 97
Width: 1024
VWidth: 0
LayerCount: 3
Fore
SplineSet
289 530 m 1xb8
 350.822773186 602 430 595 456 595 c 2
 475 595 l 2
 603 595 708 496 708 340 c 10
 708 218 l 2
 708 74.3681640625 661.16796875 -1.18992511919e-14 564 0 c 10
 508 0 l 1
 508 110 l 17x78
 602 114 584 151 584 233 c 2
 584 340 l 2
 584 409.995117188 534.168945312 470.538085938 473 472 c 2
 449.712890625 473 l 2
 430.379882812 473.830078125 393.985680801 474.884651874 335.850585938 407 c 2
 168 211 l 1
 184 177 218.03125 119.008789062 260 117.6484375 c 2
 283 117 l 18
 326 117 355 150.34375 355 197 c 10
 355 230 l 2
 355 271 296 273 296 273 c 1
 368 361 l 1
 421 360 475.064453125 291.9921875 475 247 c 2
 474.823242188 183 l 18
 474.362030053 16.0055335745 331 0 331 0 c 2
 246 0 l 2
 155 0 91 122 91 122 c 1
 67 93 l 1
 0.001953125 192 l 1
 205 431 l 1
 184.233398438 497 49 444 49 444 c 1
 49 561 l 17
 209 621 289 530 289 530 c 1xb8
EndSplineSet
EndChar

StartChar: uni0D8F
Encoding: 327 3471 98
Width: 1024
VWidth: 0
LayerCount: 3
Fore
SplineSet
419.3515625 460 m 1
 303.3515625 460 l 1
 302.864962687 485.36735026 283.174272751 499 266 499 c 0
 245.864769912 499 226.576985677 483.64078776 226 460 c 1
 99.3515625 460 l 1
 99.3515625 547.271484375 154.017578125 608.017578125 261.857421875 608.017578125 c 0
 357.809570312 608.017578125 419.3515625 547.587890625 419.3515625 460 c 1
187.41796875 -48 m 1
 187.41796875 -145.443240893 247.4141338 -216.752929688 357.103515625 -216.752929688 c 0
 430.13388788 -216.752929688 469.624466359 -175.620442514 485 -155 c 1
 413.103515625 -60 l 1
 404.413208356 -83.2994633122 385.464788437 -94.9841233744 364.497038407 -94.9197330538 c 0
 336.915988746 -94.8350338072 315.590820312 -71.3166571918 315.590820312 -48.1328125 c 1
 187.41796875 -48 l 1
160.999975457 218.243212719 m 0
 160.999975457 271.247795331 197.553868335 293.884765625 248.690429688 293.884765625 c 2
 419.309570312 293.884765625 l 1
 419.309570312 420.33984375 l 1
 224.553710938 420.33984375 l 2
 95.8367898047 420.33984375 18.6344542211 344.162208003 18.6344542211 222.985794185 c 0
 18.6344542211 100.795362143 102.525699669 0 212 0 c 0
 285 -0.1279296875 l 0
 342.146051358 0.571958725849 389.613362229 26.106035777 423 57 c 1
 352 170 l 1
 323.583333333 143.538461538 302.945023403 140 267 140 c 0
 191.155172414 140 160.999975457 177.595542657 160.999975457 218.243212719 c 0
EndSplineSet
EndChar

StartChar: uni0D90
Encoding: 328 3472 99
Width: 1024
VWidth: 0
LayerCount: 3
Fore
SplineSet
322.6484375 527.002929688 m 1
 385.219462814 593.699684669 470.08203125 603.04296875 503.612304688 603.04296875 c 0
 643.395507812 603.04296875 772.5 512.537856191 772.5 292 c 0
 772.5 73.0664648725 693.165796482 -7.5 556.5 -7.5 c 1
 556.5 124.450195312 l 1
 629.940809195 124.941340436 640.857421875 196.666015625 640.857421875 291.325195312 c 0
 640.857421875 404.294921875 591.385742188 468.618164062 509.727539062 468.618164062 c 0
 458.953125 468.618164062 431.966796875 453.319335938 391.705078125 406.131835938 c 0
 313 315 l 1
 267.39453125 258.862304688 214.611328125 204.614257812 185.116210938 203.903320312 c 1
 192.998046875 173.556640625 222.764648438 113.5 307 113.5 c 0
 365.180664062 113.5 405.504882812 160.462890625 405.504882812 214 c 4
 405.504882812 271.072265625 384.010742188 287.51171875 361.272460938 306.569335938 c 1
 438.375976562 396.611328125 l 1
 519.574868392 349.892385643 536.760742188 268.739257812 536.760742188 212.631835938 c 0
 536.760742188 19.8857421875 381.181640625 -11.5 311 -11.5 c 0
 28.4892578125 -11.5 27.5322265625 361.28515625 27.462890625 366 c 1
 145 366 l 1
 145.69921875 349.986328125 150.004882812 322.672851562 151.998046875 317.452148438 c 1
 179.032226562 317.90625 237.384801479 390.184617553 237.384801479 426.286351318 c 0
 237.384765625 426.34375 l 1
 228.870117188 453.583007812 200.879882812 463.997070312 174.498046875 463.997070312 c 0
 124.940149138 463.997070312 97.0850323104 437.030751444 86.5 429.861328125 c 1
 86.5 566.197265625 l 1
 125.310221005 580.754019199 163.635012097 588.372070312 193.924804688 588.372070312 c 0
 267.513671875 588.372070312 309.315429688 544.0703125 322.6484375 527.002929688 c 1
EndSplineSet
EndChar

StartChar: uni0D91
Encoding: 329 3473 100
Width: 1024
VWidth: 0
LayerCount: 3
Fore
SplineSet
589.765625 460.07421875 m 5x9e
 453.924804688 460.07421875 l 5
 453.7890625 483.635742188 436.721679688 498.4296875 416.05078125 498.4296875 c 4
 391.760742188 498.4296875 377.421875 479.086914062 377.036132812 460.07421875 c 5
 255.577148438 460.07421875 l 5
 255.41796875 479.34375 241.758789062 498.5 215.704101562 498.5 c 4
 192.71484375 498.5 178.689453125 478.234375 178.689453125 460.07421875 c 5
 42.748046875 460.07421875 l 5
 42.748046875 552.983398438 107.4765625 611.5 205.747070312 611.5 c 4
 251.221679688 611.5 288.85546875 600.646484375 316.194335938 580.581054688 c 5
 347.087890625 605.818359375 392.78125 612.5 427.094726562 612.5 c 4
 532.0625 612.5 589.765625 549.266601562 589.765625 460.07421875 c 5x9e
473.061523438 202 m 5
 613 202 l 5
 612.838299281 63.8536854144 497.652616273 -6.5 308.538085938 -6.5 c 4
 98.8042183465 -6.5 19.2318086078 96.4525875185 19.1494140625 202 c 5
 159 202 l 5
 159 138 242.925914283 122.5 314 122.5 c 4
 379.394043632 122.5 473 134 473.061523438 202 c 5
423 294.666992188 m 6
 214 294.666992188 l 6
 182.602539062 294.666992188 159 294.666992188 159 251 c 5
 19.8828125 251 l 5
 20 376 93.5791015625 414 159 414 c 6
 432 414 l 6
 539.998538966 414 613 377.132431075 613 251 c 5
 474 251 l 5
 474 294.666992188 452.228515625 294.666992188 423 294.666992188 c 6
EndSplineSet
EndChar

StartChar: uni0D92
Encoding: 330 3474 101
Width: 1024
VWidth: 0
LayerCount: 3
Fore
SplineSet
221.498046875 754.517578125 m 1
 221.498046875 615.587890625 l 1
 183.625 611.391601562 142.286132812 603.088867188 115.998046875 547.115234375 c 1
 15 632.145507812 l 1
 52.380859375 702.681640625 119.130859375 754.323242188 221.498046875 754.517578125 c 1
277.998046875 757 m 0
 422.164476018 756.001953125 560.762412044 692.971679688 561.26171875 411 c 0
 560.999023438 252 l 1
 560.859375 88.5 516.260742188 -6.5166015625 372.120117188 -6.5166015625 c 0
 279.325195312 -6.5166015625 206.999023438 39.693359375 206.999023438 138 c 0
 206.999023438 208.708984375 236.999023438 221.935546875 236.999023438 267 c 0
 236.999023438 299.96875 213.732421875 314 188 314 c 0
 142.31640625 314 131.689453125 261.373046875 131.689453125 223 c 0
 131.689453125 183.794921875 137.827148438 138.087890625 178.999023438 138 c 1
 177.999023438 0 l 1
 26.177734375 0 -2.8056640625 127.296875 -2.8056640625 224.260742188 c 0
 -2.8056640625 337.533203125 58.8447265625 452 208.999023438 452 c 0
 273.360351562 452 371.999023438 423.219726562 371.999023438 290 c 0
 371.999023438 242.033203125 340.999023438 201.934570312 340.999023438 173 c 0
 340.999023438 143.7109375 354.650390625 127 378.999023438 127 c 0
 415.725585938 127 418.97265625 185 418.98046875 252 c 2
 418.999023438 418 l 2
 419.016166249 571.368610947 333.677690565 613.198242188 277.998046875 613 c 0
 277.998046875 757 l 0
EndSplineSet
EndChar

StartChar: uni0D93
Encoding: 331 3475 102
Width: 1024
VWidth: 0
LayerCount: 3
Fore
SplineSet
183 360 m 0
 165.578896857 360 159.431228727 321.064579371 159.431228727 289.136951824 c 0
 159.431228727 215.368783904 209.692811071 141.211766207 290.498046875 140.5 c 1
 290.498046875 -5.5 l 1
 157.790039062 -5.5 36.7216796875 120.220703125 36.7216796875 259.768554688 c 0
 36.7216796875 395.870117188 92.7933181135 498.543632457 183.984208423 498.543632457 c 0
 246.356234597 498.543632457 282.954220379 465.689965103 283 388 c 0
 283.009723721 371.827506443 286.201921413 361.138671851 302 361.138671875 c 0
 319.035446537 361.238076377 320.495448082 380.8777331 320.495448082 400.680172475 c 0
 320.495448082 422.510852898 315.777378275 454.363732952 302 498 c 1
 412 498 l 1
 421.447600425 453.637354528 424.637597084 418.004904182 424.637597084 390.324765581 c 0
 424.637597084 310.236264971 391.415204375 251 305 251 c 0
 246.088625668 251 193.02125593 274.284957521 193.02125593 343.43056469 c 0
 193.02125593 349.406959414 192.320615584 360 183 360 c 0
290.498046875 754.517578125 m 1
 290.498046875 615.587890625 l 1
 252.625 611.391601562 211.286132812 603.088867188 184.998046875 547.115234375 c 1
 84 632.145507812 l 1
 121.380859375 702.681640625 188.130859375 754.323242188 290.498046875 754.517578125 c 1
345.498046875 615.708007812 m 1
 345.498046875 754.662109375 l 1
 560.84765625 754.489257812 594.5 547.458007812 594.5 366.627929688 c 0
 594.5 157.569335938 541.967773438 -4.8525390625 346.498046875 -5.0576171875 c 1
 346.498046875 139.919921875 l 1
 441.384765625 140.971679688 459.498046875 238.548828125 459.498046875 362 c 0
 459.498046875 518.208984375 436.915039062 606.91015625 345.498046875 615.708007812 c 1
EndSplineSet
EndChar

StartChar: uni0D94
Encoding: 332 3476 103
Width: 1024
VWidth: 0
LayerCount: 3
Fore
SplineSet
278.344726562 386.174804688 m 2xbe
 278.344726562 419.226924939 282.479700252 448.419262798 290.312972086 473.84506915 c 0
 328.60212898 598.126813638 453.847146555 628.683664136 602.123312727 582.776317132 c 0
 605.664535929 581.679929448 l 1
 604.962189181 452.005436591 l 1
 598.373544093 454.271930502 l 0
 564.123406409 466.053977865 534.546584737 472.477362605 509.824997592 474.197439515 c 0
 447.159439858 478.557579433 417.087237216 453.597144695 414.1938218 410.091692781 c 1xbe
 509.648882736 409.999998106 l 0
 618.368328688 409.905379836 628.0812053 326.396794372 628.994695807 256.039521891 c 0
 629.060456592 250.974609375 l 1
 505.464788798 250.974609375 l 1xde
 505.290380551 255.79377502 l 0
 504.383598474 280.849545767 503.029940778 296.78978428 462.318894374 297.000066731 c 0
 278.344726562 297.95057049 l 1
 278.344726562 386.174804688 l 2xbe
629.3515625 206 m 2
 629.3515625 36.7907883087 549.172083161 -11.1044921875 455.916992188 -11.1044921875 c 0
 409.23589939 -11.1044921875 368.477245433 2.15345344066 340.562760325 36.5362610917 c 1
 315.101998743 1.84464360781 272.125445428 -11.4248046875 234.544921875 -11.4248046875 c 0
 109.04888615 -11.4248046875 42.3515625 78.4008467047 42.3515625 206 c 0
 42.3515625 211 l 1
 170.995117188 211 l 1
 170.995117188 206 l 0
 170.995117188 141.06219986 193.768757279 117.181640625 223.575195312 117.181640625 c 0
 257.187344839 117.181640625 279.098387148 133.03969993 279.497088727 184.021905454 c 1
 279.570137025 261.575195312 l 1
 394.557044077 261.575195312 l 1
 394.374079209 186.016977709 l 1
 394.828357244 136.707246764 418.784685661 117.859556334 452.85388087 117.836912976 c 0
 488.661381356 117.813316313 505.3515625 144.443893019 505.3515625 206 c 0
 505.3515625 211 l 1
 629.3515625 211 l 1
 629.3515625 206 l 2
266.844726562 481.071554367 m 1
 246.673627452 480.780792801 l 0
 225.625760181 480.477398579 182.624311584 457.329322156 171.282743144 389.179131378 c 0
 169.625082295 379.219140597 170.316522502 353.831095545 170.463828227 316.600793178 c 0
 170.722902605 250.974609375 l 1
 42.952723733 250.974609375 l 1xde
 43.6202952033 330.042191546 l 0
 44.2888217257 409.264544935 54.4911603773 473.652536158 74.3047528453 500.937896286 c 0
 138.741431703 589.674877531 213.230930705 603.897422682 250.464920671 602.637767332 c 0
 266.844726562 602.083740412 l 1
 266.844726562 481.071554367 l 1
EndSplineSet
EndChar

StartChar: uni0D95
Encoding: 333 3477 104
Width: 1024
VWidth: 0
LayerCount: 3
Fore
SplineSet
287 -5 m 1
 287 126 l 1
 294.5 126 l 0
 352.028320312 126 361.5 167.228515625 361.5 242 c 0
 361.5 366 l 0
 361.5 468.513671875 286.751953125 477.0546875 228.94921875 477.5 c 0
 212.030273438 477.586914062 l 5
 288.532226562 602.587890625 l 1
 306.017578125 602.5 l 0
 408.908203125 602.252929688 492.5 500.470703125 492.5 366 c 0
 492.5 250 l 0
 492.5 68.591796875 400.598632812 -5 294.5 -5 c 0
 287 -5 l 1
224.5 -5 m 2
 127.850585938 -5 26.5 67.091796875 26.5 246 c 0
 26.5 417 l 0
 26.5 454.560546875 32.7698254341 515.338758514 36.884765625 526.478515625 c 0
 65.40625 603.690429688 146.902052883 705.966967443 184.038085938 769.293945312 c 0
 195.396484375 788.663085938 202.698242188 804.388671875 203.909179688 812.594726562 c 0
 204.854492188 819 l 1
 348 819 l 1
 347.827148438 811.331054688 l 0
 347.424804688 793.502929688 335.805664062 769.563476562 319.461914062 740.84375 c 1
 276.306640625 664.643554688 162.497070312 524.565429688 162.497070312 474.030273438 c 1
 162.770507812 439.701171875 l 1
 162.456054688 233.061523438 l 0
 162.456054688 164.822265625 183.735351562 126 224.5 126 c 0
 232 126 l 1
 232 -5 l 1
 224.5 -5 l 2
EndSplineSet
EndChar

StartChar: uni0D96
Encoding: 334 3478 105
Width: 1024
VWidth: 0
LayerCount: 3
Fore
SplineSet
538.40234375 0 m 1
 641.784179688 -87 l 1
 568.477539062 -201.938476562 438.771484375 -210.322265625 382 -210.513671875 c 1
 382 -64.525390625 l 1
 395.432617188 -63.955078125 485.173828125 -66.380859375 538.40234375 0 c 1
326.856445312 -63.1767578125 m 1
 327.0078125 -209.5 l 1
 179.901367188 -209.5 21.361328125 -49.94921875 21.361328125 200.4765625 c 0
 21.361328125 407.565429688 94.083984375 608.50390625 327 608.50390625 c 1
 327 465.096679688 l 1
 206.73046875 453.293945312 160 356.7734375 160 201 c 0
 160 -6.5458984375 286.2890625 -57.705078125 326.856445312 -63.1767578125 c 1
400.5390625 251.756835938 m 1
 400.40234375 213 l 0
 400.40234375 183.749023438 422.659179688 160.4296875 452.53515625 160.4296875 c 0
 505.94140625 160.4296875 514.834960938 212.342773438 514.834960938 276.75390625 c 0
 514.834960938 391.551757812 476.602539062 456.743164062 382 464.576171875 c 1
 382.060546875 609.305664062 l 1
 515.234375 609.305664062 651 520.189453125 651 279 c 0
 651 139.505859375 593.4375 23.5 452.5 23.5 c 0
 333.051757812 23.5 269.032226562 106.478515625 268.232421875 204 c 0
 268.107421875 219.232421875 268.053710938 235.819335938 268.053710938 251.5 c 1
 210.053710938 251.5 l 5
 210 366 l 1
 482 366 l 1
 482.053710938 251.5 l 1
 400.5390625 251.756835938 l 1
EndSplineSet
EndChar

StartChar: uni0D9A
Encoding: 335 3482 106
Width: 1024
VWidth: 0
LayerCount: 3
Fore
SplineSet
225.5 759.517578125 m 1
 225.5 628.587890625 l 1
 218.088867188 628.500976562 l 0
 179.643554688 628.012695312 136.627929688 611.459960938 114.125976562 537.66015625 c 0
 111.254882812 528.918945312 l 1
 1.9296875 591.552734375 l 1
 3.890625 597.389648438 l 0
 34.2919921875 691.232421875 117.170898438 759.25 217.982421875 759.5 c 0
 225.5 759.517578125 l 1
225.5 127.5 m 1
 225.5 -4.5 l 1
 218 -4.5 l 0
 78.7841796875 -4.5 18.5 82.841796875 18.5 183.049804688 c 0
 18.5 231.837890625 21.376953125 282.686523438 77.119140625 325.688476562 c 0
 109.2421875 350.46875 141.887695312 361.17578125 193.137695312 368.611328125 c 1
 173.4375 381.834960938 114.346679688 389.954101562 65.0556640625 365.29296875 c 0
 54.2001953125 359.861328125 l 1
 54.2001953125 487.671875 l 1
 59.6572265625 489.216796875 l 0
 128.940429688 508.827148438 224.416992188 508.595703125 274.360351562 472.901367188 c 0
 301.115234375 453.779296875 331.083007812 416.19140625 331.21875 349.166015625 c 0
 331.415039062 251.87109375 l 1
 323.971679688 251.799804688 l 0
 222.940429688 250.841796875 145.770507812 252.026367188 145.5 185.768554688 c 0
 145.37109375 153.452148438 172.896484375 127.5 218 127.5 c 0
 225.5 127.5 l 1
532.5 409.75 m 2
 532.5 310.349609375 l 0
 532.5 129.057617188 454.280273438 -4.443359375 288.002929688 -4.5 c 0
 280.5 -4.5029296875 l 1
 280.5 127.370117188 l 1
 287.869140625 127.499023438 l 0
 334.017578125 128.3359375 398.326171875 180.860351562 398.5 313.227539062 c 0
 398.849609375 408.06640625 l 0
 399.00390625 480.7734375 382.830078125 620.916015625 287.5859375 626.51171875 c 0
 280.5 626.903320312 l 1
 280.5 758.5 l 1
 288 758.5 l 0
 463.833984375 758.5 532.5 613.130859375 532.5 409.75 c 2
EndSplineSet
EndChar

StartChar: uni0D9B
Encoding: 336 3483 107
Width: 1024
VWidth: 0
LayerCount: 3
Fore
SplineSet
617.763671875 451.82421875 m 2
 617.763671875 442.07421875 l 1
 496.922851562 442.07421875 l 1
 496.901367188 451.801757812 l 0
 496.83984375 480.123046875 489.51171875 487.4296875 455.048828125 487.4296875 c 0
 418.982421875 487.4296875 415.62109375 471.184570312 415.220703125 450.633789062 c 0
 415.034179688 441.07421875 l 1
 287.575195312 441.07421875 l 1
 287.553710938 450.801757812 l 0
 287.498046875 476.438476562 273.893554688 486.354492188 245.702148438 486.354492188 c 0
 210.1953125 486.354492188 206.158203125 466.243164062 205.874023438 451.633789062 c 0
 205.6875 442.07421875 l 1
 78.74609375 442.07421875 l 1
 78.74609375 451.82421875 l 0
 78.74609375 546.989257812 151.100585938 610.138671875 245.745117188 610.138671875 c 0
 288.52734375 610.138671875 323.799804688 597.678710938 349.193359375 577.595703125 c 1
 378.7578125 599.115234375 414.412109375 610.138671875 455.092773438 610.138671875 c 0
 557.547851562 610.138671875 617.763671875 541.142578125 617.763671875 451.82421875 c 2
651.498046875 220 m 0
 651.498046875 81.6953125 506.463867188 -6.33203125 359.006835938 -6.5 c 0
 149.283203125 -6.73828125 49.498046875 79.9921875 49.498046875 225 c 0
 49.498046875 348.905273438 158.155273438 413.5 227.998046875 413.5 c 0
 349.270507812 413.5 l 1
 250 296 l 1
 232.374023438 295.986328125 l 0
 216.727539062 296.305664062 180.14453125 290.734375 179.498046875 225.924804688 c 0
 178.616210938 137.484375 274.059570312 124.5 362.998046875 124.5 c 0
 427.965820312 124.5 528.228515625 148.630859375 531.6796875 218.91015625 c 0
 533.890625 263.932617188 525.694335938 297.875 454.078125 301 c 1
 403 242.556640625 l 1
 375.670898438 205.463867188 376.690429688 189.102539062 376.498046875 163.92578125 c 0
 377.424804688 156.569335938 l 1
 267.498046875 155.428710938 l 1
 267.498046875 163 l 0
 267.498046875 208.432617188 280.543945312 251.2265625 311 288 c 0
 419.837890625 413.716796875 l 1
 423.547851562 413.485351562 l 2
 620.327148438 401.208984375 651.498046875 310.793945312 651.498046875 220 c 0
EndSplineSet
EndChar

StartChar: uni0D9C
Encoding: 337 3484 108
Width: 1024
VWidth: 0
LayerCount: 3
Fore
SplineSet
649.765625 460.07421875 m 1x9e
 513.924804688 460.07421875 l 1
 513.7890625 483.635742188 496.721679688 498.4296875 476.05078125 498.4296875 c 0
 451.760742188 498.4296875 437.421875 479.086914062 437.036132812 460.07421875 c 1
 315.577148438 460.07421875 l 1
 315.41796875 479.34375 301.758789062 498.5 275.704101562 498.5 c 0
 252.71484375 498.5 238.689453125 478.234375 238.689453125 460.07421875 c 1
 102.748046875 460.07421875 l 1
 102.748046875 552.983398438 167.4765625 611.5 265.747070312 611.5 c 0
 311.221679688 611.5 348.85546875 600.646484375 376.194335938 580.581054688 c 1
 407.087890625 605.818359375 451.78125 612.5 486.094726562 612.5 c 0
 591.0625 612.5 649.765625 549.266601562 649.765625 460.07421875 c 1x9e
66 294.666992188 m 1xbe
 26 294.666992188 l 1
 26 414 l 1xbe
 559 414 l 2
 617.71484375 414 692.5 409.500976562 692.5 251 c 1
 553.5 251 l 1xde
 553.5 286.955078125 545.411132812 294.752929688 517 294.666992188 c 2
 242 294.666992188 l 2xbe
 209.077148438 294.666992188 201.5 288.9375 201.5 251 c 1
 63.5 251 l 1xde
 63.5 266.8671875 64.1025390625 281.74609375 66 294.666992188 c 1xbe
502.892578125 -5.609375 m 0
 451.500976562 -5.609375 407.649414062 8.8251953125 379.182617188 39.3291015625 c 1
 349.069335938 6.0595703125 299.875976562 -6.5 257.193359375 -6.5 c 0
 126.278320312 -6.5 63 79.2783203125 63 202 c 1
 202 202 l 1
 202 194.5 l 0
 202 140.5234375 234.313476562 126 260 126 c 0
 282.788085938 126 315.091796875 140.328125 315.5 191.041015625 c 1
 316.022460938 251 l 1
 439 251 l 1xde
 438.5 193.021484375 l 1
 438.986328125 144.234375 467.142578125 126.359375 498.50390625 126.336914062 c 0
 498.541992188 126.336914062 l 0
 525.264648438 126.336914062 554 146.625976562 554 194.5 c 0
 554 202 l 1
 693 202 l 1
 693 51.212890625 605.069335938 -5.609375 502.892578125 -5.609375 c 0
EndSplineSet
EndChar

StartChar: uni0D9D
Encoding: 338 3485 109
Width: 1024
VWidth: 0
LayerCount: 3
Fore
SplineSet
700 254 m 1
 806 166 l 1
 777.682080925 91.7328244275 691.915824313 24.9332276161 593 25 c 0
 392.772080374 25.1357421875 339.191958716 143.45490579 338.000976562 228 c 1
 451 318 l 1
 451 199.427901842 515.439655688 170 578 170 c 0
 645.443319238 170 678.641622121 186.816149964 700 254 c 1
843 412 m 1
 843 288 l 1
 457 288 l 2
 367.899648437 288 362 128 362 128 c 1
 362.013441938 18.2099609375 455.905381143 -57.2734375 578.04296875 -57.2734375 c 0
 667.446333063 -57.2734375 755.73289436 -31.2298994227 805 78 c 1
 912 -10 l 1
 829.201171875 -187.111328125 657.366210938 -207.009765625 598.6875 -207.009765625 c 0
 361.53125 -207.009765625 216 -97.6845703125 216 126 c 0
 216 322.407226562 336.540039829 410.544655287 495 411 c 2
 843 412 l 1
844.765625 460.07421875 m 1
 708.924804688 460.07421875 l 1
 708.7890625 483.635742188 691.721679688 498.4296875 671.05078125 498.4296875 c 0
 646.760742188 498.4296875 632.421875 479.086914062 632.036132812 460.07421875 c 1
 510.577148438 460.07421875 l 1
 510.41796875 479.34375 496.758789062 498.5 470.704101562 498.5 c 0
 447.71484375 498.5 433.689453125 478.234375 433.689453125 460.07421875 c 1
 434 460.07421875 l 1
 298 409.07421875 l 1
 297.748046875 460.07421875 l 1
 297.748046875 552.983398438 362.4765625 611.5 460.747070312 611.5 c 0
 506.221679688 611.5 543.85546875 600.646484375 571.194335938 580.581054688 c 1
 602.087890625 605.818359375 646.78125 612.5 681.094726562 612.5 c 0
 786.0625 612.5 844.765625 549.266601562 844.765625 460.07421875 c 1
EndSplineSet
EndChar

StartChar: uni0D9E
Encoding: 339 3486 110
Width: 1024
VWidth: 0
LayerCount: 3
Fore
SplineSet
34.8251953125 602.874023438 m 1
 268.87890625 602.874023438 l 1
 269 471 l 1
 212.293945312 398.892578125 155 326.677734375 155 217 c 0
 155 106.9453125 247.663085938 121.098632812 273 129 c 1
 273 7 l 1
 191 -13.3818359375 108.318359375 12.6396484375 65 66 c 0
 -21.7021484375 170.298828125 49.9453125 380.045898438 111.279296875 464.561523438 c 1
 34.8232421875 464.561523438 l 1
 34.8251953125 602.874023438 l 1
EndSplineSet
EndChar

StartChar: uni0D9F
Encoding: 340 3487 111
Width: 1024
VWidth: 0
LayerCount: 3
Fore
SplineSet
105 540 m 0
 -7 540 l 4
 -5.552734375 559.34375 -6 595.937349531 -6 618 c 0
 -6 670 -65.3369140625 676 -140 676 c 0
 -217.341796875 676 -277 643.231445312 -277 608 c 0
 -277 549.78125 -278 540 -278 540 c 1
 -390 540 l 1
 -390 560 -391 591.814064947 -391 618 c 0
 -391 741.171512963 -270 780 -140 780 c 0
 -15.7978515625 780 106 753 106 628 c 0
 106 590.223632812 105.575195312 553.360351562 105 540 c 0
EndSplineSet
EndChar

StartChar: uni0DA0
Encoding: 341 3488 112
Width: 1024
VWidth: 0
LayerCount: 3
Fore
SplineSet
121.125 25.431640625 m 1
 22 102 l 1
 22 102 80.3671875 197.000976562 176.6015625 197.000976562 c 0
 255.916992188 197.000976562 294.985351562 134.997070312 370.547851562 134.997070312 c 0
 438.922851562 134.997070312 483 185.918945312 483 292 c 0
 483 308.90625 482.717773438 346.5390625 468.056640625 373.318359375 c 1
 553 471 l 1
 589.09375 423.979492188 607.5 381.6171875 607.5 296 c 0
 607.5 127.852539062 518.315429688 -0.5 372 -0.5 c 0
 263.567382812 -0.5 225.163085938 66.1787109375 180.37890625 66.0009765625 c 0
 148.459960938 65.8740234375 121.125 25.431640625 121.125 25.431640625 c 1
790.112304688 522.221679688 m 1
 811.05859375 543.473632812 845.801757812 562.508789062 898.69140625 562.508789062 c 0
 899.36328125 562.508789062 900.038085938 562.505859375 900.715820312 562.5 c 0
 998.6328125 561.634765625 1064.15234375 512.181640625 1064.5 405 c 2
 1065 251 l 1
 925 251 l 1
 924.965820312 353.958984375 l 0
 924.72265625 398.55859375 918.578125 420.5 888.010742188 420.5 c 1
 859.423828125 420.416015625 852.611328125 397.26953125 852.575195312 351.994140625 c 0
 852 251 l 1
 716.889648438 251 l 1
 717.5 350.00390625 l 1
 717.5 403.5625 699.393554688 420.362304688 678.516601562 420.508789062 c 0
 650.482421875 420.705078125 650 410 645.82421875 406.888671875 c 1
 585.700195312 507.639648438 l 1
 590.25390625 516.168945312 615.391601562 562.508789062 696.270507812 562.508789062 c 0
 741.393554688 562.508789062 771.481445312 543.091796875 790.112304688 522.221679688 c 1
924.483398438 202 m 1
 1064 202 l 1
 1063.48339844 180.500976562 l 0
 1062.82617188 55.5576171875 960.697265625 -6.5 844.194335938 -6.5 c 0
 698.779296875 -6.5 626.5 68.6357421875 626.5 164 c 0
 626.483398438 202 l 1
 766.483398438 202 l 1
 766.5 187 l 0
 766.5 140.99609375 810.192382812 125.5 843 125.5 c 0
 878.420898438 125.5 924.5 135.9296875 924.5 185 c 0
 924.483398438 202 l 1
337.703125 472.751953125 m 0
 302.038085938 472.396484375 263.84765625 454.283203125 263.196289062 404.125 c 0
 263.194335938 403.974609375 263.193359375 403.823242188 263.193359375 403.670898438 c 0
 263.193359375 324.659179688 339.297851562 315.978515625 392.416992188 361 c 1
 392 232 l 1
 275.282226562 169.892578125 128 257.203125 128 391 c 0
 128 528.413085938 229.399414062 602.5 339 602.5 c 0
 362.102539062 602.5 397.46484375 601.000976562 423 592 c 1
 566.100585938 760.552734375 l 1
 665.025390625 674.79296875 l 1
 440 412 l 1
 417.125 448.265625 380.319335938 472.755859375 338.560546875 472.755859375 c 0
 338.275390625 472.755859375 337.989257812 472.754882812 337.703125 472.751953125 c 0
1055 467 m 0
 951 467 l 0
 963.447265625 486.34375 967 522.9375 967 545 c 0
 967 597 987.663085938 673 913 673 c 0
 835.658203125 673 776 640.231445312 776 605 c 0
 776 546.78125 785 537 785 537 c 1
 683 537 l 1
 667 557 662 588.814453125 662 615 c 0
 662 738.171875 783 777 913 777 c 0
 1037.20214844 777 1079 680 1079 555 c 0
 1079 517.223632812 1065.57519531 476.360351562 1055 467 c 0
EndSplineSet
EndChar

StartChar: NameMe.7
Encoding: 342 -1 113
Width: 1185
VWidth: 0
Flags: HW
LayerCount: 3
Back
SplineSet
345 289 m 1
 345 417 l 1
 375.115234375 425.5703125 396.392578125 452.977539062 396.392578125 486.106445312 c 0
 396.392578125 526.25390625 364.6484375 558 324.5 558 c 0
 284.352539062 558 252.606445312 526.25390625 252.606445312 486.106445312 c 0
 252.606445312 452.735351562 274.540039062 425.169921875 305 416.815429688 c 1
 305 289 l 1
 209 289 128 386 128 457 c 0
 128 504 l 2
 128 585.506835938 227.786132812 682.161132812 321.5 683 c 0
 437.982421875 684.04296875 521.5 601.078125 521.5 510 c 2
 521.5 457 l 2
 521.5 398 437 289 345 289 c 1
345 125 m 17
 1145.5 125 l 1
 1145.5 0 l 1
 345 0 l 1
 345 125 l 17
305 0 m 1
 206.5 0 l 0
 137.125976562 0 146 72.3330078125 146 125 c 1
 305 125 l 1
 305 0 l 1
570 393 m 9
 696 393 l 1
 696 347 l 2
 696.797851562 250.419921875 665.166015625 145 466.5 145 c 0
 414.293945312 145 281.517578125 144.801757812 271.5 144.592773438 c 1
 271.5 131.11328125 271.5 110 271.5 110 c 0
 271.602539062 65 146.01953125 70 146 116 c 0
 146 168 l 0
 146.548828125 231.157226562 165.025390625 270 229.5 270 c 2
 434.5 270 l 0
 554.5 270.5546875 570 273.934570312 570 347 c 0
 570 393 l 9
570 433 m 17
 570 468 l 0
 570 556 498.235351562 597 416 597 c 0
 321 597 249.5 556 249.5 470 c 1
 128 470 l 1
 128 496 l 0
 128 623 257.49609375 720.979492188 416 721 c 1
 585.377929688 721 696 626.788085938 696 468 c 0
 696 433 l 1
 570 433 l 17
696 468 m 1049
EndSplineSet
Fore
SplineSet
345 289 m 1
 345 417 l 1
 375.115234375 425.5703125 396.392578125 452.977539062 396.392578125 486.106445312 c 0
 396.392578125 526.25390625 364.6484375 558 324.5 558 c 0
 284.352539062 558 252.606445312 526.25390625 252.606445312 486.106445312 c 0
 252.606445312 452.735351562 274.540039062 425.169921875 305 416.815429688 c 1
 305 289 l 1
 209 289 128 386 128 457 c 0
 128 504 l 2
 128 585.506835938 227.786132812 682.161132812 321.5 683 c 0
 437.982421875 684.04296875 521.5 601.078125 521.5 510 c 2
 521.5 457 l 2
 521.5 398 437 289 345 289 c 1
345 125 m 17
 1145.5 125 l 1
 1145.5 0 l 1
 345 0 l 1
 345 125 l 17
305 0 m 1
 206.5 0 l 0
 137.125976562 0 146 72.3330078125 146 125 c 1
 305 125 l 1
 305 0 l 1
570 393 m 9
 696 393 l 1
 696 347 l 2
 696.797851562 250.419921875 665.166015625 145 466.5 145 c 0
 414.293945312 145 281.517578125 144.801757812 271.5 144.592773438 c 1
 271.5 131.11328125 271.5 110 271.5 110 c 0
 271.602539062 65 146.01953125 70 146 116 c 0
 146 168 l 0
 146.548828125 231.157226562 165.025390625 270 229.5 270 c 2
 434.5 270 l 0
 554.5 270.5546875 570 273.934570312 570 347 c 0
 570 393 l 9
570 433 m 17
 570 468 l 0
 570 556 498.235351562 597 416 597 c 0
 321 597 249.5 556 249.5 470 c 1
 128 470 l 1
 128 496 l 0
 128 623 257.49609375 720.979492188 416 721 c 1
 585.377929688 721 696 626.788085938 696 468 c 0
 696 433 l 1
 570 433 l 17
696 468 m 1049
EndSplineSet
EndChar

StartChar: NameMe.8
Encoding: 343 -1 114
Width: 1594
VWidth: 0
Flags: HW
LayerCount: 3
Back
SplineSet
345 289 m 1
 345 417 l 1
 375.115234375 425.5703125 396.392578125 452.977539062 396.392578125 486.106445312 c 0
 396.392578125 526.25390625 364.6484375 558 324.5 558 c 0
 284.352539062 558 252.606445312 526.25390625 252.606445312 486.106445312 c 0
 252.606445312 452.735351562 274.540039062 425.169921875 305 416.815429688 c 1
 305 289 l 1
 209 289 128 386 128 457 c 0
 128 504 l 2
 128 585.506835938 227.786132812 682.161132812 321.5 683 c 0
 437.982421875 684.04296875 521.5 601.078125 521.5 510 c 2
 521.5 457 l 2
 521.5 398 437 289 345 289 c 1
345 125 m 17
 1502.5 125 l 1
 1502.5 0 l 1
 345 0 l 1
 345 125 l 17
305 0 m 1
 206.5 0 l 0
 137.125976562 0 146 72.3330078125 146 125 c 1
 305 125 l 1
 305 0 l 1
570 393 m 9
 696 393 l 1
 696 347 l 2
 696.797851562 250.419921875 665.166015625 145 466.5 145 c 0
 414.293945312 145 281.517578125 144.801757812 271.5 144.592773438 c 1
 271.5 131.11328125 271.5 110 271.5 110 c 0
 271.602539062 65 146.01953125 70 146 116 c 0
 146 168 l 0
 146.548828125 231.157226562 165.025390625 270 229.5 270 c 2
 434.5 270 l 0
 554.5 270.5546875 570 273.934570312 570 347 c 0
 570 393 l 9
570 433 m 17
 570 468 l 0
 570 556 498.235351562 597 416 597 c 0
 321 597 249.5 556 249.5 470 c 1
 128 470 l 1
 128 496 l 0
 128 623 257.49609375 720.979492188 416 721 c 1
 585.377929688 721 696 626.788085938 696 468 c 0
 696 433 l 1
 570 433 l 17
696 468 m 1049
986.495117188 652.178710938 m 1
 986.166015625 550.25 l 0
 983.041992188 550.25 l 0
 925.336914062 550.25 873.551757812 509.97265625 873.551757812 427.772460938 c 0
 873.551757812 379.947265625 767.314453125 367.411132812 762.581054688 342.284179688 c 1
 762.581054688 424.484375 l 1
 762.581054688 509.149414062 829.985351562 652.115234375 985.342773438 652.178710938 c 0
 986.495117188 652.178710938 l 1
946.709960938 152.40234375 m 1
 946.709960938 255.48046875 l 0
 981.561523438 256.301757812 992.740234375 278.666015625 992.145507812 304.47265625 c 0
 991.624023438 327.134765625 977.623046875 350.8359375 946.709960938 351.654296875 c 1
 946.709960938 454.8984375 l 0
 1042.31542969 455.147460938 1094.66894531 391.193359375 1094.79980469 340.559570312 c 0
 1094.89160156 305.130859375 1094.72558594 333.818359375 1095.64648438 267.40234375 c 0
 1096.38671875 213.977539062 1044.88378906 153.94140625 946.709960938 152.40234375 c 1
1019.375 551.072265625 m 1
 1021.51171875 551.072265625 l 2
 1074.94140625 551.072265625 1126.39746094 503.067382812 1127.54980469 450.788085938 c 1
 1128.37109375 152.40234375 l 1
 1234.41015625 152.40234375 l 1
 1230.29980469 451.1171875 l 1
 1229.4765625 534.303710938 1167.82714844 653 1019.8671875 653 c 2
 1019.375 653 l 1
 1019.375 551.072265625 l 1
913.006835938 454.8984375 m 1
 913.006835938 351.654296875 l 0
 882.921875 350.010742188 867.469726562 328.620117188 867.469726562 304.47265625 c 0
 867.469726562 277.838867188 879.633789062 255.48046875 913.006835938 255.48046875 c 1
 913.006835938 152.40234375 l 0
 817.401367188 152.40234375 764.200195312 214.876953125 763.731445312 265.509765625 c 0
 763.40234375 301.184570312 762.920898438 270.764648438 762.416992188 337.844726562 c 0
 761.759765625 425.305664062 865.331054688 454.8984375 913.006835938 454.8984375 c 1
1353.59960938 152.40234375 m 1
 1456.34960938 152.40234375 l 1
 1456.34960938 635.616210938 l 1
 1353.59960938 635.616210938 l 1
 1353.59960938 152.40234375 l 1
1323.18554688 653 m 1
 1323.18554688 549.428710938 l 1
 1518 549.428710938 l 1
 1518 653 l 1
 1323.18554688 653 l 1
1290.30566406 653 m 1
 1277.97558594 653 1282.0859375 653 1263.1796875 653 c 0
 1137.84667969 653.000976562 1127.54980469 510.033203125 1127.54980469 439.280273438 c 1
 1230.29980469 439.609375 l 1
 1230.29980469 494.354492188 1238.51953125 549.428710938 1290.30566406 549.428710938 c 1
 1290.30566406 653 l 1
EndSplineSet
Fore
SplineSet
345 289 m 1
 345 417 l 1
 375.115234375 425.5703125 396.392578125 452.977539062 396.392578125 486.106445312 c 0
 396.392578125 526.25390625 364.6484375 558 324.5 558 c 0
 284.352539062 558 252.606445312 526.25390625 252.606445312 486.106445312 c 0
 252.606445312 452.735351562 274.540039062 425.169921875 305 416.815429688 c 1
 305 289 l 1
 209 289 128 386 128 457 c 0
 128 504 l 2
 128 585.506835938 227.786132812 682.161132812 321.5 683 c 0
 437.982421875 684.04296875 521.5 601.078125 521.5 510 c 2
 521.5 457 l 2
 521.5 398 437 289 345 289 c 1
345 125 m 17
 1502.5 125 l 1
 1502.5 0 l 1
 345 0 l 1
 345 125 l 17
305 0 m 1
 206.5 0 l 0
 137.125976562 0 146 72.3330078125 146 125 c 1
 305 125 l 1
 305 0 l 1
570 393 m 9
 696 393 l 1
 696 347 l 2
 696.797851562 250.419921875 665.166015625 145 466.5 145 c 0
 414.293945312 145 281.517578125 144.801757812 271.5 144.592773438 c 1
 271.5 131.11328125 271.5 110 271.5 110 c 0
 271.602539062 65 146.01953125 70 146 116 c 0
 146 168 l 0
 146.548828125 231.157226562 165.025390625 270 229.5 270 c 2
 434.5 270 l 0
 554.5 270.5546875 570 273.934570312 570 347 c 0
 570 393 l 9
570 433 m 17
 570 468 l 0
 570 556 498.235351562 597 416 597 c 0
 321 597 249.5 556 249.5 470 c 1
 128 470 l 1
 128 496 l 0
 128 623 257.49609375 720.979492188 416 721 c 1
 585.377929688 721 696 626.788085938 696 468 c 0
 696 433 l 1
 570 433 l 17
696 468 m 1049
986.495117188 652.178710938 m 1
 986.166015625 550.25 l 0
 983.041992188 550.25 l 0
 925.336914062 550.25 873.551757812 509.97265625 873.551757812 427.772460938 c 0
 873.551757812 379.947265625 767.314453125 367.411132812 762.581054688 342.284179688 c 1
 762.581054688 424.484375 l 1
 762.581054688 509.149414062 829.985351562 652.115234375 985.342773438 652.178710938 c 0
 986.495117188 652.178710938 l 1
946.709960938 152.40234375 m 1
 946.709960938 255.48046875 l 0
 981.561523438 256.301757812 992.740234375 278.666015625 992.145507812 304.47265625 c 0
 991.624023438 327.134765625 977.623046875 350.8359375 946.709960938 351.654296875 c 1
 946.709960938 454.8984375 l 0
 1042.31542969 455.147460938 1094.66894531 391.193359375 1094.79980469 340.559570312 c 0
 1094.89160156 305.130859375 1094.72558594 333.818359375 1095.64648438 267.40234375 c 0
 1096.38671875 213.977539062 1044.88378906 153.94140625 946.709960938 152.40234375 c 1
1019.375 551.072265625 m 1
 1021.51171875 551.072265625 l 2
 1074.94140625 551.072265625 1126.39746094 503.067382812 1127.54980469 450.788085938 c 1
 1128.37109375 152.40234375 l 1
 1234.41015625 152.40234375 l 1
 1230.29980469 451.1171875 l 1
 1229.4765625 534.303710938 1167.82714844 653 1019.8671875 653 c 2
 1019.375 653 l 1
 1019.375 551.072265625 l 1
913.006835938 454.8984375 m 1
 913.006835938 351.654296875 l 0
 882.921875 350.010742188 867.469726562 328.620117188 867.469726562 304.47265625 c 0
 867.469726562 277.838867188 879.633789062 255.48046875 913.006835938 255.48046875 c 1
 913.006835938 152.40234375 l 0
 817.401367188 152.40234375 764.200195312 214.876953125 763.731445312 265.509765625 c 0
 763.40234375 301.184570312 762.920898438 270.764648438 762.416992188 337.844726562 c 0
 761.759765625 425.305664062 865.331054688 454.8984375 913.006835938 454.8984375 c 1
1353.59960938 152.40234375 m 1
 1456.34960938 152.40234375 l 1
 1456.34960938 635.616210938 l 1
 1353.59960938 635.616210938 l 1
 1353.59960938 152.40234375 l 1
1323.18554688 653 m 1
 1323.18554688 549.428710938 l 1
 1518 549.428710938 l 1
 1518 653 l 1
 1323.18554688 653 l 1
1290.30566406 653 m 1
 1277.97558594 653 1282.0859375 653 1263.1796875 653 c 0
 1137.84667969 653.000976562 1127.54980469 510.033203125 1127.54980469 439.280273438 c 1
 1230.29980469 439.609375 l 1
 1230.29980469 494.354492188 1238.51953125 549.428710938 1290.30566406 549.428710938 c 1
 1290.30566406 653 l 1
EndSplineSet
EndChar

StartChar: NameMe.10
Encoding: 344 -1 115
Width: 764
VWidth: 0
Flags: HW
LayerCount: 3
Back
SplineSet
624 606 m 1
 622 1 l 2
 470 -180 l 1
 323 -180 l 1
 496 32.865234375 l 1
 496 606 l 1
 624 606 l 1
724.208007812 608 m 1
 724.208007812 483 l 1
 358.208007812 483 l 1
 358.208007812 608 l 1
 724.208007812 608 l 1
263.208007812 1 m 1
 263.208007812 126.399414062 l 0
 305.607421875 127.399414062 319.20703125 154.606445312 318.484375 186 c 0
 317.849609375 213.5703125 300.815429688 242.403320312 263.208007812 243.399414062 c 1
 263.208007812 369 l 0
 379.516601562 369.303710938 443.84375 291.500976562 444.00390625 229.901367188 c 0
 444.00390625 140.903320312 l 0
 444.904296875 75.91015625 382.641601562 2.8720703125 263.208007812 1 c 1
311.608398438 608 m 1
 311.208007812 483 l 0
 307.408203125 483 l 0
 221.208007812 483 181.208007812 413 174.208007812 337 c 0
 168.872070312 279.064453125 45.7626953125 263.567382812 40.00390625 233 c 1
 40.00390625 288 l 1
 40.00390625 405 103.208007812 608 310.208007812 608 c 0
 311.608398438 608 l 1
222.208007812 369 m 1
 222.208007812 243.399414062 l 0
 185.607421875 241.399414062 166.80859375 215.377929688 166.80859375 186 c 0
 166.80859375 153.600585938 181.607421875 126.399414062 222.208007812 126.399414062 c 1
 222.208007812 1 l 0
 105.8984375 1 40.572265625 77.0029296875 40.00390625 138.599609375 c 0
 40.00390625 226.599609375 l 0
 39.2041015625 333 164.208007812 369 222.208007812 369 c 1
EndSplineSet
Fore
SplineSet
624 606 m 1
 622 1 l 2
 470 -180 l 1
 323 -180 l 1
 496 32.865234375 l 1
 496 606 l 1
 624 606 l 1
724.208007812 608 m 1
 724.208007812 483 l 1
 358.208007812 483 l 1
 358.208007812 608 l 1
 724.208007812 608 l 1
263.208007812 1 m 1
 263.208007812 126.399414062 l 0
 305.607421875 127.399414062 319.20703125 154.606445312 318.484375 186 c 0
 317.849609375 213.5703125 300.815429688 242.403320312 263.208007812 243.399414062 c 1
 263.208007812 369 l 0
 379.516601562 369.303710938 443.84375 291.500976562 444.00390625 229.901367188 c 0
 444.00390625 140.903320312 l 0
 444.904296875 75.91015625 382.641601562 2.8720703125 263.208007812 1 c 1
311.608398438 608 m 1
 311.208007812 483 l 0
 307.408203125 483 l 0
 221.208007812 483 181.208007812 413 174.208007812 337 c 0
 168.872070312 279.064453125 45.7626953125 263.567382812 40.00390625 233 c 1
 40.00390625 288 l 1
 40.00390625 405 103.208007812 608 310.208007812 608 c 0
 311.608398438 608 l 1
222.208007812 369 m 1
 222.208007812 243.399414062 l 0
 185.607421875 241.399414062 166.80859375 215.377929688 166.80859375 186 c 0
 166.80859375 153.600585938 181.607421875 126.399414062 222.208007812 126.399414062 c 1
 222.208007812 1 l 0
 105.8984375 1 40.572265625 77.0029296875 40.00390625 138.599609375 c 0
 40.00390625 226.599609375 l 0
 39.2041015625 333 164.208007812 369 222.208007812 369 c 1
EndSplineSet
EndChar

StartChar: NameMe.11
Encoding: 345 -1 116
Width: 1028
VWidth: 0
Flags: HW
LayerCount: 3
Back
SplineSet
726 288 m 17
 738 288 l 0
 811 288 804 361 804 419 c 1
 804 459 l 1
 804 524.2734375 782.453125 567.356445312 726 574.836914062 c 1
 726 700 l 1
 838.70703125 692.204101562 931 611.495117188 931 459 c 1
 931 396 l 0
 928.830078125 222.603515625 834.749023438 161.504882812 753 162 c 0
 726 162 l 1
 726 288 l 17
686 287 m 0
 267 287 l 0
 126.8828125 286.591796875 55 167.817382812 55 85 c 0
 55 11 l 0
 55 -80 158 -184 268 -184 c 0
 299 -184 l 1
 299 -59 l 17
 267 -59 l 0
 207 -58.888671875 180 -3.5341796875 180 47 c 0
 180 95 200 161 260 161 c 0
 686 162 l 1
 686 287 l 0
686 574.098632812 m 1
 638.224609375 565.74609375 595.784179688 529.6875 596 462 c 0
 596 380 l 1
 471 380 l 1
 471 479 l 0
 471 615.166992188 583.443359375 690.477539062 686 700 c 1
 686 574.098632812 l 1
257 314 m 1
 257 442 l 1
 287.115234375 450.5703125 308.392578125 477.977539062 308.392578125 511.106445312 c 0
 308.392578125 551.25390625 276.6484375 583 236.5 583 c 0
 196.352539062 583 164.606445312 551.25390625 164.606445312 511.106445312 c 0
 164.606445312 477.735351562 186.540039062 450.169921875 217 441.815429688 c 1
 217 314 l 1
 121 314 40 411 40 482 c 0
 41 508 l 2
 41 595.506835938 137.5 690 233 702 c 0
 348.578125 716.522460938 433.5 602.078125 433.5 511 c 2
 433.5 482 l 2
 433.5 420 349 314 257 314 c 1
471 328 m 17
 471 418 l 0
 471 556 359.235351562 596 310 596 c 0
 268 596 161.5 602 161.5 495 c 1
 40 483 l 1
 40 494 l 0
 40 550 73 713 307 713 c 1
 467.377929688 713 596 626.788085938 596 418 c 0
 596 328 l 1
 471 328 l 17
726 -184 m 1
 756 -184 l 2
 866 -184 927 -75.0341796875 927 -3 c 2
 927 121 l 1
 802 121 l 1
 802 -2.8349609375 l 2
 802 -35.931640625 777.952148438 -57.19140625 744 -58 c 0
 726 -58 l 9
 726 -184 l 1
686 -184 m 1
 668 -184 l 0
 619.750976562 -184 552 -175 539 -133 c 1
 522 -170 458 -184 400 -184 c 0
 338 -184 l 1
 338 -59 l 1
 387 -59 l 0
 445 -59 471 -45 471 -3.8349609375 c 0
 471 121 l 0
 596 121 l 0
 596 -3.8349609375 l 2
 596 -43.3076171875 622.022460938 -57.3232421875 668 -58 c 0
 686 -58 l 1
 686 -184 l 1
EndSplineSet
Fore
SplineSet
726 288 m 17
 738 288 l 0
 811 288 804 361 804 419 c 1
 804 459 l 1
 804 524.2734375 782.453125 567.356445312 726 574.836914062 c 1
 726 700 l 1
 838.70703125 692.204101562 931 611.495117188 931 459 c 1
 931 396 l 0
 928.830078125 222.603515625 834.749023438 161.504882812 753 162 c 0
 726 162 l 1
 726 288 l 17
686 287 m 0
 267 287 l 0
 126.8828125 286.591796875 55 167.817382812 55 85 c 0
 55 11 l 0
 55 -80 158 -184 268 -184 c 0
 299 -184 l 1
 299 -59 l 17
 267 -59 l 0
 207 -58.888671875 180 -3.5341796875 180 47 c 0
 180 95 200 161 260 161 c 0
 686 162 l 1
 686 287 l 0
686 574.098632812 m 1
 638.224609375 565.74609375 595.784179688 529.6875 596 462 c 0
 596 380 l 1
 471 380 l 1
 471 479 l 0
 471 615.166992188 583.443359375 690.477539062 686 700 c 1
 686 574.098632812 l 1
257 314 m 1
 257 442 l 1
 287.115234375 450.5703125 308.392578125 477.977539062 308.392578125 511.106445312 c 0
 308.392578125 551.25390625 276.6484375 583 236.5 583 c 0
 196.352539062 583 164.606445312 551.25390625 164.606445312 511.106445312 c 0
 164.606445312 477.735351562 186.540039062 450.169921875 217 441.815429688 c 1
 217 314 l 1
 121 314 40 411 40 482 c 0
 41 508 l 2
 41 595.506835938 137.5 690 233 702 c 0
 348.578125 716.522460938 433.5 602.078125 433.5 511 c 2
 433.5 482 l 2
 433.5 420 349 314 257 314 c 1
471 328 m 17
 471 418 l 0
 471 556 359.235351562 596 310 596 c 0
 268 596 161.5 602 161.5 495 c 1
 40 483 l 1
 40 494 l 0
 40 550 73 713 307 713 c 1
 467.377929688 713 596 626.788085938 596 418 c 0
 596 328 l 1
 471 328 l 17
726 -184 m 1
 756 -184 l 2
 866 -184 927 -75.0341796875 927 -3 c 2
 927 121 l 1
 802 121 l 1
 802 -2.8349609375 l 2
 802 -35.931640625 777.952148438 -57.19140625 744 -58 c 0
 726 -58 l 9
 726 -184 l 1
686 -184 m 1
 668 -184 l 0
 619.750976562 -184 552 -175 539 -133 c 1
 522 -170 458 -184 400 -184 c 0
 338 -184 l 1
 338 -59 l 1
 387 -59 l 0
 445 -59 471 -45 471 -3.8349609375 c 0
 471 121 l 0
 596 121 l 0
 596 -3.8349609375 l 2
 596 -43.3076171875 622.022460938 -57.3232421875 668 -58 c 0
 686 -58 l 1
 686 -184 l 1
EndSplineSet
EndChar

StartChar: NameMe.14
Encoding: 346 -1 117
Width: 1875
VWidth: 0
Flags: HW
LayerCount: 3
Back
SplineSet
1188.40039062 609 m 1
 1188 485 l 0
 1184.20019531 485 l 0
 1114 485 1051 436 1051 336 c 0
 1051 277.819335938 921.758789062 262.567382812 916 232 c 1
 916 332 l 1
 916 435 998 608.923828125 1187 609 c 0
 1188.40039062 609 l 1
1140 1 m 1
 1140 126.399414062 l 0
 1182.39941406 127.399414062 1195.99902344 154.606445312 1195.27636719 186 c 0
 1194.64160156 213.5703125 1177.60742188 242.403320312 1140 243.399414062 c 1
 1140 369 l 0
 1256.30859375 369.303710938 1319.99902344 291.500976562 1320.15917969 229.901367188 c 0
 1320.27050781 186.801757812 1320.06933594 221.700195312 1321.18847656 140.903320312 c 0
 1322.08886719 75.91015625 1259.43359375 2.8720703125 1140 1 c 1
1228.40039062 486 m 1
 1231 486 l 2
 1296 486 1358.59960938 427.600585938 1360 364 c 1
 1361 1 l 1
 1490 1 l 1
 1485 364.400390625 l 1
 1484 465.600585938 1409 610 1229 610 c 2
 1228.40039062 610 l 1
 1228.40039062 486 l 1
1099 369 m 1
 1099 243.399414062 l 0
 1062.39941406 241.399414062 1043.60058594 215.377929688 1043.60058594 186 c 0
 1043.60058594 153.600585938 1058.39941406 126.399414062 1099 126.399414062 c 1
 1099 1 l 0
 982.690429688 1 917.96875 77.0029296875 917.400390625 138.599609375 c 0
 917 182 916.413085938 144.993164062 915.799804688 226.599609375 c 0
 915 333 1041 369 1099 369 c 1
1635 1 m 1
 1760 1 l 1
 1760 588.852539062 l 1
 1635 588.852539062 l 1
 1635 1 l 1
1598 610 m 1
 1598 484 l 1
 1835 484 l 1
 1835 610 l 1
 1598 610 l 1
1558 610 m 1
 1543 610 1548 610 1525 610 c 0
 1372.52734375 610.001953125 1360 436.07421875 1360 350 c 1
 1485 350.400390625 l 1
 1485 417 1495 484 1558 484 c 1
 1558 610 l 1
263.208007812 1 m 1
 263.208007812 126.399414062 l 0
 305.607421875 127.399414062 319.20703125 154.606445312 318.484375 186 c 0
 317.849609375 213.5703125 300.815429688 242.403320312 263.208007812 243.399414062 c 1
 263.208007812 369 l 0
 372.516601562 369.303710938 443.84375 291.500976562 444.00390625 229.901367188 c 0
 444.00390625 140.903320312 l 0
 444.904296875 75.91015625 382.641601562 2.8720703125 263.208007812 1 c 1
443.00390625 641 m 1
 443.00390625 516 l 1
 249.1015625 516 179.208007812 410.120117188 179.208007812 337 c 0
 179.208007812 278.819335938 45.7626953125 263.567382812 40.00390625 233 c 1
 40.00390625 288 l 1
 40.00390625 405 124.00390625 641 443.00390625 641 c 0
 443.00390625 641 l 1
222.208007812 369 m 1
 222.208007812 243.399414062 l 0
 185.607421875 241.399414062 166.80859375 215.377929688 166.80859375 186 c 0
 166.80859375 153.600585938 181.607421875 126.399414062 222.208007812 126.399414062 c 1
 222.208007812 1 l 0
 105.8984375 1 40.572265625 77.0029296875 40.00390625 138.599609375 c 0
 40.00390625 226.599609375 l 0
 39.2041015625 333 164.208007812 369 222.208007812 369 c 1
603.00390625 -185 m 1
 535.00390625 -330 271.84375 -331.58984375 215.9140625 -153.26953125 c 1
 336.993164062 -121.809570312 l 1
 365.243164062 -180.5703125 462.423828125 -185.08984375 495.193359375 -121.809570312 c 0
 603.00390625 -185 l 1
495.00390625 253.220703125 m 1
 619.00390625 146 l 0
 619.00390625 24.220703125 l 0
 619.00390625 -25.779296875 693.423828125 -38.3193359375 769.59375 -38.3193359375 c 0
 769.59375 -163.790039062 l 1
 603.00390625 -163.790039062 495.055664062 -96.7001953125 495.00390625 -3.58984375 c 0
 495.00390625 253.220703125 l 1
482.00390625 641 m 1
 776.313476562 641.84765625 877.153320312 436.399414062 877.153320312 336.580078125 c 0
 877.153320312 140.169921875 l 2
 877.153320312 -46 495.00390625 -45 495.00390625 141 c 2
 495.00390625 329 l 0
 621.00390625 329 l 1
 621.00390625 172 l 1
 621.00390625 112 750.00390625 111 750.7734375 172 c 0
 750.432617188 336.330078125 l 0
 750.356445312 410.225585938 656.423828125 517.255859375 482.00390625 516 c 1
 482.00390625 641 l 1
EndSplineSet
Fore
SplineSet
1188.40039062 609 m 1
 1188 485 l 0
 1184.20019531 485 l 0
 1114 485 1051 436 1051 336 c 0
 1051 277.819335938 921.758789062 262.567382812 916 232 c 1
 916 332 l 1
 916 435 998 608.923828125 1187 609 c 0
 1188.40039062 609 l 1
1140 1 m 1
 1140 126.399414062 l 0
 1182.39941406 127.399414062 1195.99902344 154.606445312 1195.27636719 186 c 0
 1194.64160156 213.5703125 1177.60742188 242.403320312 1140 243.399414062 c 1
 1140 369 l 0
 1256.30859375 369.303710938 1319.99902344 291.500976562 1320.15917969 229.901367188 c 0
 1320.27050781 186.801757812 1320.06933594 221.700195312 1321.18847656 140.903320312 c 0
 1322.08886719 75.91015625 1259.43359375 2.8720703125 1140 1 c 1
1228.40039062 486 m 1
 1231 486 l 2
 1296 486 1358.59960938 427.600585938 1360 364 c 1
 1361 1 l 1
 1490 1 l 1
 1485 364.400390625 l 1
 1484 465.600585938 1409 610 1229 610 c 2
 1228.40039062 610 l 1
 1228.40039062 486 l 1
1099 369 m 1
 1099 243.399414062 l 0
 1062.39941406 241.399414062 1043.60058594 215.377929688 1043.60058594 186 c 0
 1043.60058594 153.600585938 1058.39941406 126.399414062 1099 126.399414062 c 1
 1099 1 l 0
 982.690429688 1 917.96875 77.0029296875 917.400390625 138.599609375 c 0
 917 182 916.413085938 144.993164062 915.799804688 226.599609375 c 0
 915 333 1041 369 1099 369 c 1
1635 1 m 1
 1760 1 l 1
 1760 588.852539062 l 1
 1635 588.852539062 l 1
 1635 1 l 1
1598 610 m 1
 1598 484 l 1
 1835 484 l 1
 1835 610 l 1
 1598 610 l 1
1558 610 m 1
 1543 610 1548 610 1525 610 c 0
 1372.52734375 610.001953125 1360 436.07421875 1360 350 c 1
 1485 350.400390625 l 1
 1485 417 1495 484 1558 484 c 1
 1558 610 l 1
263.208007812 1 m 1
 263.208007812 126.399414062 l 0
 305.607421875 127.399414062 319.20703125 154.606445312 318.484375 186 c 0
 317.849609375 213.5703125 300.815429688 242.403320312 263.208007812 243.399414062 c 1
 263.208007812 369 l 0
 372.516601562 369.303710938 443.84375 291.500976562 444.00390625 229.901367188 c 0
 444.00390625 140.903320312 l 0
 444.904296875 75.91015625 382.641601562 2.8720703125 263.208007812 1 c 1
443.00390625 641 m 1
 443.00390625 516 l 1
 249.1015625 516 179.208007812 410.120117188 179.208007812 337 c 0
 179.208007812 278.819335938 45.7626953125 263.567382812 40.00390625 233 c 1
 40.00390625 288 l 1
 40.00390625 405 124.00390625 641 443.00390625 641 c 0
 443.00390625 641 l 1
222.208007812 369 m 1
 222.208007812 243.399414062 l 0
 185.607421875 241.399414062 166.80859375 215.377929688 166.80859375 186 c 0
 166.80859375 153.600585938 181.607421875 126.399414062 222.208007812 126.399414062 c 1
 222.208007812 1 l 0
 105.8984375 1 40.572265625 77.0029296875 40.00390625 138.599609375 c 0
 40.00390625 226.599609375 l 0
 39.2041015625 333 164.208007812 369 222.208007812 369 c 1
603.00390625 -185 m 1
 535.00390625 -330 271.84375 -331.58984375 215.9140625 -153.26953125 c 1
 336.993164062 -121.809570312 l 1
 365.243164062 -180.5703125 462.423828125 -185.08984375 495.193359375 -121.809570312 c 0
 603.00390625 -185 l 1
495.00390625 253.220703125 m 1
 619.00390625 146 l 0
 619.00390625 24.220703125 l 0
 619.00390625 -25.779296875 693.423828125 -38.3193359375 769.59375 -38.3193359375 c 0
 769.59375 -163.790039062 l 1
 603.00390625 -163.790039062 495.055664062 -96.7001953125 495.00390625 -3.58984375 c 0
 495.00390625 253.220703125 l 1
482.00390625 641 m 1
 776.313476562 641.84765625 877.153320312 436.399414062 877.153320312 336.580078125 c 0
 877.153320312 140.169921875 l 2
 877.153320312 -46 495.00390625 -45 495.00390625 141 c 2
 495.00390625 329 l 0
 621.00390625 329 l 1
 621.00390625 172 l 1
 621.00390625 112 750.00390625 111 750.7734375 172 c 0
 750.432617188 336.330078125 l 0
 750.356445312 410.225585938 656.423828125 517.255859375 482.00390625 516 c 1
 482.00390625 641 l 1
EndSplineSet
EndChar

StartChar: NameMe.29
Encoding: 347 -1 118
Width: 750
VWidth: 0
Flags: HW
LayerCount: 3
Back
SplineSet
709.98828125 65.9169921875 m 0
 707.224609375 485.909179688 l 258
 706.958007812 531 651.385742188 626.626953125 545.387695312 626 c 258
 520 626 l 257
 520 505.919921875 l 257
 546.103515625 505.956054688 l 258
 576.102539062 506.1328125 581.98828125 483.168945312 582 480.168945312 c 256
 582 48 l 0
 582 16.171875 582 -34 482 -34 c 0
 391.229492188 -34 343.962890625 -34 250 -34 c 0
 109.395507812 -34 39 -94 39 -229 c 0
 39 -262 l 1
 164 -262 l 0
 164 -228 l 0
 164 -163 198.625 -159 224 -159 c 2
 509 -159 l 0
 651 -157 710 -42 709.98828125 65.9169921875 c 0
171.263671875 477.731445312 m 257xe8
 173.998046875 0.7392578125 l 257
 42 0 l 257
 42 490 l 0
 42 541 88.6064453125 626.028320312 210 626 c 257
 210 503.973632812 l 257xf0
 204.109375 503.938476562 l 258
 174.110351562 503.760742188 171.251953125 479.731445312 171.263671875 477.731445312 c 257xe8
298.995117188 1.4794921875 m 257
 296.26171875 478.470703125 l 258
 296.244140625 481.470703125 290.108398438 505.177734375 260.108398438 505 c 258
 249 505 l 257
 249 626 l 257
 309.607421875 626.780273438 335.249023438 616 360 595 c 257
 384.880859375 615.147460938 416.389648438 626 458.388671875 626 c 258
 480 626 l 257
 480 505 l 257
 459.104492188 505 l 258
 428.10546875 504.81640625 421.248046875 481.2109375 421.259765625 479.2109375 c 257
 423.993164062 2.21875 l 257
 298.995117188 1.4794921875 l 257
EndSplineSet
Fore
SplineSet
709.98828125 65.9169921875 m 0
 707.224609375 485.909179688 l 258
 706.958007812 531 651.385742188 626.626953125 545.387695312 626 c 258
 520 626 l 257
 520 505.919921875 l 257
 546.103515625 505.956054688 l 258
 576.102539062 506.1328125 581.98828125 483.168945312 582 480.168945312 c 256
 582 48 l 0
 582 16.171875 582 -34 482 -34 c 0
 391.229492188 -34 343.962890625 -34 250 -34 c 0
 109.395507812 -34 39 -94 39 -229 c 0
 39 -262 l 1
 164 -262 l 0
 164 -228 l 0
 164 -163 198.625 -159 224 -159 c 2
 509 -159 l 0
 651 -157 710 -42 709.98828125 65.9169921875 c 0
171.263671875 477.731445312 m 257xe8
 173.998046875 0.7392578125 l 257
 42 0 l 257
 42 490 l 0
 42 541 88.6064453125 626.028320312 210 626 c 257
 210 503.973632812 l 257xf0
 204.109375 503.938476562 l 258
 174.110351562 503.760742188 171.251953125 479.731445312 171.263671875 477.731445312 c 257xe8
298.995117188 1.4794921875 m 257
 296.26171875 478.470703125 l 258
 296.244140625 481.470703125 290.108398438 505.177734375 260.108398438 505 c 258
 249 505 l 257
 249 626 l 257
 309.607421875 626.780273438 335.249023438 616 360 595 c 257
 384.880859375 615.147460938 416.389648438 626 458.388671875 626 c 258
 480 626 l 257
 480 505 l 257
 459.104492188 505 l 258
 428.10546875 504.81640625 421.248046875 481.2109375 421.259765625 479.2109375 c 257
 423.993164062 2.21875 l 257
 298.995117188 1.4794921875 l 257
EndSplineSet
EndChar

StartChar: NameMe.35
Encoding: 348 -1 119
Width: 1190
VWidth: 0
Flags: HW
LayerCount: 3
Back
SplineSet
298.400390625 610 m 1
 298 484 l 0
 294.200195312 484 l 0
 231 484 168 435 168 335 c 0
 168 276.819335938 39.7587890625 261.567382812 34 231 c 1
 34 334 l 1
 34 437 115 609.923828125 297 610 c 0
 298.400390625 610 l 1
265 0 m 1
 265 125.399414062 l 0
 307.399414062 125.399414062 312.999023438 153.606445312 312.276367188 185 c 0
 311.641601562 212.5703125 307.607421875 242.403320312 265 242.399414062 c 1
 265 368 l 0
 363.30859375 368.303710938 437.83984375 282.500976562 438 228.901367188 c 0
 438 155.903320312 l 0
 438.900390625 90.91015625 376.43359375 -0.1279296875 265 0 c 1
209 368 m 1
 209 242.399414062 l 0
 179.399414062 242.399414062 160.600585938 214.377929688 160.600585938 185 c 0
 160.600585938 152.600585938 175.399414062 125.399414062 209 125.399414062 c 1
 209 0 l 0
 104.690429688 0 33.568359375 93.0029296875 34 154.599609375 c 0
 34.3037109375 198.000976562 34.61328125 143.993164062 34 225.599609375 c 0
 33.2001953125 332 158 368 209 368 c 1
884 364 m 0
 883 465.200195313 877 610 713 610 c 2
 710 610 l 1
 710 484 l 1
 716 484 l 2
 766 484 757.599609375 427.600585938 759 364 c 8
 759 172 l 16
 759 114.92578125 783.52734375 0 903 0 c 0
 925 0 l 1
 925 127 l 1
 897.5 127 884 140.933253421 884 172 c 2
 884 364 l 0
1150 436.678710938 m 1
 1150 533 1113 609.852539062 1002.99804688 610.357421875 c 0
 979.998046875 610.462890625 988 609.990234375 973 609.852539062 c 1
 973 483.857421875 l 1
 1011.84375 483.857421875 1025 471 1025 433.932617188 c 1
 1025 172 l 17
 1025 144 1007 127 980 127 c 5
 980 0 l 5
 1007 0 l 0
 1116.47265625 0 1150 112 1150 172 c 1
 1150 436.678710938 l 1
353.400390625 485 m 1
 356 485 l 2
 421 485 484.599609375 426.600585938 486 363 c 1
 486 0 l 1
 612 0 l 1
 612 363.400390625 l 1
 611 454.600585938 534 610 354 610 c 2
 353.400390625 610 l 1
 353.400390625 485 l 1
655 610 m 1
 629 610 l 0
 479.52734375 610.001953125 486 435.07421875 486 349 c 1
 612 349.400390625 l 1
 612 430 600 485 655 484 c 1
 655 610 l 1
EndSplineSet
Fore
SplineSet
298.400390625 610 m 1
 298 484 l 0
 294.200195312 484 l 0
 231 484 168 435 168 335 c 0
 168 276.819335938 39.7587890625 261.567382812 34 231 c 1
 34 334 l 1
 34 437 115 609.923828125 297 610 c 0
 298.400390625 610 l 1
265 0 m 1
 265 125.399414062 l 0
 307.399414062 125.399414062 312.999023438 153.606445312 312.276367188 185 c 0
 311.641601562 212.5703125 307.607421875 242.403320312 265 242.399414062 c 1
 265 368 l 0
 363.30859375 368.303710938 437.83984375 282.500976562 438 228.901367188 c 0
 438 155.903320312 l 0
 438.900390625 90.91015625 376.43359375 -0.1279296875 265 0 c 1
209 368 m 1
 209 242.399414062 l 0
 179.399414062 242.399414062 160.600585938 214.377929688 160.600585938 185 c 0
 160.600585938 152.600585938 175.399414062 125.399414062 209 125.399414062 c 1
 209 0 l 0
 104.690429688 0 33.568359375 93.0029296875 34 154.599609375 c 0
 34.3037109375 198.000976562 34.61328125 143.993164062 34 225.599609375 c 0
 33.2001953125 332 158 368 209 368 c 1
884 364 m 0
 883 465.200195313 877 610 713 610 c 2
 710 610 l 1
 710 484 l 1
 716 484 l 2
 766 484 757.599609375 427.600585938 759 364 c 8
 759 172 l 16
 759 114.92578125 783.52734375 0 903 0 c 0
 925 0 l 1
 925 127 l 1
 897.5 127 884 140.933253421 884 172 c 2
 884 364 l 0
1150 436.678710938 m 1
 1150 533 1113 609.852539062 1002.99804688 610.357421875 c 0
 979.998046875 610.462890625 988 609.990234375 973 609.852539062 c 1
 973 483.857421875 l 1
 1011.84375 483.857421875 1025 471 1025 433.932617188 c 1
 1025 172 l 17
 1025 144 1007 127 980 127 c 5
 980 0 l 5
 1007 0 l 0
 1116.47265625 0 1150 112 1150 172 c 1
 1150 436.678710938 l 1
353.400390625 485 m 1
 356 485 l 2
 421 485 484.599609375 426.600585938 486 363 c 1
 486 0 l 1
 612 0 l 1
 612 363.400390625 l 1
 611 454.600585938 534 610 354 610 c 2
 353.400390625 610 l 1
 353.400390625 485 l 1
655 610 m 1
 629 610 l 0
 479.52734375 610.001953125 486 435.07421875 486 349 c 1
 612 349.400390625 l 1
 612 430 600 485 655 484 c 1
 655 610 l 1
EndSplineSet
EndChar

StartChar: NameMe.36
Encoding: 349 -1 120
Width: 1434
VWidth: 0
Flags: HW
LayerCount: 3
Back
SplineSet
273 0 m 1
 273 125.399414062 l 0
 315.399414062 125.399414062 320.999023438 153.606445312 320.276367188 185 c 0
 319.641601562 212.5703125 315.607421875 242.403320312 273 242.399414062 c 1
 273 368 l 0
 371.30859375 368.303710938 445.83984375 282.500976562 446 228.901367188 c 0
 446 155.903320312 l 0
 446.900390625 90.91015625 384.43359375 -0.1279296875 273 0 c 1
217 368 m 1
 217 242.399414062 l 0
 187.399414062 242.399414062 168.600585938 214.377929688 168.600585938 185 c 0
 168.600585938 152.600585938 183.399414062 125.399414062 217 125.399414062 c 1
 217 0 l 0
 112.690429688 0 40.568359375 93.0029296875 41 154.599609375 c 0
 41.3037109375 198.000976562 41.61328125 143.993164062 41 225.599609375 c 0
 40.2001953125 332 166 368 217 368 c 1
305.604492188 610 m 1
 305.204101562 485 l 0
 301.404296875 485 l 0
 238.204101562 485 187.204101562 441 180.204101562 365 c 0
 174.868164062 307.064453125 46.7587890625 261.567382812 41 231 c 1
 41 289 l 1
 41 381 96.2041015625 609.923828125 311.204101562 610 c 0
 305.604492188 610 l 1
360.604492188 485 m 1
 363.204101562 485 l 2
 440.204101562 485 497.803710938 432.600585938 499.204101562 363 c 1
 499.204101562 149 l 0
 499.204101562 130 473.5 127.889648438 466.00390625 126.399414062 c 1
 466.00390625 0.3994140625 l 1
 672 0.3994140625 l 1
 672 126 l 1
 623.204101562 126 l 1
 623.204101562 363.400390625 l 1
 622.204101562 472.600585938 536.204101562 610 368.204101562 610 c 2
 360.604492188 610 l 1
 360.604492188 485 l 1
1394.98828125 65.9169921875 m 0
 1392.22460938 485.909179688 l 258
 1391.95800781 531 1336.38574219 626.626953125 1230.38769531 626 c 258
 1210 626 l 257
 1210 505.919921875 l 257
 1231.10351562 505.956054688 l 258
 1261.10253906 506.1328125 1266.98828125 483.168945312 1267 480.168945312 c 256
 1267 48 l 0
 1267 16.171875 1267 -34 1167 -34 c 0
 1076.22949219 -34 399.962890625 -34 306 -34 c 0
 165.395507812 -34 95 -94 95 -229 c 0
 95 -262 l 1
 220 -262 l 0
 220 -228 l 0
 220 -163 254.625 -159 280 -159 c 2
 1194 -159 l 0
 1336 -157 1395 -42 1394.98828125 65.9169921875 c 0
856.263671875 477.731445312 m 257xe8
 858.998046875 0.7392578125 l 257
 727 0 l 257
 727 490 l 0
 727 541 773.606445312 626.028320312 888 626 c 257
 888 503.973632812 l 257xf0
 882.109375 503.938476562 l 258
 859.110110026 503.801213045 856.251953125 479.731445312 856.263671875 477.731445312 c 257xe8
983.995117188 1 m 257
 981.26171875 478.470703125 l 258
 981.181574358 492.470344949 980.108398438 505 945.108398438 505 c 258
 943 505 l 257
 943 626 l 257
 995.607421875 625.780273438 1020.24902344 616 1045 595 c 257
 1069.88085938 615.147460938 1101.38964844 626 1143.38867188 626 c 258
 1155 626 l 257
 1155 505 l 257
 1144.10449219 505 l 258
 1113.10546875 504.81640625 1106.24804688 481.2109375 1106.25976562 479.2109375 c 257
 1108.99316406 1 l 257
 983.995117188 1 l 257
EndSplineSet
Fore
SplineSet
273 0 m 1
 273 125.399414062 l 0
 315.399414062 125.399414062 320.999023438 153.606445312 320.276367188 185 c 0
 319.641601562 212.5703125 315.607421875 242.403320312 273 242.399414062 c 1
 273 368 l 0
 371.30859375 368.303710938 445.83984375 282.500976562 446 228.901367188 c 0
 446 155.903320312 l 0
 446.900390625 90.91015625 384.43359375 -0.1279296875 273 0 c 1
217 368 m 1
 217 242.399414062 l 0
 187.399414062 242.399414062 168.600585938 214.377929688 168.600585938 185 c 0
 168.600585938 152.600585938 183.399414062 125.399414062 217 125.399414062 c 1
 217 0 l 0
 112.690429688 0 40.568359375 93.0029296875 41 154.599609375 c 0
 41.3037109375 198.000976562 41.61328125 143.993164062 41 225.599609375 c 0
 40.2001953125 332 166 368 217 368 c 1
305.604492188 610 m 1
 305.204101562 485 l 0
 301.404296875 485 l 0
 238.204101562 485 187.204101562 441 180.204101562 365 c 0
 174.868164062 307.064453125 46.7587890625 261.567382812 41 231 c 1
 41 289 l 1
 41 381 96.2041015625 609.923828125 311.204101562 610 c 0
 305.604492188 610 l 1
360.604492188 485 m 1
 363.204101562 485 l 2
 440.204101562 485 497.803710938 432.600585938 499.204101562 363 c 1
 499.204101562 149 l 0
 499.204101562 130 473.5 127.889648438 466.00390625 126.399414062 c 1
 466.00390625 0.3994140625 l 1
 672 0.3994140625 l 1
 672 126 l 1
 623.204101562 126 l 1
 623.204101562 363.400390625 l 1
 622.204101562 472.600585938 536.204101562 610 368.204101562 610 c 2
 360.604492188 610 l 1
 360.604492188 485 l 1
1394.98828125 65.9169921875 m 0
 1392.22460938 485.909179688 l 258
 1391.95800781 531 1336.38574219 626.626953125 1230.38769531 626 c 258
 1210 626 l 257
 1210 505.919921875 l 257
 1231.10351562 505.956054688 l 258
 1261.10253906 506.1328125 1266.98828125 483.168945312 1267 480.168945312 c 256
 1267 48 l 0
 1267 16.171875 1267 -34 1167 -34 c 0
 1076.22949219 -34 399.962890625 -34 306 -34 c 0
 165.395507812 -34 95 -94 95 -229 c 0
 95 -262 l 1
 220 -262 l 0
 220 -228 l 0
 220 -163 254.625 -159 280 -159 c 2
 1194 -159 l 0
 1336 -157 1395 -42 1394.98828125 65.9169921875 c 0
856.263671875 477.731445312 m 257xe8
 858.998046875 0.7392578125 l 257
 727 0 l 257
 727 490 l 0
 727 541 773.606445312 626.028320312 888 626 c 257
 888 503.973632812 l 257xf0
 882.109375 503.938476562 l 258
 859.110110026 503.801213045 856.251953125 479.731445312 856.263671875 477.731445312 c 257xe8
983.995117188 1 m 257
 981.26171875 478.470703125 l 258
 981.181574358 492.470344949 980.108398438 505 945.108398438 505 c 258
 943 505 l 257
 943 626 l 257
 995.607421875 625.780273438 1020.24902344 616 1045 595 c 257
 1069.88085938 615.147460938 1101.38964844 626 1143.38867188 626 c 258
 1155 626 l 257
 1155 505 l 257
 1144.10449219 505 l 258
 1113.10546875 504.81640625 1106.24804688 481.2109375 1106.25976562 479.2109375 c 257
 1108.99316406 1 l 257
 983.995117188 1 l 257
EndSplineSet
EndChar

StartChar: NameMe.37
Encoding: 350 -1 121
Width: 1376
VWidth: 0
Flags: HMW
LayerCount: 3
Back
SplineSet
189 0 m 1
 189 125.399414062 l 0
 231.399414062 125.399414062 236.999023438 153.606445312 236.276367188 185 c 0
 235.641601562 212.5703125 231.607421875 242.403320312 189 242.399414062 c 1
 189 368 l 0
 287.30859375 368.303710938 361.83984375 282.500976562 362 228.901367188 c 0
 362 155.903320312 l 0
 362.900390625 90.91015625 300.43359375 -0.1279296875 189 0 c 1
133 368 m 1
 133 242.399414062 l 0
 103.399414062 242.399414062 84.6005859375 214.377929688 84.6005859375 185 c 0
 84.6005859375 152.600585938 99.3994140625 125.399414062 133 125.399414062 c 1
 133 0 l 0
 28.6904296875 0 -43.431640625 93.0029296875 -43 154.599609375 c 0
 -42.6962890625 198.000976562 -42.38671875 143.993164062 -43 225.599609375 c 0
 -43.7998046875 332 82 368 133 368 c 1
221.604492188 610 m 1
 221.204101562 485 l 0
 217.404296875 485 l 0
 154.204101562 485 103.204101562 441 96.2041015625 365 c 0
 90.8681640625 307.064453125 -37.2412109375 261.567382812 -43 231 c 1
 -43 289 l 1
 -43 381 12.2041015625 609.923828125 227.204101562 610 c 0
 221.604492188 610 l 1
276.604492188 485 m 1
 279.204101562 485 l 2
 356.204101562 485 413.803710938 432.600585938 415.204101562 363 c 1
 415.204101562 149 l 0
 415.204101562 130 389.5 127.889648438 382.00390625 126.399414062 c 1
 382.00390625 0.3994140625 l 1
 787 0.3994140625 l 1
 787 126 l 1
 539.204101562 126 l 1
 539.204101562 363.400390625 l 1
 538.204101562 472.600585938 452.204101562 610 284.204101562 610 c 2
 276.604492188 610 l 1
 276.604492188 485 l 1
979 162 m 9
 1027 162 l 1
 1027 416 l 2
 1027 567.267578125 947.610351562 636 842 636 c 1
 842 511 l 1
 882 511 902 491 902 416 c 2
 902 162 l 1
 979 162 l 9
1027 126 m 1
 979 126 l 25
 932 126 l 17
 902 126 l 1
 902 -190 l 1
 1027 -190 l 1
 1027 126 l 1
842 287 m 9
 842 162 l 1
 938.666992188 162 1069.33300781 162 1166 162 c 1
 1166 287 l 0
 842 287 l 9
787 286 m 21
 742 286 728 303 728 374 c 0
 728 413 l 0
 728 491.206054688 740.690429688 511.115234375 787 511 c 1
 787 636 l 1
 680 636 602 575 602 413 c 0
 602 368 l 0
 602 207 700 162 779 162 c 0
 787 162 l 5
 787 286 l 21
1064 287 m 1
 1064 0 l 1
 1166 0 l 1
 1166 287 l 1
 1064 287 l 1
842 126 m 1
 842 1 l 1
 1166 0 l 1
 1166 126 l 1
 842 126 l 1
EndSplineSet
Fore
SplineSet
189 0 m 1
 189 125.399414062 l 0
 231.399414062 125.399414062 236.999023438 153.606445312 236.276367188 185 c 0
 235.641601562 212.5703125 231.607421875 242.403320312 189 242.399414062 c 1
 189 368 l 0
 287.30859375 368.303710938 361.83984375 282.500976562 362 228.901367188 c 0
 362 155.903320312 l 0
 362.900390625 90.91015625 300.43359375 -0.1279296875 189 0 c 1
133 368 m 1
 133 242.399414062 l 0
 103.399414062 242.399414062 84.6005859375 214.377929688 84.6005859375 185 c 0
 84.6005859375 152.600585938 99.3994140625 125.399414062 133 125.399414062 c 1
 133 0 l 0
 28.6904296875 0 -43.431640625 93.0029296875 -43 154.599609375 c 0
 -42.6962890625 198.000976562 -42.38671875 143.993164062 -43 225.599609375 c 0
 -43.7998046875 332 82 368 133 368 c 1
221.604492188 610 m 1
 221.204101562 485 l 0
 217.404296875 485 l 0
 154.204101562 485 103.204101562 441 96.2041015625 365 c 0
 90.8681640625 307.064453125 -37.2412109375 261.567382812 -43 231 c 1
 -43 289 l 1
 -43 381 12.2041015625 609.923828125 227.204101562 610 c 0
 221.604492188 610 l 1
276.604492188 485 m 1
 279.204101562 485 l 2
 356.204101562 485 413.803710938 432.600585938 415.204101562 363 c 1
 415.204101562 149 l 0
 415.204101562 130 389.5 127.889648438 382.00390625 126.399414062 c 1
 382.00390625 0.3994140625 l 1
 787 0.3994140625 l 1
 787 126 l 1
 539.204101562 126 l 1
 539.204101562 363.400390625 l 1
 538.204101562 472.600585938 452.204101562 610 284.204101562 610 c 2
 276.604492188 610 l 1
 276.604492188 485 l 1
979 162 m 9
 1027 162 l 1
 1027 416 l 2
 1027 567.267578125 947.610351562 636 842 636 c 1
 842 511 l 1
 882 511 902 491 902 416 c 2
 902 162 l 1
 979 162 l 9
1027 126 m 1
 979 126 l 25
 932 126 l 17
 902 126 l 1
 902 -190 l 1
 1027 -190 l 1
 1027 126 l 1
842 287 m 9
 842 162 l 1
 938.666992188 162 1069.33300781 162 1166 162 c 1
 1166 287 l 0
 842 287 l 9
787 286 m 21
 742 286 728 303 728 374 c 0
 728 413 l 0
 728 491.206054688 740.690429688 511.115234375 787 511 c 1
 787 636 l 1
 680 636 602 575 602 413 c 0
 602 368 l 0
 602 207 700 162 779 162 c 0
 787 162 l 5
 787 286 l 21
1064 287 m 1
 1064 0 l 1
 1166 0 l 1
 1166 287 l 1
 1064 287 l 1
842 126 m 1
 842 1 l 1
 1166 0 l 1
 1166 126 l 1
 842 126 l 1
EndSplineSet
EndChar

StartChar: NameMe.40
Encoding: 352 -1 123
Width: 1024
VWidth: 0
Flags: H
LayerCount: 3
Fore
SplineSet
217 -182.6328125 m 1
 115.65234375 -170.114257812 26 -73.8993293048 26 11 c 0
 26 85 l 0
 26 167.817382812 97.8828125 286.591796875 238 287 c 0
 686 287 l 0
 686 162 l 1
 231 161 l 0
 171 161 151 95 151 47 c 0
 151 3.38674961053 172.921875 -43.81640625 217 -56 c 1
 217 -182.6328125 l 1
726 288 m 17
 726 288 l 0
 799 288 804 361 804 419 c 1
 804 459 l 1
 804 524.2734375 782.453125 567.356445312 726 574.836914062 c 1
 726 700 l 1
 838.70703125 692.204101562 931 611.495117188 931 459 c 1
 931 396 l 0
 928.830078125 222.603515625 834.749023438 161.504882812 753 162 c 0
 726 162 l 1
 726 288 l 17
686 574.098632812 m 1
 638.224609375 565.74609375 595.784179688 529.6875 596 462 c 0
 596 380 l 1
 471 380 l 1
 471 479 l 0
 471 615.166992188 583.443359375 690.477539062 686 700 c 1
 686 574.098632812 l 1
257 314 m 1
 257 442 l 1
 287.115234375 450.5703125 308.392578125 477.977539062 308.392578125 511.106445312 c 0
 308.392578125 551.25390625 276.6484375 583 236.5 583 c 0
 196.352539062 583 164.606445312 551.25390625 164.606445312 511.106445312 c 0
 164.606445312 477.735351562 186.540039062 450.169921875 217 441.815429688 c 1
 217 314 l 1
 121 314 40 411 40 482 c 0
 41 508 l 2
 41 595.506835938 137.5 690 233 702 c 0
 348.578125 716.522460938 433.5 602.078125 433.5 511 c 2
 433.5 482 l 2
 433.5 420 349 314 257 314 c 1
471 328 m 17
 471 418 l 0
 471 556 359.235351562 596 310 596 c 0
 268 596 161.5 602 161.5 495 c 1
 40 483 l 1
 40 494 l 0
 40 550 73 713 307 713 c 1
 467.377929688 713 596 626.788085938 596 418 c 0
 596 328 l 1
 471 328 l 17
287 -56 m 17
 287 -56 367 -58 416 7 c 0
 436.96484375 34.810546875 512 126 666 126 c 0
 686 126 l 1
 686 8 l 1
 618.72265625 8.0224609375 539.182617188 -16.1328125 510 -69 c 0
 484.350585938 -115.466796875 406 -182 287 -182 c 9
 257 -182 l 1
 257 -56 l 1
 287 -56 l 17
731 126 m 1
 801 126 l 0
 878 126 923 60 923 12 c 0
 923 -76 l 0
 923 -131.176757812 873 -182 781 -182 c 0
 545 -182 l 1
 545 -57 l 1
 727 -56 l 0
 765 -56 798 -58.9404296875 798 -32.515625 c 0
 798 -16 l 1
 798 11.12109375 769.947265625 6.826171875 731 8 c 1
 731 126 l 1
EndSplineSet
EndChar

StartChar: NameMe.34
Encoding: 353 -1 124
Width: 825
VWidth: 0
Flags: HW
LayerCount: 3
Back
SplineSet
40 120 m 0
 40 188.25 95.5 243.75 163.75 243.75 c 0
 232 243.75 287.5 188.25 287.5 120 c 0
 287.5 51.75 232 -3.75 163.75 -3.75 c 0
 95.5 -3.75 40 51.75 40 120 c 0
537.5 124 m 0
 537.5 192.25 593 247.75 661.25 247.75 c 0
 729.5 247.75 785 192.25 785 124 c 0
 785 55.75 729.5 0.25 661.25 0.25 c 0
 593 0.25 537.5 55.75 537.5 124 c 0
287.5 501 m 0
 287.5 569.25 343 624.75 411.25 624.75 c 0
 479.5 624.75 535 569.25 535 501 c 0
 535 432.75 479.5 377.25 411.25 377.25 c 0
 343 377.25 287.5 432.75 287.5 501 c 0
EndSplineSet
Fore
SplineSet
40 120 m 0
 40 188.25 95.5 243.75 163.75 243.75 c 0
 232 243.75 287.5 188.25 287.5 120 c 0
 287.5 51.75 232 -3.75 163.75 -3.75 c 0
 95.5 -3.75 40 51.75 40 120 c 0
537.5 124 m 0
 537.5 192.25 593 247.75 661.25 247.75 c 0
 729.5 247.75 785 192.25 785 124 c 0
 785 55.75 729.5 0.25 661.25 0.25 c 0
 593 0.25 537.5 55.75 537.5 124 c 0
287.5 501 m 0
 287.5 569.25 343 624.75 411.25 624.75 c 0
 479.5 624.75 535 569.25 535 501 c 0
 535 432.75 479.5 377.25 411.25 377.25 c 0
 343 377.25 287.5 432.75 287.5 501 c 0
EndSplineSet
EndChar

StartChar: NameMe.41
Encoding: 354 -1 125
Width: 1124
VWidth: 0
Flags: HW
LayerCount: 3
Back
SplineSet
880 471.125 m 1
 927.879882812 449.2109375 959 403.916015625 959 310 c 2
 959 166 l 0
 959 155 964 120 927 120 c 0
 927 -5.3203125 l 1
 1034 -5.3203125 1084 72 1084 166 c 0
 1084 310 l 2
 1084 494.407226562 988.002929688 568.337890625 880 597.783203125 c 1
 880 471.125 l 1
840 483.666015625 m 1
 832 483.666015625 l 1
 737 483.67578125 613 484.999023438 613.204101562 296 c 0
 613.204101562 158 l 0
 613.204101562 146 611.204101562 111 644.204101562 111 c 1
 643.204101562 -14.3203125 l 0
 539.204101562 -14.3203125 488.204101562 70 488.204101562 157 c 1
 488.204101562 294 l 0
 488.204101562 602 761 609 832 609 c 2
 840 609 l 1
 840 483.666015625 l 1
453 608 m 1
 598 608 841.204101562 599 841.204101562 307 c 2
 841.204101562 157 l 0
 841.204101562 63 791.204101562 -14.3203125 684.204101562 -14.3203125 c 1
 684.204101562 111 l 0
 721.204101562 111 716.204101562 146 716.204101562 157 c 0
 716.204101562 296 l 2
 716.204101562 486 588.833007812 482 453 483 c 1
 453 608 l 1
413 608 m 1
 396 608 l 1
 308 608 96 567.841796875 96 258 c 2
 96 156 l 1
 96 69 147 -15 251 -15 c 0
 252 110 l 1
 219 110 221 145 221 157 c 0
 221 258 l 0
 220.795898438 445 314.204101562 483 391 483 c 1
 413 483 l 1
 413 608 l 1
357.325195312 446 m 1
 426.166992188 446 449 386.416992188 449 296 c 2
 449 156.185546875 l 0
 449 62.185546875 399 -15 292 -15 c 1
 292 110.185546875 l 0
 329 110.185546875 324 145.185546875 324 156.185546875 c 0
 324 296 l 2
 324 349.109375 292 349 270 349.088867188 c 1
 267 384 299 441 357.325195312 446 c 1
EndSplineSet
Fore
SplineSet
880 471.125 m 1
 927.879882812 449.2109375 959 403.916015625 959 310 c 2
 959 166 l 0
 959 155 964 120 927 120 c 0
 927 -5.3203125 l 1
 1034 -5.3203125 1084 72 1084 166 c 0
 1084 310 l 2
 1084 494.407226562 988.002929688 568.337890625 880 597.783203125 c 1
 880 471.125 l 1
840 483.666015625 m 1
 832 483.666015625 l 1
 737 483.67578125 613 484.999023438 613.204101562 296 c 0
 613.204101562 158 l 0
 613.204101562 146 611.204101562 111 644.204101562 111 c 1
 643.204101562 -14.3203125 l 0
 539.204101562 -14.3203125 488.204101562 70 488.204101562 157 c 1
 488.204101562 294 l 0
 488.204101562 602 761 609 832 609 c 2
 840 609 l 1
 840 483.666015625 l 1
453 608 m 1
 598 608 841.204101562 599 841.204101562 307 c 2
 841.204101562 157 l 0
 841.204101562 63 791.204101562 -14.3203125 684.204101562 -14.3203125 c 1
 684.204101562 111 l 0
 721.204101562 111 716.204101562 146 716.204101562 157 c 0
 716.204101562 296 l 2
 716.204101562 486 588.833007812 482 453 483 c 1
 453 608 l 1
413 608 m 1
 396 608 l 1
 308 608 96 567.841796875 96 258 c 2
 96 156 l 1
 96 69 147 -15 251 -15 c 0
 252 110 l 1
 219 110 221 145 221 157 c 0
 221 258 l 0
 220.795898438 445 314.204101562 483 391 483 c 1
 413 483 l 1
 413 608 l 1
357.325195312 446 m 1
 426.166992188 446 449 386.416992188 449 296 c 2
 449 156.185546875 l 0
 449 62.185546875 399 -15 292 -15 c 1
 292 110.185546875 l 0
 329 110.185546875 324 145.185546875 324 156.185546875 c 0
 324 296 l 2
 324 349.109375 292 349 270 349.088867188 c 1
 267 384 299 441 357.325195312 446 c 1
EndSplineSet
EndChar

StartChar: NameMe.42
Encoding: 355 -1 126
Width: 648
VWidth: 0
Flags: HW
LayerCount: 3
Back
SplineSet
351.00390625 711 m 5
 555.00390625 711 609.00390625 549 609.00390625 375 c 4
 609.00390625 -37 l 5
 484.00390625 -37 l 5
 484.00390625 372 l 6
 484.00390625 437 486.836914062 585 351.00390625 586 c 5
 351.00390625 711 l 5
262.211914062 -37 m 1
 262.211914062 88.3994140625 l 0
 304.611328125 89.3994140625 319.2109375 116.606445312 318.48828125 148 c 0
 317.853515625 175.5703125 299.819335938 204.00390625 262.211914062 205 c 1
 262.211914062 331 l 0
 378.520507812 331.303710938 443.84765625 253.500976562 444.0078125 191.901367188 c 0
 444.0078125 102.903320312 l 0
 444.908203125 37.91015625 381.645507812 -35.1279296875 262.211914062 -37 c 1
311 711 m 5
 311 586 l 4
 311 586 l 4
 157.799804688 586 165.211914062 375 166.211914062 299 c 4
 166.977384003 240.824284478 45.7587890625 225.567382812 40 195 c 5
 40 250 l 5
 40 346 10 711 311 711 c 4
 311 711 l 5
222.211914062 331 m 1
 222.211914062 205 l 0
 185.611328125 203 166.8125 177.377929688 166.8125 148 c 0
 166.8125 115.600585938 181.611328125 88.3994140625 222.211914062 88.3994140625 c 1
 222.211914062 -37 l 0
 105.90234375 -37 40.568359375 39.0029296875 40 100.599609375 c 0
 40 188.599609375 l 0
 39.2001953125 296 164.211914062 331 222.211914062 331 c 1
EndSplineSet
Fore
SplineSet
351.00390625 711 m 5
 555.00390625 711 609.00390625 549 609.00390625 375 c 4
 609.00390625 -37 l 5
 484.00390625 -37 l 5
 484.00390625 372 l 6
 484.00390625 437 486.836914062 585 351.00390625 586 c 5
 351.00390625 711 l 5
262.211914062 -37 m 1
 262.211914062 88.3994140625 l 0
 304.611328125 89.3994140625 319.2109375 116.606445312 318.48828125 148 c 0
 317.853515625 175.5703125 299.819335938 204.00390625 262.211914062 205 c 1
 262.211914062 331 l 0
 378.520507812 331.303710938 443.84765625 253.500976562 444.0078125 191.901367188 c 0
 444.0078125 102.903320312 l 0
 444.908203125 37.91015625 381.645507812 -35.1279296875 262.211914062 -37 c 1
311 711 m 5
 311 586 l 4
 311 586 l 4
 157.799804688 586 165.211914062 375 166.211914062 299 c 4
 166.977384003 240.824284478 45.7587890625 225.567382812 40 195 c 5
 40 250 l 5
 40 346 10 711 311 711 c 4
 311 711 l 5
222.211914062 331 m 1
 222.211914062 205 l 0
 185.611328125 203 166.8125 177.377929688 166.8125 148 c 0
 166.8125 115.600585938 181.611328125 88.3994140625 222.211914062 88.3994140625 c 1
 222.211914062 -37 l 0
 105.90234375 -37 40.568359375 39.0029296875 40 100.599609375 c 0
 40 188.599609375 l 0
 39.2001953125 296 164.211914062 331 222.211914062 331 c 1
EndSplineSet
EndChar

StartChar: NameMe.43
Encoding: 356 -1 127
Width: 634
VWidth: 0
Flags: HW
LayerCount: 3
Back
SplineSet
413 354 m 1
 413 479.399414062 l 0
 455.399414062 480.399414062 469.999023438 507.606445312 469.276367188 539 c 0
 468.641601562 566.5703125 450.607421875 595.00390625 413 596 c 1
 413 722 l 0
 529.30859375 722.303710938 594.635742188 644.500976562 594.795898438 582.901367188 c 0
 594.795898438 493.903320312 l 0
 595.696289062 428.91015625 532.43359375 355.872070312 413 354 c 1
373 722 m 1
 373 596 l 0
 336.399414062 594 317.600585938 568.377929688 317.600585938 539 c 0
 317.600585938 506.600585938 332.399414062 479.399414062 373 479.399414062 c 1
 373 354 l 0
 256.690429688 354 191.356445312 430.002929688 190.788085938 491.599609375 c 0
 190.788085938 579.599609375 l 0
 189.98828125 687 315 722 373 722 c 1
413 -43 m 1
 413 82.3994140625 l 0
 455.399414062 83.3994140625 469.999023438 110.606445312 469.276367188 142 c 0
 468.641601562 169.5703125 450.607421875 198.00390625 413 199 c 1
 413 325 l 0
 529.30859375 325.303710938 594.635742188 247.500976562 594.795898438 185.901367188 c 0
 594.795898438 96.9033203125 l 0
 595.696289062 31.91015625 532.43359375 -41.1279296875 413 -43 c 1
373 325 m 1
 373 199 l 0
 336.399414062 197 317.600585938 171.377929688 317.600585938 142 c 0
 317.600585938 109.600585938 332.399414062 82.3994140625 373 82.3994140625 c 1
 373 -43 l 0
 256.690429688 -43 191.356445312 33.0029296875 190.788085938 94.599609375 c 0
 190.788085938 182.599609375 l 0
 189.98828125 290 315 325 373 325 c 1
370 722 m 1
 369.599609375 598 l 1
 306 596 164 614 164 502 c 2
 164 172 l 2
 164 75 313.5 81 371.387695312 81 c 1
 371.387695312 -43 l 0
 359 -43 l 0
 254 -43 40 -46 40 159 c 1
 40 506 l 1
 40 721 281 722 363 722 c 0
 370 722 l 1
EndSplineSet
Fore
SplineSet
413 354 m 1
 413 479.399414062 l 0
 455.399414062 480.399414062 469.999023438 507.606445312 469.276367188 539 c 0
 468.641601562 566.5703125 450.607421875 595.00390625 413 596 c 1
 413 722 l 0
 529.30859375 722.303710938 594.635742188 644.500976562 594.795898438 582.901367188 c 0
 594.795898438 493.903320312 l 0
 595.696289062 428.91015625 532.43359375 355.872070312 413 354 c 1
373 722 m 1
 373 596 l 0
 336.399414062 594 317.600585938 568.377929688 317.600585938 539 c 0
 317.600585938 506.600585938 332.399414062 479.399414062 373 479.399414062 c 1
 373 354 l 0
 256.690429688 354 191.356445312 430.002929688 190.788085938 491.599609375 c 0
 190.788085938 579.599609375 l 0
 189.98828125 687 315 722 373 722 c 1
413 -43 m 1
 413 82.3994140625 l 0
 455.399414062 83.3994140625 469.999023438 110.606445312 469.276367188 142 c 0
 468.641601562 169.5703125 450.607421875 198.00390625 413 199 c 1
 413 325 l 0
 529.30859375 325.303710938 594.635742188 247.500976562 594.795898438 185.901367188 c 0
 594.795898438 96.9033203125 l 0
 595.696289062 31.91015625 532.43359375 -41.1279296875 413 -43 c 1
373 325 m 1
 373 199 l 0
 336.399414062 197 317.600585938 171.377929688 317.600585938 142 c 0
 317.600585938 109.600585938 332.399414062 82.3994140625 373 82.3994140625 c 1
 373 -43 l 0
 256.690429688 -43 191.356445312 33.0029296875 190.788085938 94.599609375 c 0
 190.788085938 182.599609375 l 0
 189.98828125 290 315 325 373 325 c 1
370 722 m 1
 369.599609375 598 l 1
 306 596 164 614 164 502 c 2
 164 172 l 2
 164 75 313.5 81 371.387695312 81 c 1
 371.387695312 -43 l 0
 359 -43 l 0
 254 -43 40 -46 40 159 c 1
 40 506 l 1
 40 721 281 722 363 722 c 0
 370 722 l 1
EndSplineSet
EndChar

StartChar: NameMe.44
Encoding: 357 -1 128
Width: 1024
VWidth: 0
Flags: H
LayerCount: 3
Fore
SplineSet
429 608 m 1
 429 740 l 0
 429 893 522 977 644 977 c 0
 764 977 872 903 872 785 c 0
 872 692 802 628 719 628 c 0
 629 628 577 692 577 777 c 0
 577 796 l 1
 702 796 l 1
 702 777 l 0
 702 743 745 745 745 784 c 0
 745 819 714 852 644 852 c 0
 586 852 554 808 554 759 c 0
 554 608 l 0
 429 608 l 1
EndSplineSet
EndChar

StartChar: NameMe.45
Encoding: 358 -1 129
Width: 1024
VWidth: 0
Flags: H
LayerCount: 3
Fore
SplineSet
667.750976562 821 m 1
 811.750976562 821 860.750976562 715 860.750976562 552 c 0
 860.750976562 73 l 1
 735.750976562 73 l 1
 735.750976562 533 l 2
 735.750976562 613 743.581054688 694 667.750976562 696 c 1
 667.750976562 821 l 1
627.747070312 821 m 1
 627.747070312 696 l 0
 627.747070312 696 l 0
 589.546875 696 554 685 554 608 c 0
 429 608 l 0
 429 704 471.747070312 821 627.747070312 821 c 0
 627.747070312 821 l 1
EndSplineSet
EndChar

StartChar: NameMe.48
Encoding: 359 -1 130
Width: 978
VWidth: 0
Flags: HW
LayerCount: 3
Back
SplineSet
716 380 m 9
 716 255 l 1
 406 255 l 2
 340.0078125 254.795898438 326 245 326 192.940429688 c 0
 326 130.165039062 346 124.977539062 437 125 c 1
 437 -1 l 1
 276 -1 202 69.7568359375 202 161 c 0
 202 222.814453125 l 0
 202 333 315 380 403 380 c 0
 508.666992188 380 610.333007812 380 716 380 c 9
771 254.288085938 m 1
 793.201171875 253.657226562 814 239.790792236 814 189 c 0
 814 64 l 0
 814 20.3818359375 818.068359375 -31.0908203125 747 -31 c 0
 492 -31 l 13
 492 -156 l 1
 748 -157 l 0
 877 -157 939 -58.9345703125 939 10.1650390625 c 0
 939 224.165039062 l 2
 939 344.749153308 834.333007812 372.564453125 771 378.498046875 c 1
 771 254.288085938 l 1
437 -31 m 17
 255 -31 l 0
 189.944335938 -30.673828125 165.975585938 -10.4873046875 166 55 c 0
 166 291 l 0
 166 328 169 386 245 386 c 0
 244 511 l 0
 157 511 40 463 40 296 c 0
 40 56 l 0
 40 -86 127.887695312 -155 239 -155 c 0
 437 -156 l 1
 437 -31 l 17
492 -1 m 9
 492 125 l 1
 560 125 591 145.0234375 591 191.940429688 c 0
 591 602 l 1
 716 602 l 1
 716 196 l 2
 716 98.0185546875 663 -1 492 -1 c 9
330 356 m 17
 330 600 l 1
 456 600 l 1
 455 356 l 1
 330 356 l 17
552 606 m 1
 851 606 l 1
 851 481 l 1
 552 481 l 1
 552 606 l 1
330 606 m 1
 496 606 l 1
 496 481 l 1
 330 481 l 1
 330 606 l 1
EndSplineSet
Fore
SplineSet
716 380 m 9
 716 255 l 1
 406 255 l 2
 340.0078125 254.795898438 326 245 326 192.940429688 c 0
 326 130.165039062 346 124.977539062 437 125 c 1
 437 -1 l 1
 276 -1 202 69.7568359375 202 161 c 0
 202 222.814453125 l 0
 202 333 315 380 403 380 c 0
 508.666992188 380 610.333007812 380 716 380 c 9
771 254.288085938 m 1
 793.201171875 253.657226562 814 239.790792236 814 189 c 0
 814 64 l 0
 814 20.3818359375 818.068359375 -31.0908203125 747 -31 c 0
 492 -31 l 13
 492 -156 l 1
 748 -157 l 0
 877 -157 939 -58.9345703125 939 10.1650390625 c 0
 939 224.165039062 l 2
 939 344.749153308 834.333007812 372.564453125 771 378.498046875 c 1
 771 254.288085938 l 1
437 -31 m 17
 255 -31 l 0
 189.944335938 -30.673828125 165.975585938 -10.4873046875 166 55 c 0
 166 291 l 0
 166 328 169 386 245 386 c 0
 244 511 l 0
 157 511 40 463 40 296 c 0
 40 56 l 0
 40 -86 127.887695312 -155 239 -155 c 0
 437 -156 l 1
 437 -31 l 17
492 -1 m 9
 492 125 l 1
 560 125 591 145.0234375 591 191.940429688 c 0
 591 602 l 1
 716 602 l 1
 716 196 l 2
 716 98.0185546875 663 -1 492 -1 c 9
330 356 m 17
 330 600 l 1
 456 600 l 1
 455 356 l 1
 330 356 l 17
552 606 m 1
 851 606 l 1
 851 481 l 1
 552 481 l 1
 552 606 l 1
330 606 m 1
 496 606 l 1
 496 481 l 1
 330 481 l 1
 330 606 l 1
EndSplineSet
EndChar

StartChar: NameMe.50
Encoding: 360 -1 131
Width: 1024
VWidth: 0
Flags: H
LayerCount: 3
Fore
SplineSet
609 380 m 17
 802 380 l 5
 802 255 l 5
 609 255 l 1
 609 380 l 17
553 380 m 9
 553 255 l 0
 244 255 l 2
 178.0078125 254.795898438 164 245 164 192.940429688 c 0
 164 130.165039062 184 124.977539062 275 125 c 1
 275 -1 l 1
 114 -1 40 69.7568359375 40 161 c 0
 40 222.814453125 l 0
 40 333 153 380 241 380 c 0
 553 380 l 9
635 380 m 1
 760 380 l 1
 760 2 l 1
 635 2 l 1
 635 128 635 254 635 380 c 1
330 -1 m 9
 330 125 l 1
 398 125 429 145.0234375 429 191.940429688 c 0
 429 602 l 1
 554 602 l 1
 554 196 l 2
 554 98.0185546875 501 -1 330 -1 c 9
168 356 m 17
 168 600 l 1
 294 600 l 1
 293 356 l 1
 168 356 l 17
393 606 m 1
 714 606 l 1
 714 481 l 1
 393 481 l 1
 393 606 l 1
168 606 m 1
 337 606 l 1
 337 481 l 1
 168 481 l 1
 168 606 l 1
EndSplineSet
EndChar

StartChar: NameMe.57
Encoding: 362 -1 133
Width: 869
VWidth: 0
Flags: HW
LayerCount: 3
Back
SplineSet
365 -168 m 17
 470 -168 l 0
 520 -168 523 -114 523 -83 c 0
 524 155 l 1
 649 155 l 1
 649 -83 l 0
 649 -151 628 -264 471 -264 c 0
 365 -264 l 1
 365 -168 l 17
195 -124 m 2
 154 -124 155 -168 194 -168 c 2
 310 -168 l 9
 310 -264 l 1
 194 -263.200195312 l 2
 160.00390625 -263.0546875 41 -260.200195312 40 -163 c 0
 40 -129 l 0
 40 -59 105 -29 195 -29 c 2
 704 -29 l 1
 704 595.999023438 l 0
 829 595.999023438 l 0
 829 -124 l 1
 195 -124 l 2
524 210 m 9
 649 210 l 1
 649 210 l 0
 649 361 569 383 476 383 c 1
 476 258 l 0
 519 258 524 257 524 210 c 2
 524 210 l 9
308 1 m 1
 436 1 l 1
 435 603 l 1
 310 603 l 1
 308 1 l 1
62 1 m 9
 187 1 l 1
 187 605 l 1
 62 605 l 1
 62 1 l 9
583 485 m 1
 583 610 l 1
 62 610 l 1
 63 485 l 1
 583 485 l 1
EndSplineSet
Fore
SplineSet
365 -168 m 17
 470 -168 l 0
 520 -168 523 -114 523 -83 c 0
 524 155 l 1
 649 155 l 1
 649 -83 l 0
 649 -151 628 -264 471 -264 c 0
 365 -264 l 1
 365 -168 l 17
195 -124 m 2
 154 -124 155 -168 194 -168 c 2
 310 -168 l 9
 310 -264 l 1
 194 -263.200195312 l 2
 160.00390625 -263.0546875 41 -260.200195312 40 -163 c 0
 40 -129 l 0
 40 -59 105 -29 195 -29 c 2
 704 -29 l 1
 704 595.999023438 l 0
 829 595.999023438 l 0
 829 -124 l 1
 195 -124 l 2
524 210 m 9
 649 210 l 1
 649 210 l 0
 649 361 569 383 476 383 c 1
 476 258 l 0
 519 258 524 257 524 210 c 2
 524 210 l 9
308 1 m 1
 436 1 l 1
 435 603 l 1
 310 603 l 1
 308 1 l 1
62 1 m 9
 187 1 l 1
 187 605 l 1
 62 605 l 1
 62 1 l 9
583 485 m 1
 583 610 l 1
 62 610 l 1
 63 485 l 1
 583 485 l 1
EndSplineSet
EndChar

StartChar: NameMe.58
Encoding: 363 -1 134
Width: 1183
VWidth: 0
Flags: HW
LayerCount: 3
Back
SplineSet
838 534 m 1
 963 534 l 1
 963 -81 l 2
 963 -149 942 -262 785 -262 c 0
 518 -262 l 1
 518 -166 l 17
 784 -166 l 0
 834 -166 838 -112 838 -81 c 0
 838 534 l 1
195 -122 m 2
 154 -122 155 -166 194 -166 c 2
 463 -166 l 9
 463 -262 l 1
 194 -262 l 2
 160.00390625 -261.854492188 41 -258.200195312 40 -161 c 0
 40 -127 l 0
 40 -57 105 -27 195 -27 c 2
 1018 -27 l 1
 1018 597.999023438 l 0
 1143 597.999023438 l 0
 1143 -122 l 1
 195 -122 l 2
821 627 m 1
 894 627 l 2
 947 627 963 605.442382812 963 556 c 2
 963 501 l 1
 821 501 l 1
 821 627 l 1
766 501.666015625 m 1
 762 501.666015625 l 1
 682 501.67578125 558 502.999023438 558.204101562 314 c 0
 558.204101562 176 l 0
 558.204101562 164 556 129 582 129 c 1
 582 3.6796875 l 0
 485 3.6796875 433.204101562 88 433.204101562 175 c 1
 433.204101562 312 l 0
 433.204101562 620 705 627 762 627 c 2
 766 627 l 1
 766 501.666015625 l 1
398 626 m 1
 543 626 786.204101562 617 786.204101562 325 c 2
 786.204101562 175 l 0
 786.204101562 81 736 3.6796875 637 3.6796875 c 1
 637 129 l 0
 666 129 661.204101562 164 661.204101562 175 c 0
 661.204101562 314 l 2
 661.204101562 504 533.833007812 500 398 501 c 1
 398 626 l 1
343 626 m 1
 336 626 l 1
 271 626 41 623.841796875 41 314 c 2
 41 174 l 1
 41 87 93 3 190 3 c 0
 190 128 l 1
 164 128 166 163 166 175 c 0
 166 314 l 0
 165.795898438 501 259.204101562 501 336 501 c 1
 343 501 l 1
 343 626 l 1
302.325195312 464 m 1
 371.166992188 464 394 404.416992188 394 314 c 2
 394 174.185546875 l 0
 394 80.185546875 344 3 245 3 c 1
 245 128.185546875 l 0
 274 128.185546875 269 163.185546875 269 174.185546875 c 0
 269 314 l 2
 269 367.109375 237 367 215 367.088867188 c 1
 212 402 244 459 302.325195312 464 c 1
EndSplineSet
Fore
SplineSet
838 534 m 1
 963 534 l 1
 963 -81 l 2
 963 -149 942 -262 785 -262 c 0
 518 -262 l 1
 518 -166 l 17
 784 -166 l 0
 834 -166 838 -112 838 -81 c 0
 838 534 l 1
195 -122 m 2
 154 -122 155 -166 194 -166 c 2
 463 -166 l 9
 463 -262 l 1
 194 -262 l 2
 160.00390625 -261.854492188 41 -258.200195312 40 -161 c 0
 40 -127 l 0
 40 -57 105 -27 195 -27 c 2
 1018 -27 l 1
 1018 597.999023438 l 0
 1143 597.999023438 l 0
 1143 -122 l 1
 195 -122 l 2
821 627 m 1
 894 627 l 2
 947 627 963 605.442382812 963 556 c 2
 963 501 l 1
 821 501 l 1
 821 627 l 1
766 501.666015625 m 1
 762 501.666015625 l 1
 682 501.67578125 558 502.999023438 558.204101562 314 c 0
 558.204101562 176 l 0
 558.204101562 164 556 129 582 129 c 1
 582 3.6796875 l 0
 485 3.6796875 433.204101562 88 433.204101562 175 c 1
 433.204101562 312 l 0
 433.204101562 620 705 627 762 627 c 2
 766 627 l 1
 766 501.666015625 l 1
398 626 m 1
 543 626 786.204101562 617 786.204101562 325 c 2
 786.204101562 175 l 0
 786.204101562 81 736 3.6796875 637 3.6796875 c 1
 637 129 l 0
 666 129 661.204101562 164 661.204101562 175 c 0
 661.204101562 314 l 2
 661.204101562 504 533.833007812 500 398 501 c 1
 398 626 l 1
343 626 m 1
 336 626 l 1
 271 626 41 623.841796875 41 314 c 2
 41 174 l 1
 41 87 93 3 190 3 c 0
 190 128 l 1
 164 128 166 163 166 175 c 0
 166 314 l 0
 165.795898438 501 259.204101562 501 336 501 c 1
 343 501 l 1
 343 626 l 1
302.325195312 464 m 1
 371.166992188 464 394 404.416992188 394 314 c 2
 394 174.185546875 l 0
 394 80.185546875 344 3 245 3 c 1
 245 128.185546875 l 0
 274 128.185546875 269 163.185546875 269 174.185546875 c 0
 269 314 l 2
 269 367.109375 237 367 215 367.088867188 c 1
 212 402 244 459 302.325195312 464 c 1
EndSplineSet
EndChar

StartChar: NameMe.59
Encoding: 364 -1 135
Width: 563
VWidth: 0
Flags: HW
LayerCount: 3
Back
SplineSet
523 -264.5 m 17
 523 92 l 1
 398 92 l 1
 398 -264.5 l 1
 523 -264.5 l 17
40 109.065429688 m 1
 40 611.065429688 l 1
 165 611.065429688 l 1
 165 109.065429688 l 1
 40 109.065429688 l 1
523 106.065429688 m 17
 523 610.565429688 l 1
 398 610.565429688 l 1
 398 106.065429688 l 1
 523 106.065429688 l 17
309 126.065429688 m 1
 309 1.0654296875 l 1
 523 1.0654296875 l 1
 523 126.065429688 l 1
 309 126.065429688 l 1
40 126.065429688 m 1
 254 126.065429688 l 1
 254 1.0654296875 l 1
 40 1.0654296875 l 1
 40 126.065429688 l 1
EndSplineSet
Fore
SplineSet
523 -264.5 m 17
 523 92 l 1
 398 92 l 1
 398 -264.5 l 1
 523 -264.5 l 17
40 109.065429688 m 1
 40 611.065429688 l 1
 165 611.065429688 l 1
 165 109.065429688 l 1
 40 109.065429688 l 1
523 106.065429688 m 17
 523 610.565429688 l 1
 398 610.565429688 l 1
 398 106.065429688 l 1
 523 106.065429688 l 17
309 126.065429688 m 1
 309 1.0654296875 l 1
 523 1.0654296875 l 1
 523 126.065429688 l 1
 309 126.065429688 l 1
40 126.065429688 m 1
 254 126.065429688 l 1
 254 1.0654296875 l 1
 40 1.0654296875 l 1
 40 126.065429688 l 1
EndSplineSet
EndChar

StartChar: NameMe.60
Encoding: 365 -1 136
Width: 937
VWidth: 0
Flags: HW
LayerCount: 3
Back
SplineSet
630 15 m 1
 630 -31 l 0
 630 -102 589 -155 506 -155 c 0
 403 -155 l 1
 403 -30 l 0
 505 -30 l 0
 505 15 l 1
 630 15 l 1
348 -30 m 17
 255 -30 l 0
 189.944335938 -29.673828125 165.975585938 -10.4873046875 166 55 c 0
 166 554 l 0
 166 591 169 649 245 649 c 0
 244 774 l 0
 157 774 40 726 40 559 c 0
 40 56 l 0
 40 -86 127.887695312 -155 239 -155 c 0
 348 -155 l 1
 348 -30 l 17
720 126 m 1
 763 126 770.78125 160.014648438 771 182.940429688 c 2
 770 439 l 0
 770 463 765 495 720 495 c 1
 720 620 l 1
 818 620 897 552 897 456 c 0
 897 202 l 0
 897 52 803 1 720 1 c 0
 720 126 l 1
665 620 m 1
 665 495 l 17
 625 495 630 422.396484375 630 372 c 2
 630 125.0234375 l 1
 505 125 l 0
 505 372 l 0
 505 579 590 620 665 620 c 1
296 109.065429688 m 1
 296 612.065429688 l 1
 421 612.065429688 l 1
 421 109.065429688 l 1
 296 109.065429688 l 1
665 1.0107421875 m 1
 296 1.0654296875 l 1
 296 126.065429688 l 1
 665 126 l 1
 665 1.0107421875 l 1
EndSplineSet
Fore
SplineSet
630 15 m 1
 630 -31 l 0
 630 -102 589 -155 506 -155 c 0
 403 -155 l 1
 403 -30 l 0
 505 -30 l 0
 505 15 l 1
 630 15 l 1
348 -30 m 17
 255 -30 l 0
 189.944335938 -29.673828125 165.975585938 -10.4873046875 166 55 c 0
 166 554 l 0
 166 591 169 649 245 649 c 0
 244 774 l 0
 157 774 40 726 40 559 c 0
 40 56 l 0
 40 -86 127.887695312 -155 239 -155 c 0
 348 -155 l 1
 348 -30 l 17
720 126 m 1
 763 126 770.78125 160.014648438 771 182.940429688 c 2
 770 439 l 0
 770 463 765 495 720 495 c 1
 720 620 l 1
 818 620 897 552 897 456 c 0
 897 202 l 0
 897 52 803 1 720 1 c 0
 720 126 l 1
665 620 m 1
 665 495 l 17
 625 495 630 422.396484375 630 372 c 2
 630 125.0234375 l 1
 505 125 l 0
 505 372 l 0
 505 579 590 620 665 620 c 1
296 109.065429688 m 1
 296 612.065429688 l 1
 421 612.065429688 l 1
 421 109.065429688 l 1
 296 109.065429688 l 1
665 1.0107421875 m 1
 296 1.0654296875 l 1
 296 126.065429688 l 1
 665 126 l 1
 665 1.0107421875 l 1
EndSplineSet
EndChar

StartChar: NameMe.61
Encoding: 366 -1 137
Width: 770
VWidth: 0
Flags: HW
LayerCount: 3
Back
SplineSet
730 -264.5 m 9
 605 -264.5 l 1
 605 112 l 1
 730 112 l 1
 730 -264.5 l 9
605 148 m 257xe8
 605 610 l 257
 730 610 l 257
 730 1 l 1
 564 1 l 257
 564 122 l 257xf0
 570 122 l 258
 600 122 605 146 605 148 c 257xe8
165 148 m 257
 165 145 171 122 201 122 c 258
 207 122 l 257
 207 1 l 257
 201 1 l 258
 95 1 40 98 40 143 c 258
 40 610 l 257
 165 610 l 257
 165 148 l 257
467 610 m 257
 467 148 l 258
 467 145 473 122 503 122 c 258
 509 122 l 257
 509 1 l 257
 342 1 l 1
 337 34 l 257
 316 11 311 1 269 1 c 258
 263 1 l 257
 263 122 l 257
 269 122 l 258
 300 122 342 132 342 206 c 257
 342 610 l 257
 467 610 l 257
EndSplineSet
Fore
SplineSet
730 -264.5 m 9
 605 -264.5 l 1
 605 112 l 1
 730 112 l 1
 730 -264.5 l 9
605 148 m 257xe8
 605 610 l 257
 730 610 l 257
 730 1 l 1
 564 1 l 257
 564 122 l 257xf0
 570 122 l 258
 600 122 605 146 605 148 c 257xe8
165 148 m 257
 165 145 171 122 201 122 c 258
 207 122 l 257
 207 1 l 257
 201 1 l 258
 95 1 40 98 40 143 c 258
 40 610 l 257
 165 610 l 257
 165 148 l 257
467 610 m 257
 467 148 l 258
 467 145 473 122 503 122 c 258
 509 122 l 257
 509 1 l 257
 342 1 l 1
 337 34 l 257
 316 11 311 1 269 1 c 258
 263 1 l 257
 263 122 l 257
 269 122 l 258
 300 122 342 132 342 206 c 257
 342 610 l 257
 467 610 l 257
EndSplineSet
EndChar

StartChar: NameMe.62
Encoding: 367 -1 138
Width: 979
VWidth: 0
Flags: HW
LayerCount: 3
Back
SplineSet
555 609 m 1
 555 484 l 1
 831 484 l 1
 831 609 l 1
 555 609 l 1
772 256.790039062 m 1
 793.201171875 257.159179688 814 242.29296875 814 191.501953125 c 0
 814 66.501953125 l 0
 814 22.8837890625 818.068359375 -28.5888671875 747 -28.498046875 c 0
 555 -28.498046875 l 9
 555 -153.498046875 l 1
 748 -154.498046875 l 0
 877 -154.498046875 939 -56.4326171875 939 12.6669921875 c 0
 939 226.666992188 l 2
 939 347.250976562 834.333007812 375.06640625 772 381 c 1
 772 256.790039062 l 1
499 -28.498046875 m 17
 255 -28.498046875 l 0
 189.944335938 -28.171875 165.975585938 -7.9853515625 166 57.501953125 c 0
 166 293.501953125 l 0
 166 330.501953125 169 388.501953125 245 388.501953125 c 0
 244 513.501953125 l 0
 157 513.501953125 40 465.501953125 40 298.501953125 c 0
 40 58.501953125 l 0
 40 -83.498046875 127.887695312 -152.498046875 239 -152.498046875 c 0
 499 -153.498046875 l 1
 499 -28.498046875 l 17
717 605 m 1
 589 605 l 1
 589 1 l 1
 715 1 l 1
 717 605 l 1
301 1 m 17
 301 609 l 1
 426 609 l 1
 426 1 l 1
 301 1 l 17
303 609 m 1
 500 609 l 1
 500 484 l 1
 303 484 l 1
 303 609 l 1
EndSplineSet
Fore
SplineSet
555 609 m 1
 555 484 l 1
 831 484 l 1
 831 609 l 1
 555 609 l 1
772 256.790039062 m 1
 793.201171875 257.159179688 814 242.29296875 814 191.501953125 c 0
 814 66.501953125 l 0
 814 22.8837890625 818.068359375 -28.5888671875 747 -28.498046875 c 0
 555 -28.498046875 l 9
 555 -153.498046875 l 1
 748 -154.498046875 l 0
 877 -154.498046875 939 -56.4326171875 939 12.6669921875 c 0
 939 226.666992188 l 2
 939 347.250976562 834.333007812 375.06640625 772 381 c 1
 772 256.790039062 l 1
499 -28.498046875 m 17
 255 -28.498046875 l 0
 189.944335938 -28.171875 165.975585938 -7.9853515625 166 57.501953125 c 0
 166 293.501953125 l 0
 166 330.501953125 169 388.501953125 245 388.501953125 c 0
 244 513.501953125 l 0
 157 513.501953125 40 465.501953125 40 298.501953125 c 0
 40 58.501953125 l 0
 40 -83.498046875 127.887695312 -152.498046875 239 -152.498046875 c 0
 499 -153.498046875 l 1
 499 -28.498046875 l 17
717 605 m 1
 589 605 l 1
 589 1 l 1
 715 1 l 1
 717 605 l 1
301 1 m 17
 301 609 l 1
 426 609 l 1
 426 1 l 1
 301 1 l 17
303 609 m 1
 500 609 l 1
 500 484 l 1
 303 484 l 1
 303 609 l 1
EndSplineSet
EndChar

StartChar: NameMe.63
Encoding: 368 -1 139
Width: 948
VWidth: 0
Flags: HW
LayerCount: 3
Back
SplineSet
729 485.909179688 m 1
 729 -82 l 2
 729 -150 708 -263 551 -263 c 0
 399 -263 l 1
 399 -167 l 17
 550 -167 l 0
 600 -167 604 -113 604 -82 c 0
 604 480.168945312 l 1
 603.98828125 496.168945312 598.102539062 505.998046875 568.103515625 505.956054688 c 258
 550 505.919921875 l 257
 550 626 l 257
 567.387695312 626 l 258
 673.385742188 626 729.030273438 555 729 485.909179688 c 1
195 -123 m 2
 154 -123 155 -167 194 -167 c 2
 344 -167 l 9
 344 -263 l 1
 194 -263 l 2
 160.00390625 -262.854492188 41 -259.200195312 40 -162 c 0
 40 -128 l 0
 40 -58 105 -28 195 -28 c 2
 783 -28 l 1
 783 596.999023438 l 0
 908 596.999023438 l 0
 908 -123 l 1
 195 -123 l 2
193.263671875 477.731445312 m 257xe8
 195.998046875 -1.2607421875 l 257
 64 -2 l 257
 64 490 l 0
 64 541 110.606445312 626.028320312 224 626 c 257
 224 503.973632812 l 257xf0
 219.109375 503.938476562 l 258
 197.1102601 503.78033596 193.251953125 492.731445312 193.263671875 477.731445312 c 257xe8
320.995117188 -0.5205078125 m 257
 318.26171875 478.470703125 l 258
 318.181828754 492.470347538 312.108398438 505 290.108398438 505 c 258
 279 505 l 257
 279 626 l 257
 331.607421875 626.780273438 357.249023438 616 382 595 c 257
 406.880859375 615.147460938 438.389648438 626 480.388671875 626 c 258
 495 626 l 257
 495 505 l 257
 481.104492188 505 l 258
 450.10546875 504.81640625 443.248046875 495.2109375 443.259765625 479.2109375 c 257
 445.993164062 0.21875 l 257
 320.995117188 -0.5205078125 l 257
EndSplineSet
Fore
SplineSet
729 485.909179688 m 1
 729 -82 l 2
 729 -150 708 -263 551 -263 c 0
 399 -263 l 1
 399 -167 l 17
 550 -167 l 0
 600 -167 604 -113 604 -82 c 0
 604 480.168945312 l 1
 603.98828125 496.168945312 598.102539062 505.998046875 568.103515625 505.956054688 c 258
 550 505.919921875 l 257
 550 626 l 257
 567.387695312 626 l 258
 673.385742188 626 729.030273438 555 729 485.909179688 c 1
195 -123 m 2
 154 -123 155 -167 194 -167 c 2
 344 -167 l 9
 344 -263 l 1
 194 -263 l 2
 160.00390625 -262.854492188 41 -259.200195312 40 -162 c 0
 40 -128 l 0
 40 -58 105 -28 195 -28 c 2
 783 -28 l 1
 783 596.999023438 l 0
 908 596.999023438 l 0
 908 -123 l 1
 195 -123 l 2
193.263671875 477.731445312 m 257xe8
 195.998046875 -1.2607421875 l 257
 64 -2 l 257
 64 490 l 0
 64 541 110.606445312 626.028320312 224 626 c 257
 224 503.973632812 l 257xf0
 219.109375 503.938476562 l 258
 197.1102601 503.78033596 193.251953125 492.731445312 193.263671875 477.731445312 c 257xe8
320.995117188 -0.5205078125 m 257
 318.26171875 478.470703125 l 258
 318.181828754 492.470347538 312.108398438 505 290.108398438 505 c 258
 279 505 l 257
 279 626 l 257
 331.607421875 626.780273438 357.249023438 616 382 595 c 257
 406.880859375 615.147460938 438.389648438 626 480.388671875 626 c 258
 495 626 l 257
 495 505 l 257
 481.104492188 505 l 258
 450.10546875 504.81640625 443.248046875 495.2109375 443.259765625 479.2109375 c 257
 445.993164062 0.21875 l 257
 320.995117188 -0.5205078125 l 257
EndSplineSet
EndChar

StartChar: NameMe.64
Encoding: 369 -1 140
Width: 1106
VWidth: 0
Flags: HW
LayerCount: 3
Back
SplineSet
272.00390625 0 m 1
 272.00390625 125.399414062 l 0
 314.403320312 125.399414062 320.002929688 153.606445312 319.280273438 185 c 0
 318.645507812 212.5703125 314.611328125 242.403320312 272.00390625 242.399414062 c 1
 272.00390625 368 l 0
 370.3125 368.303710938 444.84375 282.500976562 445.00390625 228.901367188 c 0
 445.00390625 155.903320312 l 0
 445.904296875 90.91015625 383.4375 -0.1279296875 272.00390625 0 c 1
216.00390625 368 m 1
 216.00390625 242.399414062 l 0
 186.403320312 242.399414062 167.604492188 214.377929688 167.604492188 185 c 0
 167.604492188 152.600585938 182.403320312 125.399414062 216.00390625 125.399414062 c 1
 216.00390625 0 l 0
 111.694335938 0 39.568359375 93.0029296875 40 154.599609375 c 0
 40.3037109375 198.000976562 40.61328125 143.993164062 40 225.599609375 c 0
 39.2001953125 332 165.00390625 368 216.00390625 368 c 1
761 237 m 1
 761 -82 l 0
 761 -113 757 -167 707 -167 c 0
 472 -167 l 9
 472 -263 l 1
 708 -263 l 0
 865 -263 886 -150 886 -82 c 2
 886 237 l 1
 761 237 l 1
195 -123 m 2
 1066 -123 l 1
 1066 596.999023438 l 0
 941 596.999023438 l 0
 941 -28 l 1
 195 -28 l 2
 105 -28 40 -58 40 -128 c 0
 40 -162 l 0
 41 -259.200195312 160.00390625 -262.854492188 194 -263 c 2
 417 -263 l 1
 417 -167 l 17
 194 -167 l 2
 155 -167 154 -123 195 -123 c 2
316.600585938 619 m 1
 316.200195312 495 l 0
 312.400390625 495 l 0
 249.200195312 495 175.200195312 446 175.200195312 346 c 0
 175.200195312 287.819335938 45.7587890625 260.567382812 40 230 c 5
 40 342 l 1
 40 445 133.200195312 618.923828125 315.200195312 619 c 0
 316.600585938 619 l 1
620.204101562 372.400390625 m 0
 619.204101562 473.600585938 539.204101562 619 373.204101562 619 c 2
 371.604492188 619 l 1
 371.604492188 494 l 1
 374.204101562 494 l 2
 431.204101562 494 492.803710938 437.600585938 494.204101562 374 c 8
 495.204101562 180 l 16
 495.204101562 122.92578125 526.731445312 10 639.204101562 10 c 0
 662.204101562 10 646.204101562 10 661.204101562 10 c 1
 661.204101562 136 l 1
 635.762042033 136 620.204101562 152.631362475 620.204101562 179.599609375 c 2
 620.204101562 372.400390625 l 0
886.200195312 445.678710938 m 1
 886.200195312 542 849.204101562 618.852539062 739.202148438 619.357421875 c 0
 716.202148438 619.462890625 723.204101562 618.990234375 708.204101562 618.852539062 c 1
 709.360351562 492.857421875 l 1
 748.204101562 492.857421875 761.200195312 480 761.200195312 442.932617188 c 1
 761.204101562 181 l 17
 761.204101562 153 743.204101562 136 716.204101562 136 c 1
 716.204101562 10 l 1
 731.204101562 10 720.204101562 9.400390625 743.204101562 9.400390625 c 0
 844.676757812 9.400390625 886.200195312 121 886.200195312 181 c 1
 886.200195312 445.678710938 l 1
EndSplineSet
Fore
SplineSet
272.00390625 0 m 1
 272.00390625 125.399414062 l 0
 314.403320312 125.399414062 320.002929688 153.606445312 319.280273438 185 c 0
 318.645507812 212.5703125 314.611328125 242.403320312 272.00390625 242.399414062 c 1
 272.00390625 368 l 0
 370.3125 368.303710938 444.84375 282.500976562 445.00390625 228.901367188 c 0
 445.00390625 155.903320312 l 0
 445.904296875 90.91015625 383.4375 -0.1279296875 272.00390625 0 c 1
216.00390625 368 m 1
 216.00390625 242.399414062 l 0
 186.403320312 242.399414062 167.604492188 214.377929688 167.604492188 185 c 0
 167.604492188 152.600585938 182.403320312 125.399414062 216.00390625 125.399414062 c 1
 216.00390625 0 l 0
 111.694335938 0 39.568359375 93.0029296875 40 154.599609375 c 0
 40.3037109375 198.000976562 40.61328125 143.993164062 40 225.599609375 c 0
 39.2001953125 332 165.00390625 368 216.00390625 368 c 1
761 237 m 1
 761 -82 l 0
 761 -113 757 -167 707 -167 c 0
 472 -167 l 9
 472 -263 l 1
 708 -263 l 0
 865 -263 886 -150 886 -82 c 2
 886 237 l 1
 761 237 l 1
195 -123 m 2
 1066 -123 l 1
 1066 596.999023438 l 0
 941 596.999023438 l 0
 941 -28 l 1
 195 -28 l 2
 105 -28 40 -58 40 -128 c 0
 40 -162 l 0
 41 -259.200195312 160.00390625 -262.854492188 194 -263 c 2
 417 -263 l 1
 417 -167 l 17
 194 -167 l 2
 155 -167 154 -123 195 -123 c 2
316.600585938 619 m 1
 316.200195312 495 l 0
 312.400390625 495 l 0
 249.200195312 495 175.200195312 446 175.200195312 346 c 0
 175.200195312 287.819335938 45.7587890625 260.567382812 40 230 c 5
 40 342 l 1
 40 445 133.200195312 618.923828125 315.200195312 619 c 0
 316.600585938 619 l 1
620.204101562 372.400390625 m 0
 619.204101562 473.600585938 539.204101562 619 373.204101562 619 c 2
 371.604492188 619 l 1
 371.604492188 494 l 1
 374.204101562 494 l 2
 431.204101562 494 492.803710938 437.600585938 494.204101562 374 c 8
 495.204101562 180 l 16
 495.204101562 122.92578125 526.731445312 10 639.204101562 10 c 0
 662.204101562 10 646.204101562 10 661.204101562 10 c 1
 661.204101562 136 l 1
 635.762042033 136 620.204101562 152.631362475 620.204101562 179.599609375 c 2
 620.204101562 372.400390625 l 0
886.200195312 445.678710938 m 1
 886.200195312 542 849.204101562 618.852539062 739.202148438 619.357421875 c 0
 716.202148438 619.462890625 723.204101562 618.990234375 708.204101562 618.852539062 c 1
 709.360351562 492.857421875 l 1
 748.204101562 492.857421875 761.200195312 480 761.200195312 442.932617188 c 1
 761.204101562 181 l 17
 761.204101562 153 743.204101562 136 716.204101562 136 c 1
 716.204101562 10 l 1
 731.204101562 10 720.204101562 9.400390625 743.204101562 9.400390625 c 0
 844.676757812 9.400390625 886.200195312 121 886.200195312 181 c 1
 886.200195312 445.678710938 l 1
EndSplineSet
EndChar

StartChar: NameMe.65
Encoding: 370 -1 141
Width: 1381
VWidth: 0
Flags: HW
LayerCount: 3
Back
SplineSet
1172 250.790039062 m 1
 1194.20117188 251.159179688 1215 242.29296875 1215 191.501953125 c 0
 1215 66.501953125 l 0
 1215 22.8837890625 1219.06835938 -28.5888671875 1148 -28.498046875 c 0
 724 -28.498046875 l 9
 724 -153 l 1
 1149 -153 l 0
 1278 -153 1340 -56.4326171875 1340 12.6669921875 c 0
 1340 226.666992188 l 2
 1340 337.250976562 1235.33300781 375.06640625 1172 381 c 1
 1172 250.790039062 l 1
669 -28.498046875 m 17
 255 -28.498046875 l 0
 189.944335938 -28.171875 165.975585938 -7.9853515625 166 57.501953125 c 0
 166 293.501953125 l 0
 166 330.501953125 169 388.501953125 245 388.501953125 c 0
 244 513.501953125 l 0
 157 513.501953125 40 465.501953125 40 298.501953125 c 0
 40 58.501953125 l 0
 40 -83.498046875 127.887695312 -153 239 -153 c 0
 669 -153 l 1
 669 -28.498046875 l 17
538.400390625 608 m 1
 538 484 l 0
 534.200195312 484 l 0
 471 484 408 435 408 335 c 0
 408 276.819335938 278.758789062 261.567382812 273 231 c 1
 273 334 l 1
 273 437 355 607.923828125 537 608 c 0
 538.400390625 608 l 1
504 0 m 1
 504 125.399414062 l 0
 538.399414062 125.399414062 551.860411203 153.600883952 552.276367188 185 c 0
 552.641601562 212.5703125 533.607421875 241.403320312 504 242.399414062 c 1
 504 368 l 0
 612.30859375 368.303710938 676.999023438 290.500976562 677.159179688 228.901367188 c 0
 677.270507812 185.801757812 677.069335938 220.700195312 678.188476562 139.903320312 c 0
 679.088867188 74.91015625 615.43359375 -0.1279296875 504 0 c 1
594.400390625 485 m 1
 597 485 l 2
 653 485 715.599609375 426.600585938 717 363 c 1
 718 0 l 1
 847 0 l 1
 843 363.400390625 l 1
 843 464.600585938 766 609 595 609 c 2
 594.400390625 609 l 1
 594.400390625 485 l 1
449 368 m 1
 449 242.399414062 l 0
 419.399414062 242.399414062 400.600585938 214.377929688 400.600585938 185 c 0
 400.600585938 152.600585938 415.399414062 125.399414062 449 125.399414062 c 1
 449 0 l 0
 339.690429688 0 274.96875 76.0029296875 274.400390625 137.599609375 c 0
 274 181 273.413085938 143.993164062 272.799804688 225.599609375 c 0
 272 332 398 368 449 368 c 1
992 0 m 1
 1117 0 l 1
 1117 587.852539062 l 1
 992 587.852539062 l 1
 992 0 l 1
963 609 m 1
 963 483 l 1
 1192 483 l 1
 1192 609 l 1
 963 609 l 1
908 609 m 1
 886 609 l 0
 711.52734375 609.001953125 717 419.07421875 717 333 c 1
 843 333.400390625 l 1
 843 464 866 483 908 483 c 1
 908 609 l 1
EndSplineSet
Fore
SplineSet
1172 250.790039062 m 1
 1194.20117188 251.159179688 1215 242.29296875 1215 191.501953125 c 0
 1215 66.501953125 l 0
 1215 22.8837890625 1219.06835938 -28.5888671875 1148 -28.498046875 c 0
 724 -28.498046875 l 9
 724 -153 l 1
 1149 -153 l 0
 1278 -153 1340 -56.4326171875 1340 12.6669921875 c 0
 1340 226.666992188 l 2
 1340 337.250976562 1235.33300781 375.06640625 1172 381 c 1
 1172 250.790039062 l 1
669 -28.498046875 m 17
 255 -28.498046875 l 0
 189.944335938 -28.171875 165.975585938 -7.9853515625 166 57.501953125 c 0
 166 293.501953125 l 0
 166 330.501953125 169 388.501953125 245 388.501953125 c 0
 244 513.501953125 l 0
 157 513.501953125 40 465.501953125 40 298.501953125 c 0
 40 58.501953125 l 0
 40 -83.498046875 127.887695312 -153 239 -153 c 0
 669 -153 l 1
 669 -28.498046875 l 17
538.400390625 608 m 1
 538 484 l 0
 534.200195312 484 l 0
 471 484 408 435 408 335 c 0
 408 276.819335938 278.758789062 261.567382812 273 231 c 1
 273 334 l 1
 273 437 355 607.923828125 537 608 c 0
 538.400390625 608 l 1
504 0 m 1
 504 125.399414062 l 0
 538.399414062 125.399414062 551.860411203 153.600883952 552.276367188 185 c 0
 552.641601562 212.5703125 533.607421875 241.403320312 504 242.399414062 c 1
 504 368 l 0
 612.30859375 368.303710938 676.999023438 290.500976562 677.159179688 228.901367188 c 0
 677.270507812 185.801757812 677.069335938 220.700195312 678.188476562 139.903320312 c 0
 679.088867188 74.91015625 615.43359375 -0.1279296875 504 0 c 1
594.400390625 485 m 1
 597 485 l 2
 653 485 715.599609375 426.600585938 717 363 c 1
 718 0 l 1
 847 0 l 1
 843 363.400390625 l 1
 843 464.600585938 766 609 595 609 c 2
 594.400390625 609 l 1
 594.400390625 485 l 1
449 368 m 1
 449 242.399414062 l 0
 419.399414062 242.399414062 400.600585938 214.377929688 400.600585938 185 c 0
 400.600585938 152.600585938 415.399414062 125.399414062 449 125.399414062 c 1
 449 0 l 0
 339.690429688 0 274.96875 76.0029296875 274.400390625 137.599609375 c 0
 274 181 273.413085938 143.993164062 272.799804688 225.599609375 c 0
 272 332 398 368 449 368 c 1
992 0 m 1
 1117 0 l 1
 1117 587.852539062 l 1
 992 587.852539062 l 1
 992 0 l 1
963 609 m 1
 963 483 l 1
 1192 483 l 1
 1192 609 l 1
 963 609 l 1
908 609 m 1
 886 609 l 0
 711.52734375 609.001953125 717 419.07421875 717 333 c 1
 843 333.400390625 l 1
 843 464 866 483 908 483 c 1
 908 609 l 1
EndSplineSet
EndChar

StartChar: NameMe.66
Encoding: 371 -1 142
Width: 914
VWidth: 0
Flags: HW
LayerCount: 3
Back
SplineSet
630 -34 m 1
 630 -80 l 0
 630 -151 589 -204 506 -204 c 0
 403 -204 l 1
 403 -79 l 0
 505 -79 l 0
 505 -34 l 1
 630 -34 l 1
348 -79 m 17
 255 -79 l 0
 189.944335938 -78.673828125 165.975585938 -59.4873046875 166 6 c 0
 166 557 l 0
 166 594 169 652 245 652 c 0
 244 777 l 0
 157 777 40 729 40 562 c 0
 40 7 l 0
 40 -135 127.887695312 -204 239 -204 c 0
 348 -204 l 1
 348 -79 l 17
698 125 m 1
 740 125 747.78125 159.014648438 748 181.940429688 c 2
 747 459 l 0
 747 483 744 515 698 515 c 1
 698 640 l 1
 797 640 874 572 874 476 c 0
 874 201 l 0
 874 51 780 0 698 0 c 0
 697 0 698 125 698 125 c 1
643 640 m 1
 643 515 l 17
 603 515 607 442.396484375 607 392 c 2
 607 124.0234375 l 1
 482 124 l 0
 482 392 l 0
 482 599 568 640 643 640 c 1
273 108.065429688 m 1
 273 611.065429688 l 1
 398 611.065429688 l 1
 398 108.065429688 l 1
 273 108.065429688 l 1
  Spiro
    273 108.065 v
    273 611.065 v
    398 611.065 v
    398 108.065 v
    0 0 z
  EndSpiro
643 0.0107421875 m 1
 273 0.0654296875 l 1
 273 125.065429688 l 1
 643 125 l 1
 643 0.0107421875 l 1
482 1.3330078125 m 1
 607 1.3330078125 l 1
 607 -29 643 -22.6669921875 805 -22.6669921875 c 1
 805 -149 l 0
 672 -148.349609375 l 1
 503.846679688 -148.879882812 482.149414062 -61.4599609375 482 1.3330078125 c 1
EndSplineSet
Fore
SplineSet
630 -34 m 1
 630 -80 l 0
 630 -151 589 -204 506 -204 c 0
 403 -204 l 1
 403 -79 l 0
 505 -79 l 0
 505 -34 l 1
 630 -34 l 1
348 -79 m 17
 255 -79 l 0
 189.944335938 -78.673828125 165.975585938 -59.4873046875 166 6 c 0
 166 557 l 0
 166 594 169 652 245 652 c 0
 244 777 l 0
 157 777 40 729 40 562 c 0
 40 7 l 0
 40 -135 127.887695312 -204 239 -204 c 0
 348 -204 l 1
 348 -79 l 17
698 125 m 1
 740 125 747.78125 159.014648438 748 181.940429688 c 2
 747 459 l 0
 747 483 744 515 698 515 c 1
 698 640 l 1
 797 640 874 572 874 476 c 0
 874 201 l 0
 874 51 780 0 698 0 c 0
 697 0 698 125 698 125 c 1
643 640 m 1
 643 515 l 17
 603 515 607 442.396484375 607 392 c 2
 607 124.0234375 l 1
 482 124 l 0
 482 392 l 0
 482 599 568 640 643 640 c 1
273 108.065429688 m 1
 273 611.065429688 l 1
 398 611.065429688 l 1
 398 108.065429688 l 1
 273 108.065429688 l 1
  Spiro
    273 108.065 v
    273 611.065 v
    398 611.065 v
    398 108.065 v
    0 0 z
  EndSpiro
643 0.0107421875 m 1
 273 0.0654296875 l 1
 273 125.065429688 l 1
 643 125 l 1
 643 0.0107421875 l 1
482 1.3330078125 m 1
 607 1.3330078125 l 1
 607 -29 643 -22.6669921875 805 -22.6669921875 c 1
 805 -149 l 0
 672 -148.349609375 l 1
 503.846679688 -148.879882812 482.149414062 -61.4599609375 482 1.3330078125 c 1
EndSplineSet
EndChar

StartChar: NameMe.67
Encoding: 372 -1 143
Width: 906
VWidth: 0
Flags: HW
LayerCount: 3
Back
SplineSet
272.00390625 0 m 1
 272.00390625 125.399414062 l 0
 314.403320312 125.399414062 320.002929688 153.606445312 319.280273438 185 c 0
 318.645507812 212.5703125 314.611328125 242.403320312 272.00390625 242.399414062 c 1
 272.00390625 368 l 0
 370.3125 368.303710938 444.84375 282.500976562 445.00390625 228.901367188 c 0
 445.00390625 155.903320312 l 0
 445.904296875 90.91015625 383.4375 -0.1279296875 272.00390625 0 c 1
216.00390625 368 m 1
 216.00390625 242.399414062 l 0
 186.403320312 242.399414062 167.604492188 214.377929688 167.604492188 185 c 0
 167.604492188 152.600585938 182.403320312 125.399414062 216.00390625 125.399414062 c 1
 216.00390625 0 l 0
 111.694335938 0 39.572265625 93.0029296875 40.00390625 154.599609375 c 0
 40.3076171875 198.000976562 40.6171875 143.993164062 40.00390625 225.599609375 c 0
 39.2041015625 332 165.00390625 368 216.00390625 368 c 1
304.608398438 610 m 1
 304.208007812 485 l 0
 300.408203125 485 l 0
 237.208007812 485 186.208007812 441 179.208007812 365 c 0
 173.872070312 307.064453125 45.7626953125 261.567382812 40.00390625 231 c 1
 40.00390625 289 l 1
 40.00390625 381 87.2080078125 609.923828125 303.208007812 610 c 0
 304.608398438 610 l 1
361.00390625 485 m 1
 364.00390625 485 l 2
 433.00390625 485 498.603515625 426.600585938 500.00390625 363 c 1
 500.00390625 149 l 0
 500.00390625 130 472.50390625 127.889648438 465.0078125 126.399414062 c 1
 465.0078125 0.3994140625 l 1
 685.408203125 0.3994140625 l 1
 686.208007812 126 l 1
 625.208007812 126 l 1
 625.208007812 363.400390625 l 1
 624.208007812 464.600585938 535.00390625 610 371.00390625 610 c 2
 361.00390625 610 l 1
 361.00390625 485 l 1
741.208007812 610 m 1
 866.80859375 610 l 1
 866.80859375 -260.80078125 l 1
 741.208007812 -260.80078125 l 1
 741.208007812 610 l 1
EndSplineSet
Fore
SplineSet
272.00390625 0 m 1
 272.00390625 125.399414062 l 0
 314.403320312 125.399414062 320.002929688 153.606445312 319.280273438 185 c 0
 318.645507812 212.5703125 314.611328125 242.403320312 272.00390625 242.399414062 c 1
 272.00390625 368 l 0
 370.3125 368.303710938 444.84375 282.500976562 445.00390625 228.901367188 c 0
 445.00390625 155.903320312 l 0
 445.904296875 90.91015625 383.4375 -0.1279296875 272.00390625 0 c 1
216.00390625 368 m 1
 216.00390625 242.399414062 l 0
 186.403320312 242.399414062 167.604492188 214.377929688 167.604492188 185 c 0
 167.604492188 152.600585938 182.403320312 125.399414062 216.00390625 125.399414062 c 1
 216.00390625 0 l 0
 111.694335938 0 39.572265625 93.0029296875 40.00390625 154.599609375 c 0
 40.3076171875 198.000976562 40.6171875 143.993164062 40.00390625 225.599609375 c 0
 39.2041015625 332 165.00390625 368 216.00390625 368 c 1
304.608398438 610 m 1
 304.208007812 485 l 0
 300.408203125 485 l 0
 237.208007812 485 186.208007812 441 179.208007812 365 c 0
 173.872070312 307.064453125 45.7626953125 261.567382812 40.00390625 231 c 1
 40.00390625 289 l 1
 40.00390625 381 87.2080078125 609.923828125 303.208007812 610 c 0
 304.608398438 610 l 1
361.00390625 485 m 1
 364.00390625 485 l 2
 433.00390625 485 498.603515625 426.600585938 500.00390625 363 c 1
 500.00390625 149 l 0
 500.00390625 130 472.50390625 127.889648438 465.0078125 126.399414062 c 1
 465.0078125 0.3994140625 l 1
 685.408203125 0.3994140625 l 1
 686.208007812 126 l 1
 625.208007812 126 l 1
 625.208007812 363.400390625 l 1
 624.208007812 464.600585938 535.00390625 610 371.00390625 610 c 2
 361.00390625 610 l 1
 361.00390625 485 l 1
741.208007812 610 m 1
 866.80859375 610 l 1
 866.80859375 -260.80078125 l 1
 741.208007812 -260.80078125 l 1
 741.208007812 610 l 1
EndSplineSet
EndChar

StartChar: NameMe.49
Encoding: 373 -1 144
Width: 845
VWidth: 0
Flags: HW
LayerCount: 3
Back
SplineSet
680 609 m 1
 805 609 l 1
 805 -263 l 1
 680 -263 l 1
 680 609 l 1
326 125 m 1
 682 125.065429688 l 1
 682 0.0654296875 l 1
 326 0 l 1
 326 125 l 1
282 125 m 1
 315.639648438 125 375.05859375 125 444 125 c 0
 503 125 500 128.418945312 500 148 c 0
 500 216 l 2
 500 237.028320312 504 236 468 237 c 0
 468 362 l 1
 540 362 626 330 626 235 c 0
 626 114 l 0
 626 44.044921875 563.067382812 0 467 0 c 0
 388 0 365.600585938 0 282 0 c 1
 282 125 l 1
288 181 m 5
 413 181 l 5
 413 603 l 1
 288 603 l 1
 288 181 l 5
40 0 m 9
 165 0 l 1
 165 605 l 1
 40 605 l 1
 40 0 l 9
524 484 m 1
 524 609 l 1
 40 609 l 1
 41 484 l 1
 524 484 l 1
EndSplineSet
Fore
SplineSet
680 609 m 1
 805 609 l 1
 805 -263 l 1
 680 -263 l 1
 680 609 l 1
326 125 m 1
 682 125.065429688 l 1
 682 0.0654296875 l 1
 326 0 l 1
 326 125 l 1
282 125 m 1
 315.639648438 125 375.05859375 125 444 125 c 0
 503 125 500 128.418945312 500 148 c 0
 500 216 l 2
 500 237.028320312 504 236 468 237 c 0
 468 362 l 1
 540 362 626 330 626 235 c 0
 626 114 l 0
 626 44.044921875 563.067382812 0 467 0 c 0
 388 0 365.600585938 0 282 0 c 1
 282 125 l 1
288 181 m 5
 413 181 l 5
 413 603 l 1
 288 603 l 1
 288 181 l 5
40 0 m 9
 165 0 l 1
 165 605 l 1
 40 605 l 1
 40 0 l 9
524 484 m 1
 524 609 l 1
 40 609 l 1
 41 484 l 1
 524 484 l 1
EndSplineSet
EndChar

StartChar: NameMe.52
Encoding: 374 -1 145
Width: 1024
VWidth: 0
Flags: H
LayerCount: 3
Fore
SplineSet
538.00390625 353 m 0
 538.022288602 432.999994879 545.833984375 514 478.00390625 516 c 1
 478.00390625 641 l 1
 614.00390625 641 663.00390625 535 663.00390625 372 c 0
 662.980903581 160.007398405 663.00252605 -52.0012878051 663.00390625 -264 c 1
 538.00390625 -264 l 1
 538.005269807 -58.3346217351 537.99583956 147.34095541 538.00390625 353 c 0
337 375 m 0
 337 238.459960938 453 143 514 105 c 1
 339 106 l 1
 294 149 212 227.52734375 212 375 c 0
 212 491 279 641 423 641 c 1
 423 516 l 0
 390 516 337 467 337 375 c 0
28 125 m 1
 770 125 l 1
 770 0 l 1
 28 0 l 1
 28 125 l 1
28 610 m 1
 153 610 l 1
 153 180 l 1
 28 180 l 1
 28 610 l 1
EndSplineSet
EndChar

